<svg width="12" height="17" viewBox="0 0 12 17" fill="none" xmlns="http://www.w3.org/2000/svg">
<path d="M6.90625 1.71875C6.65625 0.8125 5.34375 0.78125 5.0625 1.71875C3.625 6.625 0.5 7.96875 0.5 11.4375C0.5 14.5312 2.9375 17 6 17C9.03125 17 11.5 14.5312 11.5 11.4375C11.5 7.96875 8.375 6.65625 6.90625 1.71875ZM6 15C4.0625 15 2.5 13.4375 2.5 11.5312C2.5 11.2812 2.71875 11.0312 3 11.0312C3.25 11.0312 3.5 11.2812 3.5 11.5312C3.5 12.9375 4.59375 14 6 14C6.25 14 6.5 14.25 6.5 14.5C6.5 14.7812 6.25 15 6 15Z" fill="#6197FF"/>
</svg>
