<svg width="36" height="34" viewBox="0 0 36 34" fill="none" xmlns="http://www.w3.org/2000/svg">
<g clip-path="url(#clip0_0_530)" filter="url(#filter0_d_0_530)">
<g filter="url(#filter1_d_0_530)">
<path d="M28.9947 13.3389C27.0352 11.6678 24.0881 11.7584 22.2357 13.6108C20.3833 15.4633 20.2926 18.4103 21.9638 20.3699L28.9947 13.3389Z" fill="#FF6197"/>
<path d="M22.5301 20.9362C24.4896 22.6073 27.4367 22.5166 29.2891 20.6642C31.1415 18.8118 31.2322 15.8648 29.5611 13.9052L22.5301 20.9362Z" fill="#FF6197"/>
</g>
<path d="M14.9995 4C14.9995 3.44772 15.4472 3 15.9995 3C16.5518 3 16.9995 3.44772 16.9995 4V20H14.9995V4Z" fill="#777777"/>
<g filter="url(#filter2_b_0_530)">
<rect x="6.99951" y="9" width="18" height="19" rx="1.5" fill="white" fill-opacity="0.15"/>
<rect x="7.49951" y="9.5" width="17" height="18" rx="1" stroke="url(#paint0_linear_0_530)" stroke-opacity="0.25"/>
</g>
<g filter="url(#filter3_b_0_530)">
<path d="M7.99951 15.3634C13.6749 11.6676 16.7268 16.818 23.9995 15.3634V25.5C23.9995 26.3284 23.3279 27 22.4995 27H9.49951C8.67108 27 7.99951 26.3284 7.99951 25.5V15.3634Z" fill="white" fill-opacity="0.5"/>
</g>
<path d="M13 3.5C13 2.67157 13.6716 2 14.5 2H17.5C18.3284 2 19 2.67157 19 3.5V7.25C19 7.66421 18.6642 8 18.25 8H13.75C13.3358 8 13 7.66421 13 7.25V3.5Z" fill="#6197FF"/>
<path d="M2.25 25.6875C2.25 23.72 3.84499 22.125 5.8125 22.125H10.8V29.25H5.8125C3.84499 29.25 2.25 27.655 2.25 25.6875Z" fill="#6197FF"/>
<path d="M19.3499 25.6875C19.3499 23.72 17.7549 22.125 15.7874 22.125H10.7999V29.25H15.7874C17.7549 29.25 19.3499 27.655 19.3499 25.6875Z" fill="#FF6197"/>
</g>
<defs>
<filter id="filter0_d_0_530" x="0" y="-1.5" width="36" height="36" filterUnits="userSpaceOnUse" color-interpolation-filters="sRGB">
<feFlood flood-opacity="0" result="BackgroundImageFix"/>
<feColorMatrix in="SourceAlpha" type="matrix" values="0 0 0 0 0 0 0 0 0 0 0 0 0 0 0 0 0 0 127 0" result="hardAlpha"/>
<feOffset dx="1.5" dy="1.5"/>
<feGaussianBlur stdDeviation="1.5"/>
<feColorMatrix type="matrix" values="0 0 0 0 0.0687782 0 0 0 0 0.0971668 0 0 0 0 0.170166 0 0 0 0.15 0"/>
<feBlend mode="normal" in2="BackgroundImageFix" result="effect1_dropShadow_0_530"/>
<feBlend mode="normal" in="SourceGraphic" in2="effect1_dropShadow_0_530" result="shape"/>
</filter>
<filter id="filter1_d_0_530" x="18.5249" y="9.90002" width="15.975" height="15.975" filterUnits="userSpaceOnUse" color-interpolation-filters="sRGB">
<feFlood flood-opacity="0" result="BackgroundImageFix"/>
<feColorMatrix in="SourceAlpha" type="matrix" values="0 0 0 0 0 0 0 0 0 0 0 0 0 0 0 0 0 0 127 0" result="hardAlpha"/>
<feOffset dx="0.75" dy="0.75"/>
<feGaussianBlur stdDeviation="1.5"/>
<feColorMatrix type="matrix" values="0 0 0 0 0 0 0 0 0 0 0 0 0 0 0 0 0 0 0.1 0"/>
<feBlend mode="normal" in2="BackgroundImageFix" result="effect1_dropShadow_0_530"/>
<feBlend mode="normal" in="SourceGraphic" in2="effect1_dropShadow_0_530" result="shape"/>
</filter>
<filter id="filter2_b_0_530" x="1.99951" y="4" width="28" height="29" filterUnits="userSpaceOnUse" color-interpolation-filters="sRGB">
<feFlood flood-opacity="0" result="BackgroundImageFix"/>
<feGaussianBlur in="BackgroundImage" stdDeviation="2.5"/>
<feComposite in2="SourceAlpha" operator="in" result="effect1_backgroundBlur_0_530"/>
<feBlend mode="normal" in="SourceGraphic" in2="effect1_backgroundBlur_0_530" result="shape"/>
</filter>
<filter id="filter3_b_0_530" x="2.99951" y="9" width="26" height="23" filterUnits="userSpaceOnUse" color-interpolation-filters="sRGB">
<feFlood flood-opacity="0" result="BackgroundImageFix"/>
<feGaussianBlur in="BackgroundImage" stdDeviation="2.5"/>
<feComposite in2="SourceAlpha" operator="in" result="effect1_backgroundBlur_0_530"/>
<feBlend mode="normal" in="SourceGraphic" in2="effect1_backgroundBlur_0_530" result="shape"/>
</filter>
<linearGradient id="paint0_linear_0_530" x1="4.74951" y1="8.32143" x2="14.1612" y2="33.7798" gradientUnits="userSpaceOnUse">
<stop stop-color="#EFF6FC"/>
<stop offset="1" stop-color="white"/>
</linearGradient>
<clipPath id="clip0_0_530">
<rect width="30" height="30" fill="white" transform="translate(1.5)"/>
</clipPath>
</defs>
</svg>
