<svg width="31" height="30" viewBox="0 0 31 30" fill="none" xmlns="http://www.w3.org/2000/svg">
<circle cx="15.5" cy="15" r="14.25" fill="#D6D6D6"/>
<circle cx="15.4995" cy="15.0001" r="11.9663" fill="#EEEEEE"/>
<path d="M20.6656 12.9411C20.4443 10.386 18.5732 8.93744 15.9779 8.93744C13.2014 8.93744 11.0085 10.7884 11.0085 14.2287C11.0085 17.654 13.1411 19.52 15.9779 19.52C18.9957 19.52 20.5247 17.4277 20.6656 15.6773L17.8288 15.6572C17.688 16.5374 17.0643 17.0856 16.0382 17.0856C14.6751 17.0856 13.8855 16.1199 13.8855 14.2287C13.8855 12.4381 14.65 11.3718 16.0583 11.3718C17.1347 11.3718 17.7483 12.0056 17.8288 12.9411H20.6656Z" fill="#EAEAEB"/>
<path d="M10.3848 20.6397H21.2692V22.2493H10.3848V20.6397Z" fill="#EAEAEB"/>
<path d="M20.3382 12.3621C20.1169 9.80697 18.2458 8.3584 15.6505 8.3584C12.874 8.3584 10.6811 10.2093 10.6811 13.6497C10.6811 17.075 12.8137 18.941 15.6505 18.941C18.6683 18.941 20.1974 16.8486 20.3382 15.0983L17.5014 15.0781C17.3606 15.9584 16.7369 16.5066 15.7108 16.5066C14.3478 16.5066 13.5581 15.5409 13.5581 13.6497C13.5581 11.8591 14.3226 10.7928 15.7309 10.7928C16.8073 10.7928 17.4209 11.4265 17.5014 12.3621H20.3382Z" fill="#95969D"/>
<path d="M10.0574 20.0607H20.9418V21.6702H10.0574V20.0607Z" fill="#95969D"/>
<path d="M24.6605 7.32035C22.5376 5.39841 19.7215 4.22773 16.6321 4.22773C10.0236 4.22773 4.66591 9.58523 4.66591 16.1941C4.66591 19.1265 5.72083 21.8126 7.47192 23.8936C5.05324 21.7041 3.53369 18.5395 3.53369 15.02C3.53369 8.41121 8.89136 3.05371 15.4999 3.05371C19.1765 3.05371 22.4657 4.71153 24.6605 7.32035Z" fill="#EAEAEB"/>
</svg>
