<svg width="19" height="21" viewBox="0 0 19 21" fill="none" xmlns="http://www.w3.org/2000/svg">
<path d="M5.875 16.4375C5.09375 16.0078 4.625 15.1875 4.625 14.25V12.375C4.625 11.0469 5.44531 9.91406 6.65625 9.48438C6.14844 8.89844 5.875 8.19531 5.875 7.375C5.875 7.21875 5.875 7.0625 5.91406 6.86719C5.67969 6.82812 5.48438 6.75 5.25 6.75H2.75C1.34375 6.75 0.25 7.88281 0.25 9.25V13C0.25 13.7031 0.796875 14.25 1.5 14.25V19.25C1.5 19.9531 2.04688 20.5 2.75 20.5H5.25C5.5625 20.5 5.83594 20.3828 6.03125 20.1875C5.91406 19.9141 5.875 19.6016 5.875 19.25V16.4375ZM14 5.5C15.3672 5.5 16.5 4.40625 16.5 3C16.5 1.63281 15.3672 0.5 14 0.5C12.5938 0.5 11.5 1.63281 11.5 3C11.5 4.40625 12.5938 5.5 14 5.5ZM4 5.5C5.36719 5.5 6.5 4.40625 6.5 3C6.5 1.63281 5.36719 0.5 4 0.5C2.59375 0.5 1.5 1.63281 1.5 3C1.5 4.40625 2.59375 5.5 4 5.5ZM18.7266 13.9375L17.0859 8.11719C16.8516 7.33594 16.1094 6.75 15.25 6.75H12.6719C12.4375 6.75 12.2031 6.82812 12.0078 6.90625C12.0859 7.0625 12.125 7.21875 12.125 7.375C12.125 8.19531 11.8125 8.89844 11.3047 9.48438C12.5156 9.91406 13.375 11.0469 13.375 12.375V14.25C13.375 15.1875 12.8672 16.0078 12.125 16.4375V19.25C12.125 19.6016 12.0469 19.9141 11.9297 20.1875C12.125 20.3828 12.3984 20.5 12.75 20.5H15.25C15.9141 20.5 16.5 19.9531 16.5 19.25V15.5H17.5156C18.375 15.5 18.9609 14.7188 18.7266 13.9375ZM12.125 12.375C12.125 11.3594 11.2656 10.5 10.25 10.5H7.75C6.69531 10.5 5.875 11.3594 5.875 12.375V14.25C5.875 14.9531 6.42188 15.5 7.125 15.5V19.25C7.125 19.9531 7.67188 20.5 8.375 20.5H9.625C10.2891 20.5 10.875 19.9531 10.875 19.25V15.5C11.5391 15.5 12.125 14.9531 12.125 14.25V12.375ZM9 9.25C10.0156 9.25 10.875 8.42969 10.875 7.375C10.875 6.35938 10.0156 5.5 9 5.5C7.94531 5.5 7.125 6.35938 7.125 7.375C7.125 8.42969 7.94531 9.25 9 9.25Z" fill="#6197FF"/>
</svg>
