<svg width="32" height="32" viewBox="0 0 32 32" fill="none" xmlns="http://www.w3.org/2000/svg">
<rect width="32" height="32" rx="16" fill="#FF6197"/>
<path d="M23.1335 9.23102H13.6203C13.4191 9.23102 13.2545 9.39564 13.2545 9.59688V10.5134C14.6595 10.5134 16.0645 11.0494 17.1349 12.1179C19.2754 14.2584 19.2754 17.7399 17.1349 19.8804C16.0646 20.9507 14.6596 21.4849 13.2545 21.4849V22.4032C13.2545 22.6044 13.4191 22.769 13.6203 22.769H23.1335C23.3348 22.769 23.4994 22.6044 23.4994 22.4032V9.59688C23.4994 9.39563 23.3348 9.23102 23.1335 9.23102ZM21.1211 21.3055C20.4149 21.3055 19.8405 20.731 19.8405 20.0249C19.8405 19.3187 20.415 18.7443 21.1211 18.7443C21.8273 18.7443 22.4017 19.3188 22.4017 20.0249C22.4018 20.7311 21.8273 21.3055 21.1211 21.3055V21.3055ZM21.1211 17.2807C20.4149 17.2807 19.8405 16.7062 19.8405 16.0001C19.8405 15.2939 20.415 14.7195 21.1211 14.7195C21.8273 14.7195 22.4017 15.294 22.4017 16.0001C22.4018 16.7063 21.8273 17.2807 21.1211 17.2807V17.2807ZM21.1211 13.2558C20.4149 13.2558 19.8405 12.6813 19.8405 11.9753C19.8405 11.269 20.415 10.6947 21.1211 10.6947C21.8273 10.6947 22.4017 11.2692 22.4017 11.9753C22.4018 12.6813 21.8273 13.2558 21.1211 13.2558V13.2558Z" fill="white"/>
<path d="M16.6174 12.6351C15.6916 11.7093 14.4732 11.2447 13.2547 11.2447C12.0363 11.2447 10.8178 11.7075 9.89046 12.6351C8.03724 14.4902 8.03724 17.5086 9.89046 19.3619C11.7456 21.2171 14.764 21.2171 16.6174 19.3619C18.4726 17.5087 18.4726 14.4903 16.6175 12.6351H16.6174ZM16.2295 15.0939C15.8984 15.4251 15.4484 15.597 14.9856 15.597C14.9179 15.597 14.8484 15.5915 14.7806 15.5842C14.8392 16.1166 14.6709 16.6526 14.2903 17.0349C13.9574 17.3661 13.5073 17.5379 13.0444 17.5379C12.9768 17.5379 12.909 17.5325 12.8395 17.5233C12.8998 18.0575 12.7297 18.5936 12.3492 18.974C12.2778 19.0453 12.1846 19.0819 12.0894 19.0819C11.9961 19.0819 11.9028 19.0453 11.8314 18.974C11.7601 18.9026 11.7254 18.8093 11.7254 18.7141C11.7254 18.6209 11.7601 18.5276 11.8314 18.4562C12.137 18.1507 12.2065 17.6622 12.0125 17.2415C11.8534 17.1684 11.6851 17.1317 11.5205 17.1317C11.2497 17.1317 10.9881 17.2305 10.796 17.4226C10.6533 17.5652 10.4227 17.5652 10.2783 17.4226C10.1356 17.278 10.1356 17.0475 10.2783 16.9048C10.6588 16.5243 11.1967 16.3542 11.729 16.4128C11.6704 15.8803 11.8387 15.3444 12.2193 14.9638C12.5998 14.5833 13.1358 14.4149 13.6682 14.4718C13.6096 13.9393 13.7797 13.4034 14.1603 13.0228C14.3029 12.8801 14.5353 12.8801 14.678 13.0228C14.7493 13.0942 14.7841 13.1894 14.7841 13.2826C14.7841 13.3759 14.7493 13.4692 14.678 13.5405C14.3707 13.8478 14.303 14.3346 14.4969 14.7571C14.6543 14.8302 14.8226 14.865 14.9854 14.865C15.258 14.865 15.5214 14.7663 15.7117 14.576C15.8543 14.4333 16.0867 14.4333 16.2294 14.576C16.3722 14.7188 16.3722 14.951 16.2295 15.0939L16.2295 15.0939Z" fill="white"/>
<path d="M13.0513 15.2776L13.9788 16.2051C14.0941 15.9289 14.0904 15.5996 13.9551 15.3014C13.6569 15.1642 13.3276 15.1606 13.0513 15.2776L13.0513 15.2776Z" fill="white"/>
<path d="M12.5573 16.6992C12.8555 16.8346 13.1848 16.8383 13.4611 16.723L12.5336 15.7955C12.4164 16.0718 12.4201 16.4011 12.5573 16.6992L12.5573 16.6992Z" fill="white"/>
<path d="M21.6724 11.9752C21.6724 12.2783 21.4267 12.5241 21.1235 12.5241C20.8204 12.5241 20.5748 12.2783 20.5748 11.9752C20.5748 11.6721 20.8204 11.4263 21.1235 11.4263C21.4267 11.4263 21.6724 11.6721 21.6724 11.9752Z" fill="white"/>
<path d="M21.6724 16.0006C21.6724 16.3037 21.4267 16.5495 21.1235 16.5495C20.8204 16.5495 20.5748 16.3037 20.5748 16.0006C20.5748 15.6975 20.8204 15.4517 21.1235 15.4517C21.4267 15.4517 21.6724 15.6975 21.6724 16.0006Z" fill="white"/>
<path d="M21.6724 20.026C21.6724 20.3291 21.4267 20.5749 21.1235 20.5749C20.8204 20.5749 20.5748 20.3291 20.5748 20.026C20.5748 19.7229 20.8204 19.4771 21.1235 19.4771C21.4267 19.4771 21.6724 19.7229 21.6724 20.026Z" fill="white"/>
</svg>
