<svg width="32" height="32" viewBox="0 0 32 32" fill="none" xmlns="http://www.w3.org/2000/svg">
<rect width="32" height="32" rx="16" fill="#6197FF"/>
<path d="M17.75 16.4219L16.3828 19.1562C16.2188 19.4844 15.7539 19.457 15.5898 19.1289L14.0312 15.6836L13.2109 17.6523L10.5312 17.625L15.3438 22.6289C15.6992 22.9844 16.2734 22.9844 16.6016 22.6289L21.4414 17.625L18.3789 17.6523L17.75 16.4219ZM21.6602 11.4727C20.1562 10.1875 17.8867 10.4336 16.5195 11.8281L16 12.4023L15.4531 11.8281C14.0859 10.4336 11.8164 10.1875 10.3125 11.4727C8.75391 12.8398 8.5625 15.1641 9.76562 16.75H12.6367L13.6211 14.3984C13.7578 14.043 14.25 14.043 14.4141 14.3984L16 17.9258L17.3398 15.2461C17.5039 14.9453 17.9688 14.9453 18.1328 15.2461L18.8984 16.7773H22.207C23.4102 15.1641 23.2188 12.8398 21.6602 11.4727Z" fill="white"/>
</svg>
