<svg width="32" height="32" viewBox="0 0 32 32" fill="none" xmlns="http://www.w3.org/2000/svg">
<rect width="32" height="32" rx="16" fill="#6197FF"/>
<path d="M22.7272 21.4509L20.388 18.777C19.8724 19.4283 19.238 19.9758 18.5183 20.3904L20.8658 23.0775C21.1563 23.41 21.6023 23.5623 22.0355 23.4769C22.4688 23.3915 22.8236 23.0815 22.9662 22.6635C23.1089 22.2457 23.0178 21.7835 22.7272 21.451L22.7272 21.4509Z" fill="white"/>
<path d="M14.8703 20.9855C15.0119 20.9954 15.1534 21.0004 15.2932 21.0004C16.9157 21.0009 18.4747 20.3704 19.6407 19.2423C20.8068 18.1141 21.4885 16.5768 21.5417 14.9551C21.5949 13.3335 21.0154 11.7549 19.9258 10.5526C18.8361 9.35047 17.3217 8.6193 15.7028 8.51337C15.5613 8.51337 15.4198 8.50002 15.28 8.50002C13.6475 8.48341 12.0731 9.10637 10.894 10.2355C9.7149 11.3648 9.02459 12.9107 8.97092 14.5426C8.91715 16.1743 9.50423 17.7621 10.6065 18.9665C11.7086 20.171 13.2384 20.8961 14.8686 20.9868L14.8703 20.9855ZM16.8682 12.3661C17.0315 12.326 17.2006 12.3154 17.3677 12.3344L17.7873 11.7684C17.8281 11.7182 17.9001 11.7074 17.9537 11.7434C18.0087 11.7847 18.0204 11.8623 17.9803 11.9182L17.629 12.3893C17.7635 12.4309 17.891 12.4927 18.0071 12.5725C18.0387 12.589 18.0618 12.6182 18.0705 12.6529C18.0791 12.6875 18.0726 12.7242 18.0525 12.7537C18.0323 12.7832 18.0006 12.8026 17.9651 12.8071C17.9297 12.8116 17.8941 12.8008 17.8672 12.7772C17.5611 12.5677 17.1734 12.5164 16.8233 12.6392H16.8149C16.3671 12.734 16.4053 13.2302 16.4071 13.2519C16.4129 13.3204 16.3622 13.3804 16.2938 13.3866H16.2689C16.2045 13.3868 16.1509 13.3376 16.1456 13.2735C16.1365 13.1613 16.1477 13.0485 16.179 12.9404H16.1373C16.0625 12.9407 15.9885 12.9243 15.9209 12.8922C15.7434 12.7833 15.6182 12.6064 15.5746 12.4027C15.5621 12.3354 15.6046 12.2702 15.6711 12.2545C15.7386 12.2411 15.8043 12.284 15.8193 12.351C15.8445 12.4841 15.9226 12.6013 16.0358 12.6757C16.1337 12.7107 16.2421 12.7009 16.3322 12.6491C16.4085 12.5537 16.5092 12.4806 16.6236 12.4376C16.5278 12.1629 16.3319 11.9343 16.0751 11.7978C15.8182 11.6611 15.5191 11.6265 15.2378 11.7006C14.9565 11.7748 14.7135 11.9523 14.5574 12.1979C14.5266 12.2463 14.4669 12.2676 14.4125 12.2495C14.3858 12.2416 14.3585 12.2356 14.3309 12.2312C14.1749 12.2043 14.0146 12.2415 13.8864 12.3344C13.7578 12.4267 13.6711 12.5662 13.645 12.7223C13.6392 12.7682 13.6392 12.8146 13.645 12.8605V12.8689V12.8789C13.6394 13.0061 13.6783 13.1313 13.7553 13.2329C13.8321 13.3344 13.9421 13.4059 14.0663 13.4349C14.1254 13.4521 14.1631 13.5098 14.1552 13.5709C14.1473 13.6319 14.0961 13.6781 14.0346 13.6797H14.003C13.9569 13.6674 13.9118 13.6518 13.8681 13.633C13.8681 13.8428 13.7849 14.1142 13.4486 14.3856C13.3948 14.4288 13.3162 14.4202 13.2728 14.3664C13.2296 14.3126 13.2382 14.234 13.292 14.1908C13.7915 13.7879 13.5834 13.4333 13.5567 13.3933C13.4639 13.272 13.4064 13.1274 13.3903 12.9753C13.375 12.9706 13.3594 12.9666 13.3437 12.9637C13.1051 12.924 12.8614 12.9942 12.6804 13.1547C12.4995 13.3152 12.4009 13.5488 12.4119 13.7904C12.4231 14.0321 12.5428 14.2556 12.7376 14.3989C12.7673 14.4205 12.7861 14.4539 12.7892 14.4905C12.7909 14.5263 12.7776 14.5613 12.7525 14.5871C12.5832 14.7567 12.4709 14.975 12.4313 15.2114C12.4155 15.3105 12.4121 15.4112 12.4213 15.511C12.4281 15.5796 12.3781 15.6405 12.3097 15.6476H12.2964C12.2324 15.647 12.1792 15.5981 12.1731 15.5344C12.1343 15.1645 12.2453 14.7946 12.4812 14.5072C12.4517 14.4782 12.4239 14.4477 12.398 14.4155L11.5539 14.4638C11.4875 14.464 11.4325 14.4119 11.4289 14.3456C11.4261 14.277 11.4786 14.2186 11.5471 14.214L12.2498 14.1741C12.1659 13.9873 12.1393 13.7799 12.1731 13.5781C12.2189 13.3031 12.3718 13.0574 12.5984 12.8952C12.8251 12.7328 13.1069 12.6671 13.3819 12.7123V12.6807C13.3988 12.5837 13.4333 12.4907 13.4835 12.406L12.8558 11.7799C12.8071 11.7312 12.8071 11.6522 12.8558 11.6035C12.9055 11.5554 12.9842 11.5554 13.0339 11.6035L13.6517 12.2129C13.8418 12.0275 14.109 11.944 14.3709 11.9881H14.3958C14.6789 11.6024 15.1388 11.3872 15.6162 11.417V10.6778C15.6162 10.6079 15.6729 10.5512 15.7428 10.5512C15.8127 10.5512 15.8693 10.6079 15.8693 10.6778V11.462C16.3345 11.5737 16.7109 11.9143 16.8682 12.3661ZM13.9013 15.9757C13.9141 15.9094 13.9773 15.8653 14.0439 15.8761C14.1106 15.8869 14.1566 15.9488 14.1478 16.0156C14.0712 16.4868 13.6283 16.6716 13.3153 16.7199C13.3589 16.8963 13.4529 17.0561 13.586 17.1798C13.7191 17.3034 13.8854 17.3855 14.0645 17.4159C14.3431 17.4629 14.6279 17.3794 14.837 17.1894C14.8859 17.1428 14.9629 17.1428 15.0118 17.1894C15.0606 17.2403 15.1167 17.2835 15.1783 17.3177H15.1999C15.2406 17.3173 15.2785 17.3381 15.2998 17.3726C15.3304 17.3827 15.3615 17.3905 15.3931 17.3959C15.5148 17.4152 15.6394 17.402 15.7544 17.3576C15.7791 17.2052 15.7445 17.0492 15.6579 16.9214C15.6063 16.8617 15.5334 16.8247 15.4547 16.8182C15.3864 16.8163 15.3322 16.76 15.3331 16.6916C15.3331 16.6236 15.3883 16.5685 15.4564 16.5685C15.6048 16.574 15.7444 16.6402 15.8426 16.7516C15.9764 16.9254 16.0363 17.1449 16.0092 17.3626C16.3354 17.5128 16.7129 17.5022 17.0303 17.3342C17.3476 17.166 17.5685 16.8594 17.6274 16.5052C17.6491 16.3789 17.6491 16.25 17.6274 16.1239C17.4804 15.946 17.2652 15.8385 17.0347 15.8275C16.7792 15.8527 16.5421 15.9713 16.3687 16.1605C16.3213 16.2045 16.2483 16.2051 16.2002 16.1618C16.1522 16.1184 16.1452 16.0457 16.184 15.9941C16.2707 15.903 16.3692 15.824 16.477 15.7592C16.3179 15.7121 16.1739 15.6243 16.0591 15.5046C15.9233 15.3579 15.8489 15.1649 15.851 14.9651C15.8571 14.8976 15.9147 14.8465 15.9824 14.8485C16.0509 14.8521 16.1035 14.91 16.1007 14.9784C16.1009 15.1125 16.1528 15.2413 16.2455 15.338C16.4428 15.5129 16.7018 15.6016 16.9647 15.5845C16.9741 15.5829 16.9836 15.5829 16.993 15.5845C17.0092 15.5836 17.0252 15.5836 17.0414 15.5845C17.3248 15.5925 17.5927 15.7165 17.7822 15.9274C17.9829 15.8381 18.1292 15.6587 18.1761 15.444C18.2232 15.2294 18.1653 15.0053 18.0204 14.8402C17.826 14.9365 17.6129 14.9888 17.396 14.9934C17.3639 14.995 17.3316 14.995 17.2994 14.9934C17.2308 14.9873 17.1797 14.9272 17.1846 14.8585C17.1923 14.7908 17.2512 14.7406 17.3194 14.7436C17.5489 14.7562 17.7772 14.7024 17.9771 14.5888C18.2737 14.3212 18.4125 13.9203 18.345 13.5266C18.333 13.4586 18.3785 13.3936 18.4466 13.3817C18.5145 13.3698 18.5795 13.4152 18.5914 13.4833C18.6055 13.5641 18.6122 13.646 18.6114 13.728L19.1674 13.9345C19.2212 13.9572 19.252 14.0143 19.2417 14.0716C19.2313 14.1291 19.1825 14.1717 19.1241 14.1742C19.1098 14.1765 19.0952 14.1765 19.0809 14.1742L18.5814 13.991C18.5318 14.2579 18.4064 14.5047 18.2201 14.702C18.3862 14.91 18.4564 15.1786 18.4133 15.4412L19.0143 15.5828C19.0759 15.5973 19.1169 15.6556 19.1097 15.7185C19.1024 15.7815 19.0493 15.829 18.9859 15.8291H18.9576L18.3466 15.6727C18.2539 15.8803 18.0888 16.0472 17.8822 16.1422C17.8968 16.2765 17.8917 16.4122 17.8672 16.5451C17.8446 16.6796 17.8031 16.8101 17.744 16.933L18.2435 17.3508C18.283 17.3848 18.2974 17.4396 18.2796 17.4885C18.2618 17.5374 18.2156 17.5701 18.1635 17.5707C18.1336 17.5706 18.1047 17.56 18.0819 17.5407L17.6208 17.1495C17.5326 17.2689 17.4265 17.374 17.306 17.4608C17.0682 17.6313 16.7829 17.7233 16.4903 17.7239C16.2754 17.7242 16.0631 17.6765 15.8692 17.5841C15.7054 17.6534 15.5253 17.6748 15.3498 17.6456H15.3215V18.2799C15.3215 18.3489 15.2655 18.4048 15.1966 18.4048C15.1276 18.4048 15.0717 18.3489 15.0717 18.2799V17.5507C15.0123 17.523 14.9565 17.4884 14.9052 17.4475C14.7031 17.5968 14.4582 17.6774 14.2068 17.6774C13.9554 17.6774 13.7106 17.5968 13.5084 17.4475L13.0222 17.947C12.9984 17.9709 12.9661 17.9847 12.9323 17.9853C12.8991 17.9854 12.8673 17.9722 12.8441 17.9486C12.7954 17.8998 12.7954 17.8209 12.8441 17.7721L13.3268 17.2726C13.1802 17.1104 13.0821 16.9103 13.0438 16.6949C12.8659 16.6247 12.704 16.5194 12.5677 16.3853C12.519 16.3365 12.519 16.2576 12.5677 16.2088C12.6164 16.1601 12.6954 16.1601 12.7442 16.2088C12.8665 16.3299 13.0144 16.422 13.177 16.4785C13.3019 16.4752 13.8298 16.4153 13.9013 15.9757ZM14.9419 13.7713C14.7288 13.3967 14.9602 12.9289 14.9702 12.9089C15.0014 12.8482 15.0756 12.8237 15.1368 12.854C15.1663 12.8686 15.1887 12.8945 15.199 12.9257C15.2094 12.957 15.2067 12.9911 15.1917 13.0205C15.1917 13.0205 15.0102 13.3918 15.1567 13.6482C15.25 13.8147 15.4647 13.9079 15.7911 13.9312C15.8242 13.9334 15.8551 13.9485 15.877 13.9735C15.8988 13.9986 15.9099 14.0312 15.9076 14.0643C15.9024 14.1297 15.8482 14.1802 15.7827 14.1809H15.7727C15.3581 14.1492 15.0784 14.0078 14.9419 13.7713Z" fill="white"/>
</svg>
