<svg width="52" height="52" viewBox="0 0 52 52" fill="none" xmlns="http://www.w3.org/2000/svg">
<g clip-path="url(#clip0_1_558)">
<rect width="52" height="52" rx="26" fill="#FFD585"/>
<g clip-path="url(#clip1_1_558)">
<path d="M13.2041 25.6704C13.1568 25.4282 13.0813 25.1928 12.9792 24.9695C12.874 24.8254 12.319 24.9347 11.5679 24.0996C10.8167 23.2644 10.2043 22.4044 9.70672 22.0763C9.20914 21.7482 9.18044 21.6041 9.47228 21.5444C9.66506 21.5387 9.85689 21.5746 10.0356 21.6499C10.2143 21.7252 10.376 21.8382 10.5105 21.9819C10.9076 22.305 11.4674 23.0308 11.7114 22.9363C11.4762 22.628 11.2221 22.3357 10.9507 22.0614C10.6531 21.6768 10.3859 21.2678 10.1517 20.8385C9.97465 20.6099 10.3239 20.3066 10.7306 20.7093C11.1373 21.1119 11.3621 21.4848 11.5679 21.614C11.7736 21.7433 12.3429 22.3547 12.5247 22.3895C12.3553 22.0286 12.1602 21.6813 11.941 21.3505C11.6901 20.9512 11.4755 20.5285 11.2999 20.0879C11.1947 19.8443 11.4626 19.5908 11.8932 20.1127C12.1281 20.4167 12.3423 20.7372 12.5343 21.0722C12.63 21.1666 13.1993 21.8079 13.2807 21.9272C13.2113 21.6652 13.1266 21.4079 13.0271 21.1567C12.9075 20.8982 12.7448 20.4756 12.6491 20.2569C12.5534 20.0382 12.6156 19.6405 13.0845 20.0282C13.3785 20.3105 13.6188 20.6478 13.7926 21.0225C14.007 21.2741 14.1992 21.5453 14.3667 21.8327C14.4642 22.047 14.5988 22.2408 14.7638 22.4044C14.797 22.1577 14.8891 21.9236 15.0318 21.7234C15.2279 21.5196 15.6346 21.3506 15.7877 21.5792C15.9408 21.8079 15.448 22.2105 15.3571 22.6679C15.2662 23.1252 15.3571 23.334 15.2518 23.687C15.2092 23.8151 15.1417 23.9327 15.0537 24.0327C14.9657 24.1328 14.8589 24.213 14.7399 24.2686C14.7878 24.4758 14.8704 24.6727 14.9839 24.8502C14.9839 24.8502 14.7399 25.6953 13.2041 25.6704Z" fill="#FDC088"/>
<g style="mix-blend-mode:multiply" opacity="0.6">
<path d="M14.5965 23.8361C14.4346 23.8449 14.2725 23.823 14.1181 23.7714C13.8119 23.7068 13.6779 23.8659 13.4435 24.01C13.3179 24.0814 13.1794 24.1244 13.0368 24.1364C12.8942 24.1484 12.7507 24.1291 12.6158 24.0796C12.4851 24.0569 12.3631 23.9968 12.2635 23.906C12.1639 23.8152 12.0905 23.6974 12.0518 23.5658C12.013 23.4341 12.0104 23.2938 12.0441 23.1607C12.0778 23.0276 12.1465 22.9068 12.2426 22.812C12.5866 22.4906 12.9952 22.2529 13.4387 22.1161C13.6827 22.0514 14.5917 21.9172 14.3956 22.4491C14.3297 22.5969 14.2512 22.7383 14.1611 22.8717C14.1028 22.9722 14.0777 23.0898 14.0898 23.2065C14.1019 23.3232 14.1505 23.4326 14.2281 23.5179C14.1181 23.0208 14.5248 22.7225 14.8836 22.464C14.8266 22.2423 14.8452 22.007 14.9362 21.7979C14.8304 21.9842 14.7605 22.1902 14.7305 22.4044C14.5654 22.2408 14.4308 22.047 14.3334 21.8327C14.3334 21.7929 14.2855 21.7482 14.2616 21.7035C14.2377 21.6587 14.2616 21.7283 14.2616 21.7382C14.174 21.8265 14.064 21.8869 13.9445 21.9124C13.825 21.938 13.701 21.9276 13.587 21.8824C13.4678 21.7802 13.3742 21.6494 13.3142 21.5014C13.2542 21.3534 13.2296 21.1924 13.2425 21.0324C12.9985 20.8981 13.0225 20.6993 12.8693 20.411C12.7737 20.2469 12.678 20.0133 12.7593 19.8691C12.5823 19.8691 12.5727 20.1028 12.6349 20.2569C12.6971 20.411 12.8933 20.8981 13.0129 21.1566C13.1124 21.4079 13.1971 21.6652 13.2665 21.9271C13.2436 21.8934 13.218 21.8618 13.1899 21.8327C13.1892 21.8943 13.1685 21.9538 13.1311 22.0016C13.0938 22.0494 13.042 22.0827 12.9842 22.0962C12.8939 22.1423 12.7902 22.1516 12.6936 22.1221C12.5971 22.0927 12.5146 22.0266 12.4627 21.9371C12.3813 21.8029 12.0799 21.3505 12.1134 21.2511C11.8933 21.1666 11.7976 20.754 11.5919 20.4308C11.4719 20.2785 11.4016 20.0905 11.391 19.894C11.3854 19.8661 11.3854 19.8373 11.391 19.8094C11.3633 19.816 11.3375 19.8293 11.3158 19.8484C11.2941 19.8674 11.2772 19.8917 11.2664 19.9189C11.2556 19.9462 11.2513 19.9758 11.2538 20.0052C11.2563 20.0346 11.2656 20.063 11.2809 20.0878C11.4565 20.5285 11.6711 20.9512 11.922 21.3505C12.1412 21.6812 12.3363 22.0285 12.5057 22.3895C12.4195 22.355 12.34 22.3045 12.2713 22.2403C12.2904 22.2932 12.2904 22.3515 12.2713 22.4044C12.2187 22.5684 11.9268 22.643 11.7929 22.5883C11.5961 22.4833 11.4232 22.3358 11.2857 22.1558C11.184 22.068 11.1175 21.9439 11.0991 21.8078H11.0465C10.702 21.6339 10.5298 21.1815 10.3193 20.8733C10.2448 20.785 10.1966 20.6762 10.1805 20.5601C10.1583 20.5741 10.1395 20.5931 10.1253 20.6158C10.1112 20.6384 10.1022 20.6641 10.099 20.6909C10.0958 20.7177 10.0984 20.7448 10.1067 20.7704C10.1151 20.7959 10.1288 20.8192 10.147 20.8385C10.3813 21.2677 10.6485 21.6767 10.946 22.0614C11.2174 22.3357 11.4715 22.6279 11.7067 22.9363H11.6685C11.6206 23.6869 10.6446 22.6927 10.5106 22.5684L9.9126 22.0365C9.74514 21.8923 9.49635 21.7979 9.34325 21.6438L9.30976 21.5941C9.21886 21.6786 9.30976 21.8178 9.70208 22.0663C10.1805 22.3944 10.8216 23.2544 11.5632 24.0896C12.3048 24.9247 12.8694 24.8154 12.9746 24.9595C13.0766 25.1828 13.1522 25.4182 13.1995 25.6605C14.7353 25.6853 14.9697 24.8402 14.9697 24.8402C14.8562 24.6627 14.7736 24.4658 14.7257 24.2586C14.8447 24.203 14.9515 24.1228 15.0395 24.0228C15.1275 23.9227 15.195 23.8051 15.2376 23.677C15.283 23.5157 15.3024 23.3477 15.295 23.1799C15.2525 23.3479 15.1638 23.4994 15.0397 23.616C14.9157 23.7325 14.7617 23.8089 14.5965 23.8361V23.8361Z" fill="#D9AE91"/>
</g>
<g style="mix-blend-mode:multiply" opacity="0.6">
<path d="M14.3632 24.8055C14.0761 24.8851 13.6455 25.1287 13.3536 24.9895C13.0618 24.8503 13.4589 24.6365 13.5642 24.5719C13.7181 24.4406 13.9032 24.3547 14.1 24.3233C14.3112 24.3205 14.522 24.3056 14.7316 24.2786V24.2786C14.9413 24.175 15.1103 23.9994 15.21 23.7815C15.1694 23.8271 15.1262 23.8703 15.0808 23.9107C14.7268 24.214 14.3057 24.0947 13.8895 24.0798C13.751 24.2594 13.5706 24.3994 13.3655 24.4864C13.1604 24.5734 12.9373 24.6045 12.7173 24.5769C12.4886 24.5523 12.2732 24.4537 12.1015 24.2949C11.9297 24.1361 11.8104 23.9252 11.7604 23.692C11.7739 23.4294 11.8558 23.1755 11.9974 22.9575C12.139 22.7395 12.3349 22.5655 12.5642 22.4542C12.8992 22.2164 13.2648 22.0289 13.6503 21.8974H13.612C13.5099 21.9259 13.4106 21.9642 13.3154 22.0118C12.967 22.1576 12.6268 22.3235 12.2963 22.5089C12.0834 22.6317 11.8988 22.8013 11.7557 23.006C11.7051 23.1079 11.6407 23.2017 11.5643 23.2844C11.459 23.3788 11.2964 23.5081 11.1911 23.3888C9.85626 21.9571 9.43523 21.8229 9.27734 21.7234C9.39151 21.8627 9.52936 21.979 9.68402 22.0665C10.1625 22.3946 10.8036 23.2546 11.5451 24.0897C12.2867 24.9248 12.8513 24.8155 12.9565 24.9596C13.0586 25.1829 13.1341 25.4183 13.1814 25.6606C14.7172 25.6854 14.9516 24.8403 14.9516 24.8403C14.9068 24.7784 14.8683 24.7118 14.8368 24.6415L14.3632 24.8055Z" fill="#D9AE91"/>
</g>
<path d="M40.8178 39.1372C40.2133 39.1184 39.6089 39.1785 39.0188 39.3162C38.9543 39.2512 38.8776 39.2007 38.7935 39.1679C38.7094 39.135 38.6197 39.1204 38.53 39.1251C38.4403 39.1298 38.3524 39.1535 38.2719 39.1949C38.1914 39.2364 38.1199 39.2946 38.062 39.3659C37.7138 39.0176 37.3938 38.6402 37.1051 38.2374C36.7309 38.5875 36.3083 38.8773 35.8516 39.0974C36.33 39.7785 36.6984 40.211 36.7175 40.2308C36.7367 40.2507 36.4448 40.6882 36.6219 41.3096C36.7989 41.931 37.9806 41.9906 38.1385 42.0552C38.4226 42.3626 38.6139 42.7497 38.6887 43.1688C38.8275 43.6957 39.3107 43.9393 39.4399 43.482C39.4689 43.0257 39.3815 42.5695 39.1863 42.1596C39.5031 42.4633 39.7929 42.7961 40.0523 43.1539C40.4637 43.7206 41.0091 43.1787 40.6886 42.5673C40.4178 42.1126 40.0692 41.7133 39.6599 41.3891C40.0426 41.4221 40.408 41.5687 40.7125 41.8117C41.1335 42.1895 41.7412 42.8059 42.0043 42.4032C42.2674 42.0006 41.856 41.409 41.2484 41.061C40.8325 40.835 40.4006 40.6423 39.9566 40.4844C40.3271 40.5904 40.7204 40.573 41.0809 40.4347C41.3206 40.4985 41.539 40.6291 41.7124 40.8125C42.0474 41.1058 42.5354 41.3643 42.7172 40.897C42.899 40.4297 41.5593 39.2167 40.8178 39.1372Z" fill="#F5AE80"/>
<path d="M40.8178 39.1372C40.2133 39.1184 39.6089 39.1785 39.0188 39.3162C38.9543 39.2512 38.8776 39.2007 38.7935 39.1679C38.7094 39.135 38.6197 39.1204 38.53 39.1251C38.4403 39.1298 38.3524 39.1535 38.2719 39.1949C38.1914 39.2364 38.1199 39.2946 38.062 39.3659C37.7138 39.0176 37.3938 38.6402 37.1051 38.2374C36.7309 38.5875 36.3083 38.8773 35.8516 39.0974C36.33 39.7785 36.6984 40.211 36.7175 40.2308C36.7367 40.2507 36.4448 40.6882 36.6219 41.3096C36.7989 41.931 37.9806 41.9906 38.1385 42.0552C38.4226 42.3626 38.6139 42.7497 38.6887 43.1688C38.8275 43.6957 39.3107 43.9393 39.4399 43.482C39.4689 43.0257 39.3815 42.5695 39.1863 42.1596C39.5031 42.4633 39.7929 42.7961 40.0523 43.1539C40.4637 43.7206 41.0091 43.1787 40.6886 42.5673C40.4178 42.1126 40.0692 41.7133 39.6599 41.3891C40.0426 41.4221 40.408 41.5687 40.7125 41.8117C41.1335 42.1895 41.7412 42.8059 42.0043 42.4032C42.2674 42.0006 41.856 41.409 41.2484 41.061C40.8325 40.835 40.4006 40.6423 39.9566 40.4844C40.3271 40.5904 40.7204 40.573 41.0809 40.4347C41.3206 40.4985 41.539 40.6291 41.7124 40.8125C42.0474 41.1058 42.5354 41.3643 42.7172 40.897C42.899 40.4297 41.5593 39.2167 40.8178 39.1372Z" fill="#F5AE80"/>
<g style="mix-blend-mode:multiply">
<g style="mix-blend-mode:multiply">
<path d="M37.8989 39.2018C37.6056 38.9013 37.3338 38.579 37.0855 38.2374C36.7113 38.5875 36.2888 38.8773 35.832 39.0974C36.2196 39.6343 36.521 40.0121 36.6406 40.1612C37.1417 39.9769 37.5794 39.6432 37.8989 39.2018Z" fill="#D9AE91"/>
</g>
</g>
<g style="mix-blend-mode:multiply" opacity="0.5">
<g style="mix-blend-mode:multiply" opacity="0.4">
<path d="M41.6604 39.6741C41.5756 39.5603 41.4526 39.484 41.3159 39.4603C41.1855 39.4313 41.0521 39.4196 40.9188 39.4255C40.6509 39.4255 40.3925 39.4554 40.1437 39.4703C40.0194 39.4703 39.8997 39.4703 39.7897 39.4703C39.6847 39.4805 39.579 39.4805 39.4739 39.4703H39.3352L39.2156 39.4305C39.1518 39.4061 39.0908 39.3744 39.0338 39.3361L38.8711 39.2466L39.0242 39.3559L39.206 39.4603L39.3256 39.5051L39.4644 39.5449C39.5696 39.5449 39.6749 39.5449 39.7897 39.5449C39.9092 39.5523 40.029 39.5523 40.1485 39.5449C40.3925 39.5449 40.6557 39.5449 40.9188 39.515C41.0459 39.4976 41.1745 39.4976 41.3016 39.515C41.4159 39.5344 41.5196 39.5962 41.5934 39.689C41.6652 39.7785 41.5934 39.9028 41.5456 39.9922C41.4791 40.074 41.4036 40.1474 41.3207 40.211C41.1932 40.3073 41.0551 40.3874 40.9093 40.4496L40.737 40.5043H40.7849L40.914 40.4744C41.0689 40.427 41.2158 40.3549 41.3494 40.2607C41.4406 40.2006 41.5229 40.1269 41.5934 40.042C41.6366 39.9923 41.6677 39.9326 41.6843 39.868C41.6916 39.8336 41.6916 39.798 41.6843 39.7636C41.6811 39.7326 41.673 39.7024 41.6604 39.6741V39.6741Z" fill="#A5693C"/>
</g>
<g style="mix-blend-mode:multiply" opacity="0.4">
<path d="M39.6212 40.2756L39.5781 40.2458V40.3005C39.5359 40.4289 39.4745 40.5496 39.3963 40.6584C39.3532 40.7098 39.3051 40.7564 39.2528 40.7976L39.1763 40.8473L39.0806 40.8821H38.9897H38.8892C38.824 40.8893 38.7582 40.8893 38.693 40.8821C38.5587 40.8586 38.4272 40.8203 38.3007 40.7677C38.4208 40.8397 38.5495 40.8949 38.6835 40.9318C38.7511 40.9486 38.8199 40.9602 38.8892 40.9666H38.9945H39.1045C39.1389 40.958 39.1725 40.9464 39.205 40.9318C39.2385 40.9149 39.2705 40.8949 39.3007 40.8722C39.3619 40.8333 39.4155 40.7827 39.4585 40.723C39.5393 40.6204 39.5995 40.5021 39.6356 40.375C39.7118 40.4272 39.7959 40.4659 39.8843 40.4894C39.8915 40.6726 39.8622 40.8554 39.7982 41.0263C39.7739 41.089 39.7434 41.1489 39.7073 41.2052C39.6757 41.2588 39.6388 41.3087 39.5973 41.3544C39.5709 41.388 39.5421 41.4196 39.5112 41.4488L39.4777 41.4886H39.5207C39.5494 41.4637 39.5925 41.4488 39.6356 41.409C39.6575 41.3905 39.6782 41.3706 39.6978 41.3494C39.7225 41.327 39.7449 41.302 39.7647 41.2748C39.7871 41.2445 39.8078 41.213 39.8269 41.1804C39.8448 41.1466 39.8608 41.1117 39.8748 41.076C39.9254 40.9452 39.9435 40.8033 39.9274 40.6634C39.9236 40.6126 39.9139 40.5626 39.8987 40.5142L40.004 40.5391C40.1456 40.5688 40.2904 40.5788 40.4346 40.5689C40.292 40.5573 40.1509 40.5307 40.0135 40.4894C39.8706 40.4454 39.7373 40.3728 39.6212 40.2756V40.2756Z" fill="#A5693C"/>
</g>
<g style="mix-blend-mode:multiply" opacity="0.4">
<path d="M38.1525 39.2814C38.1163 39.2934 38.0812 39.3084 38.0472 39.3261L37.9515 39.3858L37.8511 39.4753C37.8184 39.5042 37.788 39.5358 37.7602 39.5697C37.7362 39.5988 37.7154 39.6304 37.698 39.6641C37.6758 39.6953 37.6566 39.7286 37.6406 39.7636L37.7315 39.694L37.8176 39.6194L37.9085 39.5349L38.0807 39.3708L38.1525 39.2814Z" fill="#A5693C"/>
</g>
</g>
<g style="mix-blend-mode:multiply" opacity="0.6">
<g style="mix-blend-mode:multiply" opacity="0.6">
<path d="M39.843 39.52C40.2162 39.52 40.599 39.4255 40.9721 39.4454H40.7664C40.5033 39.4454 40.2306 39.4454 39.9674 39.4454C39.8047 39.4454 39.489 39.4454 39.3646 39.2764C39.1541 39.3112 39.0153 39.346 39.0153 39.346L38.9531 39.3012C39.0309 39.3778 39.1241 39.4355 39.2258 39.4702C39.4287 39.5139 39.6361 39.5306 39.843 39.52V39.52Z" fill="#D9AE91"/>
</g>
</g>
<g style="mix-blend-mode:multiply" opacity="0.6">
<g style="mix-blend-mode:multiply" opacity="0.6">
<path d="M42.625 40.9319C42.5358 40.9719 42.4363 40.9795 42.3425 40.9533C42.2487 40.9271 42.1661 40.8688 42.1083 40.7877C41.9262 40.6346 41.7819 40.4387 41.6873 40.216C41.6822 40.1988 41.6832 40.1803 41.6903 40.1638C41.6973 40.1474 41.7098 40.1342 41.7255 40.1266C41.8643 39.9227 41.7782 39.7736 41.6107 39.6642C41.6231 39.703 41.6231 39.7448 41.6107 39.7836C41.6135 39.795 41.6135 39.8069 41.6107 39.8183C41.5676 40.1265 41.0605 40.226 40.8261 40.2707C40.6207 40.3363 40.4022 40.3432 40.1934 40.2907C39.9846 40.2382 39.7933 40.1283 39.6395 39.9725C39.4383 40.0709 39.2137 40.106 38.9935 40.0733C38.7732 40.0406 38.5671 39.9416 38.4004 39.7885C38.2712 39.6692 38.1037 39.4753 38.1946 39.2914L38.2377 39.2119C38.1643 39.2553 38.0994 39.3126 38.0463 39.3809C37.6982 39.0326 37.3781 38.6552 37.0895 38.2524C36.7152 38.6025 36.2927 38.8923 35.8359 39.1124C36.3144 39.7935 36.6828 40.226 36.7019 40.2459C36.721 40.2657 36.4292 40.7032 36.6062 41.3246C36.7832 41.946 37.965 42.0056 38.1229 42.0703C38.407 42.3776 38.5983 42.7648 38.6731 43.1838C38.8118 43.7107 39.2951 43.9543 39.4242 43.497C39.4533 43.0407 39.3658 42.5845 39.1707 42.1747C39.4875 42.4784 39.7773 42.8111 40.0366 43.1689C40.295 43.5218 40.5868 43.4423 40.7065 43.1689C40.5103 43.323 40.3668 43.0148 40.2711 42.8557C40.1354 42.6253 39.9749 42.4119 39.7926 42.2194C39.6969 42.1249 39.5438 41.9907 39.5199 41.8466C39.4769 41.603 39.6348 41.5234 39.8166 41.5384C39.759 41.4832 39.6983 41.4317 39.6347 41.3842C40.0174 41.4172 40.3828 41.5639 40.6873 41.8068C41.1083 42.1846 41.716 42.801 41.9791 42.3983C41.9973 42.3689 42.0118 42.3372 42.0222 42.3039L41.9552 42.3387C41.7638 42.3934 41.5294 42.0355 41.4385 41.9112C41.2383 41.58 40.9287 41.336 40.5677 41.2252C40.3932 41.1834 40.2298 41.1019 40.0893 40.9866C39.8883 40.8126 40.0366 40.5889 40.3668 40.6435L39.941 40.4795C40.3115 40.5855 40.7047 40.5681 41.0653 40.4298C41.305 40.4936 41.5233 40.6243 41.6968 40.8076C42.0317 41.1009 42.5197 41.3594 42.7015 40.8921C42.7015 40.8921 42.7015 40.8673 42.7015 40.8523C42.6828 40.8851 42.6565 40.9124 42.625 40.9319V40.9319Z" fill="#D9AE91"/>
</g>
</g>
<g style="mix-blend-mode:multiply" opacity="0.6">
<g style="mix-blend-mode:multiply" opacity="0.6">
<path d="M40.1946 43.2582C39.9219 42.94 39.7401 42.5523 39.453 42.264C39.3334 42.1397 39.1181 41.9309 39.2856 41.7669C39.453 41.6028 39.5535 41.5879 39.654 41.4189C39.7419 41.268 39.7943 41.0977 39.8071 40.9218C39.6867 41.17 39.5103 41.3843 39.2928 41.5462C39.0753 41.7081 38.8233 41.8128 38.5583 41.8514C38.0321 41.9558 38.5584 41.8215 38.9124 41.5481C39.2238 41.2995 39.4284 40.9333 39.4817 40.5291C39.4297 40.6407 39.3551 40.7393 39.2629 40.8182C39.1708 40.8971 39.0633 40.9543 38.9478 40.9859C38.8324 41.0176 38.7117 41.0229 38.5941 41.0015C38.4765 40.9801 38.3648 40.9326 38.2665 40.8621C37.9699 40.6732 37.6206 40.4247 37.6637 40.017C37.6748 39.8923 37.7108 39.7714 37.7692 39.6618C37.8277 39.5523 37.9074 39.4566 38.0034 39.3807C37.6584 39.0434 37.3386 38.6795 37.0465 38.2921C36.6723 38.6421 36.2498 38.9319 35.793 39.152C36.2714 39.8331 36.6398 40.2656 36.6589 40.2855C36.6781 40.3053 36.3862 40.7428 36.5633 41.3642C36.7403 41.9856 37.922 42.0452 38.0799 42.1099C38.364 42.4173 38.5553 42.8043 38.6301 43.2234C38.7545 43.7205 39.166 43.9442 39.3382 43.6459C39.2799 43.6703 39.2147 43.6703 39.1564 43.6459C39.0882 43.6078 39.03 43.5531 38.9866 43.4864C38.9433 43.4197 38.9162 43.3431 38.9076 43.2632C38.8468 43.0165 38.7517 42.7804 38.6253 42.5622C38.5392 42.4032 38.3383 41.9856 38.7019 42.0353C39.0655 42.085 39.1803 42.3435 39.276 42.6169C39.1995 42.3932 39.1277 42.2242 39.1277 42.2242C39.4445 42.5279 39.7343 42.8607 39.9937 43.2184C40.0292 43.2798 40.0772 43.3324 40.1341 43.3727C40.1911 43.4131 40.2558 43.4401 40.3238 43.4521C40.2664 43.3991 40.2221 43.3326 40.1946 43.2582V43.2582Z" fill="#D9AE91"/>
</g>
</g>
<path d="M20.1388 38.3766C20.1388 38.3766 24.1625 40.9566 29.2292 38.2275C30.0731 40.1201 30.65 42.1292 30.942 44.1928C31.5018 47.8267 31.8989 56.7598 32.5878 59.5237C32.2413 59.7497 31.8483 59.8873 31.4409 59.9254C31.0334 59.9634 30.6231 59.9007 30.2435 59.7424C30.2435 59.7424 25.4208 44.3718 24.5022 43.5416C24.5022 43.5416 22.8898 49.5318 23.7319 60.0705C22.7305 60.3113 21.6797 60.1812 20.7608 59.7027C20.7608 59.7027 17.3782 44.0437 20.1388 38.3766Z" fill="#17293B"/>
<g style="mix-blend-mode:multiply" opacity="0.3">
<path d="M31.966 59.3995C31.6694 59.3995 31.5594 58.8129 31.4876 58.614C31.0704 57.1573 30.7507 55.6724 30.5307 54.1699C30.4063 53.449 30.2724 52.7382 30.0953 52.0273C29.9184 51.4677 29.8327 50.8813 29.8418 50.2924C29.836 50.0927 29.8857 49.8956 29.985 49.7245C30.0843 49.5535 30.2289 49.4158 30.4015 49.328C30.7304 49.19 31.0804 49.1143 31.435 49.1043C31.2627 47.1606 31.0953 45.3859 30.9087 44.1879C30.6167 42.1242 30.0398 40.1151 29.1959 38.2225C24.1292 40.9517 20.1055 38.3717 20.1055 38.3717C18.8425 40.9616 18.8664 45.6444 19.2683 49.9643C19.9094 50.0737 20.5648 50.1084 20.7036 50.9585C20.7578 51.4419 20.769 51.9295 20.7371 52.4151C20.7212 53.0608 20.7484 53.7069 20.8184 54.3488C20.9667 55.87 21.2968 57.3315 21.5074 58.8576C21.5074 59.0316 21.5983 59.3547 21.4212 59.4641C21.2442 59.5734 20.9428 59.4889 20.6844 59.3845C20.7275 59.5884 20.7562 59.7027 20.7562 59.7027C21.6751 60.1812 22.7259 60.3113 23.7273 60.0706C22.8853 49.5318 24.4976 43.5416 24.4976 43.5416C25.4066 44.3718 30.2389 59.7425 30.2389 59.7425C30.6186 59.9007 31.0289 59.9634 31.4363 59.9254C31.8438 59.8874 32.2368 59.7497 32.5832 59.5237C32.5545 59.4144 32.5306 59.305 32.5067 59.1807C32.3499 59.3051 32.1625 59.3809 31.966 59.3995V59.3995Z" fill="#17293B"/>
</g>
<g style="mix-blend-mode:multiply" opacity="0.6">
<path d="M23.4041 40.723C23.4472 40.5341 23.5428 40.4247 23.7151 40.4645C24.0602 40.5715 24.4172 40.6316 24.7772 40.6435C25.1265 40.6435 25.4614 40.5788 25.8059 40.5391C25.8565 40.5276 25.9095 40.5347 25.9557 40.5592C26.0019 40.5837 26.0386 40.624 26.0594 40.6733C26.3322 41.3295 26.2412 42.1149 26.2987 42.8109C26.3704 43.7106 26.4374 44.6154 26.514 45.5102C26.5762 46.2708 26.6192 47.0313 26.6958 47.7869C26.7819 48.6668 27.1216 49.4871 28.1311 49.4025C29.2596 49.2711 30.3674 48.9904 31.4275 48.5674C31.2792 46.8424 31.1213 45.2765 30.9491 44.1879C30.6571 42.1242 30.0802 40.1151 29.2363 38.2225C24.1696 40.9517 20.1459 38.3717 20.1459 38.3717C18.9546 40.8175 18.9068 45.1324 19.2417 49.2385C19.5908 49.4064 19.9544 49.5396 20.3277 49.6362C20.8719 49.7611 21.4232 49.8491 21.9783 49.8997C22.5764 49.9444 23.3036 49.8649 23.5141 49.1639C23.5892 48.8891 23.6263 48.6045 23.6242 48.3188C23.5572 47.1109 23.5285 45.888 23.4663 44.675C23.4137 43.8896 23.2797 41.235 23.4041 40.723Z" fill="#17293B"/>
</g>
<g style="mix-blend-mode:multiply" opacity="0.5">
<path d="M20.961 51.4158C20.8701 48.637 21.0137 45.8382 21.1811 43.0644C21.1811 43.0395 21.1524 43.0345 21.1524 43.0644C20.8989 45.7536 20.7887 48.4554 20.8223 51.1574C20.8223 53.8964 21.339 56.6504 21.7792 59.3448H21.8175C21.583 56.6802 21.028 54.0804 20.961 51.4158Z" fill="#021626"/>
</g>
<g style="mix-blend-mode:multiply" opacity="0.5">
<path d="M30.764 56.0638C30.4961 54.6768 30.2186 53.2948 29.965 51.9029C29.7115 50.511 29.4148 49.1639 29.123 47.8565C28.8311 46.5491 28.5584 45.3162 28.1661 43.9939C28.1661 43.9641 28.1087 43.9939 28.1183 43.9939C28.4101 45.2864 28.7067 46.4795 28.9794 47.7968C29.2522 49.1141 29.5823 50.5359 29.8215 51.888C30.0607 53.2402 30.3478 54.5674 30.6205 55.9047C30.7449 56.5261 30.8502 57.1375 30.9793 57.7539C31.1085 58.3703 31.3717 59.797 31.3621 59.7424C31.1372 57.8086 30.8932 56.71 30.764 56.0638Z" fill="#021626"/>
</g>
<path d="M23.4571 25.407L22.3949 26.605C22.3949 26.605 21.8351 32.0732 24.2848 31.9838C26.7344 31.8943 27.1171 28.5636 27.1171 26.605L26.3133 25.2976L23.4571 25.407Z" fill="#FDC088"/>
<g style="mix-blend-mode:multiply">
<g style="mix-blend-mode:multiply">
<path d="M23.4571 25.407L22.3949 26.605C22.3949 26.605 21.8351 32.0732 24.2848 31.9838C26.7344 31.8943 27.1171 28.5636 27.1171 26.605L26.3133 25.2976L23.4571 25.407Z" fill="#D9AE91"/>
</g>
</g>
<path d="M23.0747 25.9837C23.0747 25.9837 23.7015 27.9125 24.5435 27.7286C25.3856 27.5446 26.7444 26.0583 26.7444 26.0583C26.7444 26.0583 27.5146 27.3309 27.5816 30.5323C27.6486 33.7337 28.0601 38.486 28.0601 38.486C28.0601 38.486 24.4957 41.7918 20.8835 38.4512C20.9074 38.4512 20.5581 27.4054 23.0747 25.9837Z" fill="#60BFBB"/>
<g style="mix-blend-mode:multiply" opacity="0.5">
<path d="M23.294 38.8638C23.2271 38.327 23.2175 37.7802 23.1983 37.2383C23.1601 36.0601 23.1218 34.882 23.1457 33.7038C23.1696 32.5257 23.2318 31.3227 23.251 30.1296C23.251 29.1801 23.3754 27.9721 23.3945 27.2712C23.3945 27.2215 23.4663 27.1966 23.5093 27.2215C23.7677 27.3806 23.9878 27.8081 24.2892 27.8578C24.8107 27.9523 25.4135 27.4054 25.7915 27.0923C25.8298 27.0624 26.0116 26.9481 26.0116 27.0028C26.0116 27.4154 26.0403 27.9672 26.0116 28.3897C25.9542 29.0061 25.9589 29.6176 25.9542 30.234C25.9542 31.6508 25.8346 33.0526 25.8154 34.4694C25.8059 35.9138 25.8729 37.3576 26.0164 38.7942C26.0164 39.0726 26.0833 39.346 26.1264 39.6244C26.8384 39.3684 27.501 38.983 28.0832 38.486C28.0832 38.486 27.6622 33.7237 27.6048 30.5323C27.5474 27.3408 26.7675 26.0583 26.7675 26.0583C26.7675 26.0583 25.404 27.5496 24.5667 27.7286C23.7294 27.9075 23.0979 25.9837 23.0979 25.9837C20.5813 27.4054 20.9305 38.4512 20.9305 38.4512C21.6403 39.1431 22.5162 39.6239 23.4663 39.8432C23.3993 39.5151 23.3515 39.1919 23.294 38.8638Z" fill="#5FA2BB"/>
</g>
<path d="M20.9075 37.8645C20.9075 37.8645 24.4384 40.6633 28.9501 37.5016L29.1606 39.1371C29.1606 39.1371 24.0508 41.8613 20.7305 38.8488L20.9075 37.8645Z" fill="#4D2A11"/>
<g style="mix-blend-mode:multiply" opacity="0.4">
<path d="M28.9501 37.5016C24.4384 40.6633 20.9075 37.8645 20.9075 37.8645L20.7305 38.8587C24.0508 41.8712 29.1606 39.1471 29.1606 39.1471L28.9501 37.5016ZM26.0124 39.9872C25.9072 40.0866 25.7015 40.0717 25.5771 40.0816C25.2996 40.0816 25.0269 40.1264 24.7541 40.1363C24.3078 40.1536 23.861 40.1136 23.4241 40.017C23.1657 39.9524 22.9983 39.8778 22.9456 39.5845C22.9114 39.4934 22.9018 39.3943 22.9178 39.298C22.9338 39.2016 22.9749 39.1116 23.0365 39.0377C23.0411 39.0174 23.0532 38.9997 23.0702 38.9885C23.0872 38.9774 23.1078 38.9736 23.1275 38.9781C23.6877 39.1186 24.2667 39.1606 24.8403 39.1023C25.1551 39.0336 25.4755 38.9954 25.7971 38.988C26.2469 39.0129 26.2756 39.7337 26.0124 39.9772V39.9872Z" fill="#4D2A11"/>
</g>
<path d="M15.4148 24.4624C15.4148 24.4624 16.1133 26.8237 16.8166 27.6936C17.7934 27.4955 18.7534 27.2162 19.6872 26.8585C21.1895 26.2769 22.3426 25.73 22.8688 25.8643C22.8688 25.8643 23.1846 25.7897 23.0794 26.2967C22.9741 26.8038 22.4861 35.2447 22.6248 37.959C22.7636 40.6732 23.2899 46.206 23.3951 47.2997C23.5004 48.3933 23.8736 50.168 21.2613 49.7852C18.649 49.4025 17.8357 48.4033 17.7974 48.0404C17.7591 47.6775 17.6251 43.2084 17.6586 40.0866C17.6921 36.9647 18.85 31.1883 18.9504 30.716C18.0272 31.1322 17.0653 31.4487 16.0798 31.6606C15.209 31.7302 13.8455 32.6548 12.4102 25.6952L15.4148 24.4624Z" fill="#F3F3F3"/>
<path d="M15.4148 24.4624C15.4148 24.4624 16.1133 26.8237 16.8166 27.6936C17.7934 27.4955 18.7534 27.2162 19.6872 26.8585C21.1895 26.2769 22.3426 25.73 22.8688 25.8643C22.8688 25.8643 23.1846 25.7897 23.0794 26.2967C22.9741 26.8038 22.4861 35.2447 22.6248 37.959C22.7636 40.6732 23.2899 46.206 23.3951 47.2997C23.5004 48.3933 23.8736 50.168 21.2613 49.7852C18.649 49.4025 17.8357 48.4033 17.7974 48.0404C17.7591 47.6775 17.6251 43.2084 17.6586 40.0866C17.6921 36.9647 18.85 31.1883 18.9504 30.716C18.0272 31.1322 17.0653 31.4487 16.0798 31.6606C15.209 31.7302 13.8455 32.6548 12.4102 25.6952L15.4148 24.4624Z" fill="#F3F3F3"/>
<g style="mix-blend-mode:multiply" opacity="0.5">
<path d="M15.3867 24.4874C15.5207 25.5164 16.0852 26.446 16.4871 27.3806C16.5635 27.5343 16.6033 27.7048 16.6033 27.8777C16.6033 28.0507 16.5635 28.2211 16.4871 28.3748C16.4723 28.4088 16.4595 28.4436 16.4489 28.4792C16.5074 28.347 16.5745 28.2191 16.6498 28.0965C16.6785 28.0418 16.779 28.0418 16.7933 28.0965C16.8364 28.4345 16.8507 28.7775 16.8747 29.1155C16.8604 28.8322 16.9047 28.5489 17.0046 28.2849C17.1044 28.0208 17.2575 27.7819 17.4536 27.5844L17.5349 27.5248C17.0947 27.6341 16.822 27.6839 16.822 27.6839C16.1187 26.8139 15.4202 24.4526 15.4202 24.4526H15.3915L15.3867 24.4874Z" fill="#91959C"/>
</g>
<g style="mix-blend-mode:multiply" opacity="0.5">
<path d="M22.6223 37.9741C22.4836 35.2499 22.9716 26.8239 23.0768 26.3119C23.1821 25.7998 22.8759 25.8595 22.8759 25.8595C22.7403 25.8285 22.5999 25.8285 22.4644 25.8595C22.1958 26.0017 21.9397 26.1681 21.6989 26.3566C20.3928 27.4403 20.0148 27.2315 20.431 28.0567C20.6176 28.4445 20.9669 29.051 21.1631 29.4238C21.2152 29.512 21.2351 29.6166 21.2193 29.7188C21.2035 29.8209 21.153 29.9138 21.0769 29.9805C20.7612 30.3882 19.8473 31.1637 19.589 31.616C19.4694 31.8348 19.6608 31.8745 19.7995 32.1131C20.3566 33.149 20.8581 34.2162 21.3018 35.3096C21.7391 36.4928 22.0815 37.7116 22.3257 38.9534C22.5481 40.0158 22.692 41.0944 22.7563 42.1796C22.8089 42.8855 22.895 43.5865 22.9237 44.2973C22.962 45.3313 23.0051 47.3397 21.718 47.6528C20.8889 47.7765 20.0432 47.6361 19.2924 47.2502C18.9972 47.1677 18.7279 47.0064 18.5114 46.7822C18.2948 46.5581 18.1385 46.279 18.058 45.9726C17.9186 45.0772 17.8625 44.1699 17.8905 43.2634C17.8905 41.772 17.9479 40.395 17.9814 39.197C18.058 36.6269 18.4599 35.2201 18.8761 32.7097C19.05 31.4777 19.3139 30.2612 19.6655 29.0708C19.9305 28.2733 20.2339 27.4902 20.5746 26.7245C20.3736 26.9879 19.5842 28.519 19.3785 28.9515C19.1728 29.384 19.0914 29.9457 18.7517 30.08C18.1388 30.3524 17.4961 30.546 16.838 30.6566C16.2878 30.7411 15.8093 30.9499 15.3022 30.6566C14.795 30.3633 14.5319 29.6326 14.2783 29.0659C13.8728 28.1777 13.5523 27.2503 13.3214 26.297C13.1923 25.6855 13.0104 25.5016 13.6037 25.2431C13.7117 25.1939 13.8157 25.1357 13.9147 25.0691L12.3789 25.7153C13.8142 32.6749 15.1778 31.7453 16.0485 31.6807C17.034 31.4688 17.996 31.1523 18.9192 30.7362C18.8187 31.2084 17.6657 36.9848 17.6274 40.1067C17.5891 43.2286 17.7326 47.7026 17.7661 48.0605C17.7996 48.4184 18.6082 49.4424 21.23 49.8053C23.8519 50.1682 23.4691 48.3886 23.3639 47.3198C23.2586 46.251 22.7658 40.6983 22.6223 37.9741Z" fill="#91959C"/>
</g>
<path d="M26.3279 25.6953C26.3279 25.6953 26.0791 32.5952 26.2179 37.1288C26.3566 41.6625 26.9547 47.1207 27.0934 47.9907C27.2322 48.8606 27.6197 49.0843 28.6675 49.0446C29.9659 48.983 31.2517 48.7525 32.495 48.3586C33.2318 48.0305 33.7868 47.9907 33.1217 45.7785C32.4567 43.5664 31.4807 40.7279 31.2367 39.9275C30.9927 39.1272 31.0262 38.9333 30.9592 37.6359C30.8922 36.3384 30.7104 32.6996 30.7104 32.6996C30.7104 32.6996 35.2939 40.1065 35.6431 40.4346C36.7274 39.8231 37.7459 39.0932 38.6812 38.2573C38.6812 38.2573 34.9111 33.0227 34.2078 31.934C33.5045 30.8453 31.4472 27.5395 30.3803 26.774C29.3134 26.0084 26.7441 25.223 26.3279 25.6953Z" fill="#F3F3F3"/>
<g style="mix-blend-mode:multiply" opacity="0.5">
<path d="M36.2699 39.7785C36.2451 39.7876 36.2181 39.7876 36.1933 39.7785C35.777 39.3339 35.4081 38.8439 35.0929 38.317C34.6942 37.7172 34.3035 37.1107 33.9207 36.4976C33.2031 35.3542 32.4328 34.2208 31.7869 33.0178C31.2654 32.0634 30.7583 32.1181 30.1889 27.7087C30.5812 30.8206 30.5717 34.3352 30.6673 35.2548C30.7417 36.164 30.7705 37.0766 30.7535 37.9889C30.7535 38.8638 29.1985 36.3485 28.9354 35.911C29.2155 36.5924 29.5483 37.2491 29.9306 37.8746C30.3948 38.6339 30.7873 39.4379 31.1027 40.2756C31.4041 41.1867 31.6502 42.1164 31.8395 43.0595C32.0357 43.9294 32.2797 44.7795 32.4902 45.6444C32.6337 46.241 32.5668 46.6735 31.9448 46.8673C31.4188 47.0193 30.8808 47.1224 30.3372 47.1755C29.9018 47.2302 29.476 47.3446 29.0407 47.3744C28.7212 47.4295 28.3932 47.3667 28.1136 47.1969C27.834 47.0271 27.6203 46.761 27.5096 46.4448C27.1365 45.4506 26.7776 41.1009 26.7011 39.9824C26.6082 38.9118 26.6695 37.8328 26.8829 36.781C27.1727 35.6793 27.5854 34.6166 28.1125 33.6144C28.4965 32.8239 28.9214 32.0556 29.3851 31.3127C29.0882 30.9202 28.7686 30.5467 28.4283 30.1942C28.4181 30.1798 28.4127 30.1624 28.4127 30.1445C28.4127 30.1267 28.4181 30.1093 28.4283 30.0948C28.8265 29.4659 29.3324 28.9183 29.921 28.4792C29.1746 27.3985 28.3001 26.4197 27.3183 25.5661C26.8398 25.4916 26.4619 25.5114 26.3279 25.6656C26.3279 25.6656 26.0791 32.5655 26.2179 37.0991C26.3566 41.6328 26.9547 47.091 27.0934 47.961C27.2322 48.8309 27.6197 49.0546 28.6675 49.0148C29.9659 48.9532 31.2517 48.7228 32.495 48.3288C33.2318 48.0008 33.7868 47.961 33.1217 45.7488C32.4567 43.5367 31.4807 40.6982 31.2367 39.8978C30.9927 39.0975 31.0262 38.9036 30.9592 37.6062C30.8922 36.3087 30.7104 32.6699 30.7104 32.6699C30.7104 32.6699 35.2939 40.0768 35.6431 40.4049C36.7274 39.7934 37.7459 39.0635 38.6812 38.2276L38.6525 38.1778C37.9467 38.8415 37.142 39.3821 36.2699 39.7785V39.7785Z" fill="#91959C"/>
</g>
<path d="M23.4448 25.7897C23.4448 25.7897 22.8754 30.3333 22.6027 37.3923C22.6027 37.3923 22.0956 35.9954 21.7989 34.9067C21.3872 33.6658 20.7792 32.5049 20 31.4717C20.5346 30.8557 21.1206 30.2901 21.7511 29.7815C21.7511 29.7815 20.7177 27.8776 20.3158 27.5495C20.3301 27.5296 22.8324 25.2031 23.4448 25.7897Z" fill="#F3F3F3"/>
<path d="M26.2237 36.8854C26.2237 36.8854 27.4007 33.5249 29.147 31.2929C29.147 31.2929 28.2188 30.3285 27.7978 29.9656C27.7978 29.9656 29.0035 28.8372 29.4771 28.3301C28.7105 27.3082 27.8691 26.3493 26.9605 25.4618C26.0037 24.6614 26.1568 25.3872 26.1568 26.5853C26.1568 27.7833 25.9415 32.0734 26.2237 36.8854Z" fill="#F3F3F3"/>
<g style="mix-blend-mode:multiply" opacity="0.5">
<path d="M22.6218 27.6241C23.3825 28.0467 24.3681 28.4841 25.2532 28.2356C26.1584 27.8897 26.9998 27.3853 27.7411 26.7443C28.0808 26.4907 28.4157 26.2471 28.741 25.9638C28.2038 25.7648 27.647 25.6281 27.0808 25.5562L26.9565 25.4518C26.478 25.0342 26.2675 25.0292 26.1909 25.2927L23.4591 25.3971L23.2055 25.6854C22.9951 25.6915 22.7889 25.7477 22.6027 25.8495C21.9989 25.9483 21.4102 26.1288 20.8516 26.3863C21.413 26.8415 22.0045 27.2552 22.6218 27.6241V27.6241Z" fill="#91959C"/>
</g>
<path d="M17.8775 20.4856C17.2453 18.9492 16.7302 17.3635 16.337 15.7432C16.0486 14.5885 15.8391 13.414 15.7102 12.2286C15.7102 12.0148 15.2318 11.8906 15.2318 11.8906C15.2318 11.8906 15.4662 11.2592 15.8155 11.1648L14.9256 11.0206C15.2425 10.4609 15.7577 10.0523 16.3609 9.88223C15.7319 9.47324 15.2042 8.91643 14.8203 8.25668C14.8203 8.25668 15.7772 8.86316 16.3848 8.71899C16.9924 8.57483 17.9206 7.82419 19.5042 7.02384C21.0879 6.2235 23.3317 4.53829 27.7812 4.64766C29.4127 4.69737 31.3743 5.47286 31.8862 7.29229C32.5079 7.23816 33.1337 7.26992 33.7474 7.38674C34.776 7.58061 35.4745 11.0902 36.2448 11.5525H35.6372C35.6372 11.5525 36.2209 12.0496 36.2879 12.3728C36.0409 12.3292 35.7885 12.3292 35.5415 12.3728L35.9195 12.7108C35.9195 12.7108 35.1731 12.9494 35.0774 13.3372C34.7073 14.8114 34.4119 16.3048 34.1923 17.8112C34.1206 18.8501 30.5562 21.7334 30.2739 21.8328C29.9916 21.9322 17.8775 20.4856 17.8775 20.4856Z" fill="#30160A"/>
<g style="mix-blend-mode:screen" opacity="0.5">
<g style="mix-blend-mode:screen" opacity="0.5">
<path d="M22.0411 6.0644C21.5244 6.34279 21.0507 6.70071 20.5531 7.00395C19.8594 7.42152 17.1706 9.98661 15.7305 8.91286C16.5677 9.53424 17.716 9.51932 18.7399 9.55909C17.8919 10.016 16.9821 10.3361 16.0415 10.5086C16.7709 10.7206 17.5337 10.7797 18.2853 10.6826C17.6892 10.9075 17.0717 11.0658 16.4433 11.1548C17.12 11.4678 17.8322 11.6899 18.5628 11.816C20.2612 12.1693 21.9963 12.2929 23.7252 12.1838C25.6772 11.985 28.8923 11.2145 30.342 9.69828C29.7336 9.57961 29.1182 9.50322 28.5 9.46962C28.079 9.41493 27.0647 9.26579 27.1843 8.63943C27.3757 7.70487 28.7057 7.54579 30.4281 8.14232C29.4043 6.96914 28.878 7.29724 28.4809 6.93435C28.0024 6.48695 30.275 6.43725 30.6004 6.83493C29.8492 5.87551 30.232 5.62696 31.1889 6.33782C30.7428 5.85061 30.2052 5.46376 29.6093 5.20124C29.0135 4.93873 28.3721 4.80614 27.7249 4.81169C25.7583 4.71606 23.801 5.14744 22.0411 6.0644V6.0644Z" fill="#30160A"/>
</g>
</g>
<g style="mix-blend-mode:screen" opacity="0.5">
<g style="mix-blend-mode:screen" opacity="0.5">
<path d="M27.2707 10.449C27.0698 10.449 26.3139 10.4988 26.2469 10.1906C26.1895 9.96685 26.4382 9.77794 26.5579 9.63875C26.754 9.40511 26.7923 9.14165 26.4048 9.08696C26.2006 9.08794 25.9969 9.06627 25.7971 9.02234C25.7348 8.99948 25.679 8.96061 25.635 8.90936C25.591 8.85811 25.5601 8.79612 25.5453 8.72916C25.5305 8.66221 25.5323 8.59247 25.5504 8.52639C25.5685 8.46032 25.6023 8.40007 25.6488 8.35123C26.4574 7.40175 27.6822 7.42163 28.8017 7.32221C28.3709 7.18012 27.9477 7.01418 27.5339 6.8251C27.3808 6.73065 27.199 6.53677 27.4047 6.37273C27.5598 6.27353 27.7335 6.20983 27.9142 6.18583C28.0948 6.16182 28.2783 6.17808 28.4525 6.23354C28.3768 6.1872 28.3127 6.12301 28.2653 6.04615C28.2179 5.96929 28.1886 5.88192 28.1798 5.79112C28.1798 5.19955 29.2036 5.32383 29.5098 5.39839C29.9121 5.4839 30.2994 5.63313 30.6581 5.84083C29.8026 5.20309 28.7782 4.85582 27.7253 4.84661C25.7582 4.75252 23.8009 5.18562 22.0414 6.1043C21.8835 6.18881 21.7304 6.27828 21.563 6.37273C22.094 6.12914 22.6107 5.87563 23.1514 5.65193C23.8433 5.39486 24.5633 5.22788 25.2948 5.15481C25.9489 5.0469 26.6171 5.07393 27.2612 5.23435C27.4573 5.30395 27.5913 5.49284 27.4191 5.66186C27.1038 5.87134 26.7442 5.99762 26.3713 6.02972C25.9837 6.11423 25.601 6.19377 25.2182 6.29816C24.5819 6.47215 24.3044 7.05377 25.1895 6.89966C25.6729 6.73532 26.1941 6.73532 26.6775 6.89966C26.6894 6.90654 26.6994 6.91663 26.7064 6.92887C26.7133 6.94111 26.717 6.95506 26.717 6.96927C26.717 6.98347 26.7133 6.99743 26.7064 7.00967C26.6994 7.02191 26.6894 7.03199 26.6775 7.03887C25.2804 7.87402 23.4384 7.70997 22.2375 8.94777C22.161 9.03228 21.917 9.27089 22.1514 9.33552C22.3483 9.37634 22.5501 9.38473 22.7495 9.36037C22.9313 9.36037 23.1131 9.31564 23.2949 9.29078C23.7111 9.24604 24.357 9.11679 24.7302 9.36534C25.1034 9.6139 24.8498 9.98176 24.6058 10.1756C24.3329 10.3353 24.0764 10.5235 23.8403 10.7374C23.6107 11.0108 24.4814 11.0058 24.625 11.0356C24.7685 11.0655 25.2661 10.971 25.1752 11.1549C24.9647 11.5725 22.85 11.8758 22.1514 11.8807C20.2344 11.8608 18.3246 11.6325 16.4532 11.1997H16.4102C17.0868 11.5126 17.799 11.7348 18.5296 11.8608C20.228 12.2141 21.9632 12.3378 23.692 12.2287C25.5723 12.0398 28.6151 11.319 30.1318 9.93204C29.221 10.3014 28.2481 10.4772 27.2707 10.449Z" fill="#30160A"/>
</g>
</g>
<g style="mix-blend-mode:screen" opacity="0.5">
<g style="mix-blend-mode:screen" opacity="0.5">
<path d="M33.7342 8.12733C33.7474 8.14127 33.7547 8.16001 33.7547 8.17953C33.7547 8.19905 33.7474 8.21779 33.7342 8.23173C33.5071 8.31509 33.2667 8.35222 33.0261 8.3411C32.8683 8.3411 32.5812 8.3411 32.4616 8.46538C32.342 8.58965 32.586 8.69902 32.6434 8.74376C32.7001 8.77591 32.7484 8.82213 32.7838 8.87832C32.8192 8.93451 32.8407 8.99891 32.8464 9.06581C32.8521 9.13272 32.8417 9.20004 32.8163 9.2618C32.7909 9.32356 32.7513 9.37784 32.7008 9.41982C32.6051 9.52918 31.9449 9.54908 32.1027 9.73798C32.2231 9.93599 32.2675 10.1737 32.2271 10.4041C32.1937 10.8266 31.9114 10.8117 31.6626 10.6427C31.5813 11.9054 32.2941 12.9543 33.1601 13.7845C33.0739 13.623 32.9956 13.4571 32.9257 13.2873C32.7442 12.9596 32.683 12.5746 32.7534 12.2036C32.9352 11.6767 33.6768 12.3478 34.0835 12.7008C33.806 12.1191 33.3898 11.5524 33.5189 10.8863C33.5219 10.8747 33.5274 10.864 33.5349 10.8549C33.5424 10.8458 33.5518 10.8386 33.5624 10.8338C33.573 10.829 33.5845 10.8268 33.596 10.8273C33.6075 10.8278 33.6188 10.8309 33.629 10.8366C33.8012 10.941 34.6385 11.806 34.5619 11.2144C34.5237 10.8465 34.3179 10.4041 34.4375 10.0362C34.4407 10.0253 34.446 10.0152 34.4532 10.0066C34.4604 9.99804 34.4693 9.99116 34.4793 9.98644C34.4892 9.98173 34.5001 9.9793 34.511 9.97931C34.522 9.97933 34.5328 9.98179 34.5428 9.98653C34.9877 10.1953 35.093 10.6924 35.4279 11.0156C35.5627 11.1427 35.7067 11.2591 35.8585 11.3635C35.2126 10.429 34.5811 7.74953 33.7055 7.58548C33.4716 7.53876 33.2351 7.50722 32.9974 7.49103C33.2796 7.65276 33.5296 7.86868 33.7342 8.12733V8.12733Z" fill="#30160A"/>
</g>
</g>
<path d="M17.9718 18.2586C17.9718 18.2586 17.3163 17.5576 16.7613 17.8261C16.2063 18.0945 16.1872 19.6057 16.8761 20.3116C17.0385 20.4194 17.2256 20.4804 17.4181 20.4882C17.6107 20.4961 17.8017 20.4506 17.9718 20.3564V18.2586Z" fill="#FDC088"/>
<g style="mix-blend-mode:multiply">
<path d="M17.4385 17.8708C17.4799 17.9501 17.509 18.0356 17.5246 18.1243C17.5246 18.2536 17.5629 18.5121 17.4576 18.6214C17.3524 18.7308 17.2041 18.6662 17.0701 18.6214C16.9923 18.5897 16.9096 18.5729 16.8261 18.5717C16.6443 18.5717 16.6634 18.7755 16.6539 18.8899C16.6554 18.9701 16.6281 19.0481 16.5773 19.1086C16.5773 19.1434 16.4912 19.1683 16.4577 19.1086C16.4081 19.0435 16.3708 18.9693 16.3477 18.8899C16.3501 19.4117 16.5375 19.9143 16.8739 20.3017C17.0363 20.4094 17.2234 20.4704 17.4159 20.4782C17.6085 20.4861 17.7995 20.4406 17.9696 20.3464V18.2387C17.812 18.0881 17.6329 17.964 17.4385 17.8708V17.8708Z" fill="#D9AE91"/>
</g>
<path d="M32.7266 18.4276L32.8653 20.3664C32.8653 20.3664 33.0997 20.5354 33.8461 20.0532C34.5925 19.571 34.7312 18.5966 34.7312 17.9454C34.7312 17.2942 33.5878 16.638 32.9371 18.2835L32.7266 18.4276Z" fill="#FDC088"/>
<path d="M34.1762 18.3431C33.5494 18.2338 33.2959 19.0092 33.4155 19.5312C33.4155 19.5404 33.419 19.5493 33.4253 19.5558C33.4316 19.5623 33.4401 19.566 33.449 19.566C33.4578 19.566 33.4664 19.5623 33.4726 19.5558C33.4789 19.5493 33.4825 19.5404 33.4825 19.5312C33.5255 19.0341 33.5638 18.4276 34.1762 18.3779V18.3431Z" fill="#A5693C"/>
<g style="mix-blend-mode:multiply">
<path d="M34.6872 18.3082C34.6442 18.358 34.5772 18.3082 34.558 18.2734C34.3619 17.7763 33.8882 17.9106 33.6012 18.2138C33.5294 18.2884 33.338 18.4822 33.228 18.358C33.1179 18.2337 33.1562 17.9702 33.228 17.7366C33.1119 17.9065 33.0155 18.09 32.9409 18.2834L32.7304 18.4275L32.8692 20.3663C32.8692 20.3663 33.1036 20.5353 33.85 20.0531C34.1213 19.8453 34.3419 19.5742 34.4939 19.2616C34.646 18.9491 34.7253 18.6038 34.7255 18.2536L34.6872 18.3082Z" fill="#D9AE91"/>
</g>
<path d="M17.5485 12.1342C21.9724 13.3466 26.6778 12.702 30.6481 10.3396C30.6481 10.3396 30.4616 11.7464 33.2604 14.6545C33.2604 14.6545 33.0738 17.5577 32.9351 18.2834C32.976 18.5448 33.0303 18.8036 33.0978 19.0589C33.1887 19.3771 33.6575 21.7483 30.5094 23.7119C27.3613 25.6755 26.4044 26.2273 24.9834 26.2273C23.5625 26.2273 20.7444 25.0889 19.089 23.9753C17.4336 22.8618 17.4336 21.7483 17.6537 20.4956C17.8738 19.2429 17.7685 18.7805 17.515 17.3737C17.2614 15.9669 16.649 14.7341 16.8356 13.7895C16.9585 13.1918 17.2014 12.6277 17.5485 12.1342V12.1342Z" fill="#FDC088"/>
<path d="M24.4168 21.2661C23.9312 21.1097 23.5166 20.776 23.2494 20.3266C23.0772 19.9488 23.4312 19.7649 23.6943 19.6306C23.8663 19.542 24.013 19.4084 24.1202 19.2429L24.0867 19.2131C23.7183 19.6058 22.8858 19.576 23.0532 20.3117C23.1824 20.9082 23.8762 21.2512 24.4024 21.3059L24.4168 21.2661Z" fill="#A5693C"/>
<path d="M21.7505 22.1361C21.7505 22.1361 21.5734 22.3299 21.6069 22.4343C21.6404 22.5387 22.7743 22.827 24.6402 22.2454C26.0543 21.858 27.4077 21.262 28.6591 20.4757C28.6591 20.4757 27.7931 21.5296 24.602 22.3796C22.9274 22.8221 22.0088 22.8072 21.6069 22.6928C21.205 22.5785 21.2959 22.4045 21.7505 22.1361Z" fill="#A5693C"/>
<g style="mix-blend-mode:multiply">
<path d="M20.9608 14.3463C20.8564 14.289 20.741 14.2565 20.623 14.2511C20.505 14.2457 20.3873 14.2676 20.2784 14.3151C20.1695 14.3627 20.0721 14.4347 19.9932 14.5261C19.9143 14.6174 19.8559 14.7258 19.8222 14.8434C19.7519 15.1694 19.7277 15.5044 19.7504 15.8376C19.7667 15.937 19.8118 16.0289 19.8796 16.1011C20.0183 16.2154 20.2719 15.7482 20.358 15.6736C20.4579 15.562 20.5783 15.4724 20.7121 15.4101C21.1618 15.1914 21.6259 15.5593 21.9656 15.9072C21.8429 15.2692 21.4816 14.7078 20.9608 14.3463Z" fill="#D9AE91"/>
</g>
<g style="mix-blend-mode:multiply">
<path d="M26.8107 13.73C26.475 14.155 26.2685 14.6741 26.2174 15.2213C26.1791 15.5196 26.3131 15.6836 26.5666 15.2462C26.6403 15.0521 26.7609 14.881 26.9168 14.7496C27.0727 14.6181 27.2586 14.5306 27.4565 14.4955C28.0163 14.4955 28.1551 14.7888 28.4852 15.0921C28.6096 15.2014 28.9971 15.3903 29.0737 15.0175C29.1044 14.9088 29.1044 14.7932 29.0737 14.6844C28.9995 14.5019 28.896 14.3337 28.7675 14.1873C28.2364 13.5908 27.5092 13.0688 26.8107 13.73Z" fill="#D9AE91"/>
</g>
<g style="mix-blend-mode:multiply">
<path d="M25.1969 20.4408C24.6324 20.3861 23.9913 20.5352 23.4554 20.3016C22.9196 20.068 23.4554 19.6703 23.8094 19.3969C23.2736 19.6007 22.599 19.9785 22.4937 20.5452C22.3885 21.1119 23.197 21.43 23.6085 21.5692C23.8645 21.6796 24.1446 21.7153 24.4186 21.6723C24.6926 21.6294 24.9502 21.5095 25.1634 21.3256C25.2926 21.2063 25.7184 20.8633 25.6419 20.6396C25.5653 20.4159 25.3309 20.4557 25.1969 20.4408Z" fill="#D9AE91"/>
</g>
<g style="mix-blend-mode:multiply" opacity="0.6">
<path d="M32.9227 18.2834C33.0614 17.5577 33.248 14.6545 33.248 14.6545C30.4492 11.7464 30.6358 10.3396 30.6358 10.3396C26.6654 12.702 21.96 13.3466 17.5361 12.1342C17.4038 12.3172 17.2869 12.5118 17.1868 12.7158C17.2134 12.6899 17.2422 12.6666 17.2729 12.6462C17.4718 12.5439 17.6891 12.4862 17.9108 12.4768C18.1326 12.4673 18.3537 12.5064 18.5599 12.5915C19.8762 13.0098 21.2454 13.2209 22.6219 13.2179C24.0307 13.175 25.4296 12.958 26.7891 12.5716C27.4647 12.3783 28.1227 12.1238 28.7555 11.811C29.2369 11.5175 29.7336 11.252 30.2434 11.0157C30.2594 11.01 30.2768 11.0104 30.2926 11.0168C30.3084 11.0231 30.3214 11.0351 30.3296 11.0505C30.5209 11.478 30.6453 11.9353 30.808 12.3778C30.9707 12.8202 31.2482 13.3272 31.4395 13.8144C31.8012 14.7297 32.0161 15.7003 32.0759 16.6877C32.1059 17.1121 32.0454 17.5381 31.8988 17.9355C31.7224 18.346 31.6405 18.7937 31.6596 19.2429C31.7453 20.1362 31.5416 21.0337 31.0807 21.793C30.487 22.6066 29.7377 23.2836 28.8799 23.7815C28.0258 24.4332 27.0758 24.9369 26.0667 25.2728C25.1757 25.5185 24.2417 25.5441 23.3395 25.3474C22.3298 25.054 21.3639 24.6174 20.4689 24.0499C19.713 23.6025 18.6508 23.0557 18.2346 22.1957C17.8806 21.4799 18.0719 20.7441 18.2346 19.9985C18.4834 18.7408 17.9093 17.6471 17.493 16.5187C17.27 15.9461 17.0752 15.3621 16.9093 14.7689C16.8306 14.4273 16.8032 14.0752 16.828 13.7249C16.828 13.7249 16.828 13.7498 16.828 13.7647C16.6414 14.7092 17.249 15.942 17.5074 17.3489C17.7657 18.7557 17.8566 19.213 17.6461 20.4707C17.4356 21.7284 17.4356 22.8469 19.0814 23.9505C20.7273 25.0541 23.5548 26.2024 24.9758 26.2024C26.3968 26.2024 27.368 25.6456 30.5018 23.687C33.6356 21.7284 33.1811 19.3522 33.0902 19.0341C33.0219 18.787 32.966 18.5365 32.9227 18.2834V18.2834Z" fill="#D9AE91"/>
</g>
<path d="M28.6149 14.2717C28.3805 13.8044 27.8398 13.2775 27.3231 13.4614C26.7298 13.6503 26.5672 14.2518 26.4141 14.8185C26.4141 14.8185 26.4141 14.8533 26.4571 14.8185C26.4622 14.8216 26.468 14.8232 26.4739 14.8232C26.4797 14.8232 26.4855 14.8216 26.4906 14.8185C26.6844 14.4364 27.006 14.1411 27.3949 13.9883C27.9164 13.7746 28.3517 14.2369 28.6627 14.5799C28.6962 14.6147 28.7488 14.5799 28.7393 14.5252C28.7066 14.4364 28.6649 14.3514 28.6149 14.2717Z" fill="#262212"/>
<path d="M21.4864 15.1566C21.4864 14.9777 21.1467 14.6198 21.0606 14.5353C20.962 14.4223 20.8343 14.3412 20.6927 14.3016C20.551 14.2619 20.4014 14.2654 20.2616 14.3115C19.8692 14.4557 19.8358 15.0473 19.8692 15.4052C19.8669 15.4333 19.8669 15.4616 19.8692 15.4897C19.8692 15.4897 19.898 15.4897 19.9027 15.4897C19.9745 15.1268 20.0893 14.8435 20.4673 14.7639C20.6526 14.7382 20.8411 14.7681 21.0107 14.85C21.1802 14.9319 21.3237 15.0624 21.4242 15.2262C21.4398 15.2219 21.4539 15.213 21.4649 15.2007C21.4759 15.1884 21.4833 15.1731 21.4864 15.1566V15.1566Z" fill="#262212"/>
<path d="M21.7072 18.184C21.7981 18.87 21.7072 19.4566 21.4632 19.4914C21.2192 19.5262 20.9848 18.9943 20.8939 18.2984C20.803 17.6024 20.8939 17.0208 21.1379 16.986C21.3819 16.9512 21.6163 17.4881 21.7072 18.184Z" fill="#150E00"/>
<path d="M21.4972 17.498C21.5738 17.7515 21.5403 17.9951 21.4302 18.0249C21.3202 18.0547 21.1671 17.8807 21.0953 17.6222C21.0235 17.3637 21.0475 17.1251 21.1623 17.0854C21.2771 17.0456 21.4398 17.2345 21.4972 17.498Z" fill="white"/>
<path d="M28.0186 17.5428C28.0186 18.2387 27.8511 18.8054 27.6215 18.8104C27.3918 18.8154 27.2053 18.2536 27.1957 17.5577C27.1861 16.8617 27.3631 16.29 27.588 16.2851C27.8129 16.2801 28.009 16.8468 28.0186 17.5428Z" fill="#150E00"/>
<path d="M27.8894 16.8367C27.9325 17.1002 27.8894 17.3339 27.7602 17.3339C27.6311 17.3339 27.5162 17.1549 27.4732 16.8865C27.4301 16.618 27.4732 16.3893 27.6024 16.3893C27.7315 16.3893 27.8464 16.5683 27.8894 16.8367Z" fill="white"/>
<path d="M21.668 22.7077C21.7545 22.8312 21.8328 22.9608 21.9024 23.0954C22.1321 23.5329 22.5148 24.4774 22.8832 24.6613C23.6254 24.9956 24.4471 25.0909 25.2419 24.9347C26.2152 24.6958 27.139 24.2765 27.969 23.6969C28.1311 23.574 28.2632 23.4133 28.3546 23.2276C28.446 23.042 28.4942 22.8367 28.4953 22.6281C28.5883 21.94 28.6203 21.2445 28.591 20.5502C28.3326 20.7988 27.2992 21.6638 24.6008 22.3796C23.0076 22.8021 22.0938 22.8071 21.668 22.7077Z" fill="#33000C"/>
<path d="M28.6168 20.5502C28.3584 20.7988 27.325 21.6638 24.6266 22.3796C23.8472 22.6081 23.0438 22.7366 22.2344 22.7624C22.3565 23.1641 22.6018 23.5133 22.9329 23.7566C22.8562 24.0494 22.8287 24.3538 22.8516 24.6564C22.8626 24.6586 22.874 24.6586 22.8851 24.6564C23.6273 24.9906 24.4489 25.0859 25.2438 24.9298C26.217 24.6908 27.1408 24.2715 27.9709 23.692C28.133 23.569 28.265 23.4083 28.3564 23.2227C28.4478 23.037 28.496 22.8317 28.4971 22.6232C28.5978 21.9374 28.6379 21.2436 28.6168 20.5502V20.5502Z" fill="white"/>
<g style="mix-blend-mode:multiply">
<path d="M28.6168 20.5502C28.3584 20.7988 27.325 21.6638 24.6266 22.3796C23.8472 22.6081 23.0438 22.7366 22.2344 22.7624C22.3565 23.1641 22.6018 23.5133 22.9329 23.7566C22.8562 24.0494 22.8287 24.3538 22.8516 24.6564C22.8626 24.6586 22.874 24.6586 22.8851 24.6564C23.6273 24.9906 24.4489 25.0859 25.2438 24.9298C26.217 24.6908 27.1408 24.2715 27.9709 23.692C28.133 23.569 28.265 23.4083 28.3564 23.2227C28.4478 23.037 28.496 22.8317 28.4971 22.6232C28.5978 21.9374 28.6379 21.2436 28.6168 20.5502V20.5502ZM27.7269 23.4782C26.6408 24.2587 25.2533 24.9298 23.8993 24.7856C23.5644 24.7508 23.2008 24.6017 23.2439 24.2189C23.2869 23.8361 23.2439 23.851 23.5453 23.7964C24.9602 23.6118 26.3416 23.2132 27.6455 22.6132C27.7843 22.5536 28.2149 22.3349 28.3153 22.5735C28.4302 22.8767 27.9087 23.334 27.7029 23.4782H27.7269ZM28.3728 21.9869C28.3778 21.9959 28.3804 22.0062 28.3804 22.0167C28.3804 22.0272 28.3778 22.0375 28.3728 22.0465C27.893 22.4562 27.3354 22.7561 26.7365 22.9264C25.7755 23.3102 24.7672 23.5512 23.7415 23.6423C23.5336 23.6834 23.3189 23.6662 23.1195 23.5925C22.9425 23.4732 22.641 23.0407 22.8755 23.0109C23.2439 22.9612 23.7271 22.817 24.0812 22.7325C24.4352 22.648 24.8323 22.5337 25.2055 22.4094C26.0124 22.1455 26.8006 21.8232 27.5642 21.445C27.8513 21.3009 28.0426 21.2014 28.234 21.107C28.4254 21.0125 28.5019 21.7334 28.3488 21.962L28.3728 21.9869Z" fill="#CCCAC7"/>
</g>
<g style="mix-blend-mode:multiply">
<path d="M22.9336 23.7368C22.9336 23.7368 25.211 23.8611 28.1629 22.2455C28.1629 22.2654 25.3114 24.2091 22.9336 23.7368Z" fill="#93918D"/>
</g>
<g style="mix-blend-mode:screen" opacity="0.5">
<path d="M21.6746 59.6628C21.6746 59.6628 20.6794 53.2501 20.6794 50.8888C20.7098 50.6366 20.6968 50.3808 20.6411 50.1332C20.5502 49.9841 20.3302 50.0537 20.1914 50.0338C20.4351 53.2798 20.9311 56.5 21.6746 59.6628V59.6628Z" fill="#17293B"/>
</g>
<g style="mix-blend-mode:screen" opacity="0.5">
<path d="M31.5377 59.6977C31.5377 59.6977 30.4755 52.6636 30.0306 50.347C29.988 49.9956 29.9127 49.6493 29.8057 49.313C29.7148 49.154 29.667 49.313 29.5234 49.2782C29.5234 49.2782 30.5282 54.5774 31.5377 59.6977Z" fill="#17293B"/>
</g>
<g style="mix-blend-mode:multiply">
<path d="M24.9376 36.0153C24.8515 35.3889 24.4591 32.973 24.2821 32.0384C24.3045 32.0153 24.3214 31.9871 24.3314 31.956C24.3414 31.925 24.3442 31.8919 24.3395 31.8594C24.3275 31.6121 24.265 31.3703 24.1561 31.15C24.0473 30.9297 23.8945 30.7361 23.708 30.5819C23.354 30.3383 22.8851 30.3134 22.11 30.4974L21.5789 26.3564C21.5776 26.3269 21.5704 26.298 21.5578 26.2715C21.5452 26.245 21.5274 26.2215 21.5056 26.2026C21.4838 26.1836 21.4585 26.1695 21.4312 26.1612C21.4039 26.1529 21.3752 26.1506 21.347 26.1544C21.3188 26.1581 21.2917 26.168 21.2673 26.1832C21.2429 26.1985 21.2219 26.2188 21.2055 26.2429C21.189 26.2671 21.1776 26.2945 21.1719 26.3234C21.1662 26.3524 21.1663 26.3822 21.1723 26.4111L21.7129 30.6465C21.3903 30.7429 21.1057 30.944 20.9009 31.2203C20.696 31.4967 20.5816 31.8338 20.5742 32.1826C20.5768 32.2158 20.5867 32.2479 20.6034 32.2764C20.62 32.3049 20.6428 32.3289 20.6699 32.3466C20.6699 33.2514 20.7799 36.065 20.8661 36.7908C20.9665 37.6607 21.3062 37.4818 21.9569 37.5514C21.9569 37.8546 21.9904 37.8894 22.244 37.8894C22.4975 37.8894 22.6363 37.8894 22.6363 37.5017C22.6363 37.1139 22.6698 36.9151 22.4497 36.8803C22.37 36.8706 22.2892 36.8819 22.2148 36.9132C22.1404 36.9445 22.0747 36.9947 22.0239 37.0592C22.0239 37.0592 21.2584 37.0592 21.1723 36.4925C21.0766 35.6027 20.9426 33.2215 20.8996 32.3416C20.9266 32.3211 20.9485 32.2941 20.9635 32.263C20.9784 32.2319 20.9861 32.1975 20.9857 32.1627C20.9857 32.1229 20.9857 31.2679 22.0574 30.9796C22.7894 30.7857 23.2152 30.7807 23.4927 30.9796C23.6298 31.1039 23.7405 31.2565 23.8179 31.4277C23.8953 31.5988 23.9377 31.7847 23.9424 31.9738C23.9479 32.0066 23.9608 32.0376 23.9799 32.0644C23.999 32.0911 24.0238 32.1129 24.0525 32.1279C24.1529 32.8387 24.4161 34.6781 24.5309 35.6922C24.6027 36.3981 24.5309 36.5919 24.1577 36.756L23.885 36.8405C23.8426 36.7872 23.7844 36.75 23.7195 36.7348C23.6545 36.7195 23.5866 36.7269 23.5262 36.756C23.287 36.8405 23.2726 36.9996 23.3396 37.4271C23.4066 37.8546 23.6649 37.7452 23.9376 37.6906C24.2104 37.6359 24.1577 37.6011 24.0716 37.2332C24.8323 36.935 25.0381 36.7958 24.9376 36.0153Z" fill="#A1A5AB"/>
</g>
<path d="M20.678 31.6805C20.678 31.6805 20.8454 35.0609 20.9651 36.1545C21.0512 36.7212 21.8167 36.7213 21.8167 36.7213C21.8675 36.6567 21.9331 36.6065 22.0076 36.5752C22.082 36.5439 22.1628 36.5326 22.2425 36.5423C22.4626 36.5771 22.4291 36.756 22.4291 37.1637C22.4291 37.5713 22.2951 37.5514 22.0368 37.5514C21.7784 37.5514 21.764 37.5166 21.7497 37.2134C21.1038 37.1438 20.7593 37.3228 20.6589 36.4528C20.5584 35.5829 20.4531 31.7253 20.4531 31.7253L20.678 31.6805Z" fill="#D6D8DB"/>
<path d="M23.7923 31.4816C23.7923 31.4816 24.1654 34.0666 24.3233 35.3442C24.3903 36.0501 24.3233 36.244 23.9454 36.403L23.6726 36.4925C23.6316 36.4388 23.5745 36.4008 23.5104 36.3846C23.4463 36.3684 23.3788 36.3749 23.3186 36.403C23.0794 36.4925 23.0602 36.6516 23.1272 37.0791C23.1942 37.5066 23.4526 37.3973 23.7253 37.3426C23.998 37.2879 23.9454 37.2531 23.8592 36.8852C24.6295 36.6168 24.8161 36.4776 24.73 35.6972C24.6439 34.9167 24.0123 31.3773 24.0123 31.3773L23.7923 31.4816Z" fill="#D6D8DB"/>
<path d="M21.7171 30.5272C21.6669 30.5288 21.6179 30.5108 21.5798 30.4768C21.5417 30.4427 21.5173 30.3951 21.5114 30.3432L20.9612 26.078C20.9588 26.0244 20.9759 25.9719 21.009 25.9308C21.0422 25.8897 21.0891 25.863 21.1403 25.8561C21.1915 25.8493 21.2433 25.8626 21.2855 25.8936C21.3276 25.9246 21.357 25.9709 21.3678 26.0233L21.9133 30.2886C21.92 30.3446 21.9052 30.4011 21.8721 30.4458C21.8389 30.4905 21.7901 30.5198 21.7362 30.5272H21.7171Z" fill="#3F3E3D"/>
<path d="M20.572 32.0484C20.5463 32.049 20.5206 32.0444 20.4966 32.0348C20.4726 32.0251 20.4506 32.0107 20.4319 31.9922C20.4133 31.9737 20.3983 31.9516 20.3878 31.9271C20.3774 31.9027 20.3717 31.8763 20.3711 31.8495C20.3815 31.455 20.5254 31.0768 20.7773 30.7814C21.0293 30.486 21.3733 30.2922 21.749 30.2339C22.615 30.0052 23.1269 30.0152 23.5049 30.2787C23.69 30.4338 23.8416 30.6277 23.9496 30.8479C24.0576 31.0681 24.1196 31.3094 24.1316 31.5562C24.1389 31.6118 24.1249 31.6681 24.0926 31.713C24.0603 31.758 24.0122 31.7879 23.9589 31.7964C23.9055 31.8048 23.8511 31.7912 23.8073 31.7584C23.7636 31.7255 23.734 31.6761 23.725 31.6209C23.7211 31.4317 23.6791 31.2454 23.6016 31.0742C23.5242 30.9029 23.413 30.7504 23.2752 30.6266C23.0073 30.4427 22.5815 30.4477 21.8399 30.6266C20.7491 30.915 20.7682 31.77 20.7682 31.8098C20.7695 31.8656 20.7497 31.9198 20.713 31.9607C20.6764 32.0016 20.6258 32.0259 20.572 32.0285V32.0484Z" fill="#3F3E3D"/>
<g style="mix-blend-mode:multiply">
<path d="M29.7752 31.3276C29.7752 30.9746 29.6987 29.8363 29.5934 28.683C29.5416 27.8354 29.4394 26.992 29.2872 26.1576C29.2203 26.1576 28.9428 26.0135 28.871 26.0035C28.871 26.0035 29.0815 26.3267 29.0911 26.3515C29.1198 26.4509 29.0241 26.5802 28.9236 26.6995C29.162 28.2246 29.309 29.7636 29.3638 31.3077C29.0567 31.4183 28.7948 31.6339 28.6209 31.9193C28.4471 32.2046 28.3717 32.5429 28.4069 32.8786C28.4069 33.7535 28.938 34.4544 29.5743 34.4445C30.2106 34.4345 30.713 33.7286 30.7034 32.8537C30.7228 32.5302 30.6436 32.2086 30.4769 31.9347C30.3103 31.6607 30.0648 31.4482 29.7752 31.3276V31.3276Z" fill="#A1A5AB"/>
</g>
<path d="M28.7304 26.4857C28.9746 28.0603 29.1232 29.6492 29.1753 31.2431C29.1778 31.298 29.2006 31.3499 29.2389 31.3879C29.2772 31.4258 29.3281 31.447 29.3811 31.4469V31.4469C29.4348 31.4443 29.4854 31.42 29.5221 31.3791C29.5587 31.3382 29.5785 31.284 29.5772 31.2282C29.5772 31.2282 29.515 29.8412 29.3858 28.4742C29.1227 25.5611 28.8309 25.4915 28.6443 25.4368C28.5534 25.4368 28.3859 25.4368 28.2424 25.6754C28.2328 25.8296 28.5869 26.0781 28.7304 26.4857Z" fill="#3F3E3D"/>
<path d="M30.4911 32.6448C30.4911 33.5148 30.0126 34.2257 29.362 34.2356C28.7113 34.2455 28.2089 33.5397 28.1994 32.6697C28.1898 31.7998 28.6778 31.0839 29.3285 31.0789C29.9792 31.074 30.4815 31.7699 30.4911 32.6448Z" fill="#D6D8DB"/>
<path d="M29.8926 32.7692C29.8926 33.3608 29.5959 33.843 29.2275 33.843C28.8591 33.843 28.5625 33.3458 28.5625 32.7692C28.5625 32.1925 28.8591 31.6954 29.2275 31.6954C29.5959 31.6954 29.8926 32.1776 29.8926 32.7692Z" fill="#EBECF1"/>
<g style="mix-blend-mode:multiply" opacity="0.5">
<path d="M29.4423 32.7693C29.4423 32.9582 29.3466 33.1173 29.227 33.1173C29.1074 33.1173 29.0117 32.9582 29.0117 32.7693C29.0117 32.5804 29.1074 32.4213 29.227 32.4213C29.3466 32.4213 29.4423 32.5754 29.4423 32.7693Z" fill="#A1A5AB"/>
</g>
</g>
</g>
<defs>
<clipPath id="clip0_1_558">
<rect width="52" height="52" rx="26" fill="white"/>
</clipPath>
<clipPath id="clip1_1_558">
<rect width="33.4286" height="58.5" fill="white" transform="translate(9.28516 4.64288)"/>
</clipPath>
</defs>
</svg>
