<svg width="52" height="52" viewBox="0 0 52 52" fill="none" xmlns="http://www.w3.org/2000/svg">
<rect width="52" height="52" rx="26" fill="#54D1FF"/>
<g clip-path="url(#clip0_1_728)">
<path d="M45.1484 43.5302C45.1484 44.8943 37.6551 46.0009 28.4121 46.0009C19.1691 46.0009 11.6758 44.8943 11.6758 43.5302C11.6758 42.1662 19.1691 41.0604 28.4121 41.0604C37.6551 41.0604 45.1484 42.1662 45.1484 43.5302Z" fill="#3FC4F5"/>
<path d="M41.8754 20.1603C42.7744 20.5105 43.4669 21.2337 44.0302 21.9928C44.5758 22.7335 45.0238 23.5409 45.3633 24.3952C45.6966 25.2741 45.9 26.1966 45.967 27.1338C46.0469 28.0872 45.9898 29.073 45.655 29.9757C45.4599 30.501 44.6699 30.1324 44.8641 29.6097C45.1445 28.8524 45.1576 28.011 45.0987 27.2152C45.0383 26.3776 44.8609 25.5525 44.5715 24.7638C44.2785 24.0099 43.892 23.2955 43.4212 22.6372C42.9334 21.9367 42.3218 21.2661 41.5089 20.9465C40.9817 20.7408 41.3552 19.9528 41.8763 20.1586L41.8754 20.1603Z" fill="#231F20"/>
<path d="M11.0229 30.408C10.9886 29.0589 10.9482 27.6843 11.2698 26.364C11.5878 25.0415 12.3917 23.8857 13.523 23.1247C13.9835 22.8077 13.5476 22.0539 13.0836 22.3735C11.7945 23.2595 10.8867 24.4747 10.4675 25.9814C10.0703 27.412 10.116 28.9345 10.1511 30.4045C10.1652 30.964 11.0387 30.9657 11.0238 30.4045L11.0229 30.408Z" fill="#231F20"/>
<path d="M20.4474 43.9943C18.3041 43.9356 16.4314 43.5267 15.2705 39.9669C14.4717 37.5155 14.7354 34.6316 14.4673 32.7598C14.1993 30.8879 11.969 25.1779 11.7009 20.5902C11.4329 16.0025 14.2889 11.2336 18.9298 10.9526C23.5706 10.6716 25.445 12.2659 27.8564 12.3534C30.9831 12.4751 33.3786 10.57 37.5845 10.7617C41.6901 10.9491 43.7429 15.4422 43.9213 20.2172C44.0786 24.4354 41.5398 30.6498 41.6005 32.7606C41.6884 35.8494 41.5126 43.7115 38.0309 43.7115C34.0061 43.7115 33.122 38.0023 31.962 36.8825C29.8336 34.8224 28.0348 34.636 26.1621 36.5078C23.9898 38.6764 23.8386 44.0879 20.4474 43.9943Z" fill="#DEECED"/>
<path d="M21.53 13.2157C19.9104 12.7955 18.5641 13.2761 17.4612 14.1893C16.5297 14.7198 15.665 15.6873 15.2792 16.3667C14.367 17.9715 13.7449 20.1594 14.6755 21.92C15.4506 23.3865 17.3022 23.3812 17.8945 21.7887C18.4217 20.3879 17.9481 18.8794 18.8611 17.5635C19.732 16.3045 20.9702 16.3019 22.1864 15.5052C23.5221 14.6297 22.7822 13.5405 21.53 13.2157Z" fill="white"/>
<path d="M43.9226 20.225C43.76 15.8843 42.0482 11.7764 38.65 10.9263C44.8436 13.4539 42.8936 23.3418 39.9541 27.4305C39.1394 28.5634 37.8872 28.7936 36.3159 29.8959C34.8651 30.9124 38.4698 30.9973 39.6052 34.2734C40.2818 36.2276 41.1167 41.0647 38.3529 41.9C37.4469 42.174 36.192 42.2178 35.3554 41.8413C34.8185 41.6014 34.0742 40.9719 33.6523 40.2129C34.5311 41.9639 35.8001 43.7149 38.0295 43.7149C41.5104 43.7149 41.6888 35.852 41.6 32.7632C41.5411 30.6567 44.0808 24.4432 43.9226 20.225Z" fill="#B9E1EA"/>
<path d="M20.9755 21.3991C21.538 21.3991 21.994 20.9448 21.994 20.3843C21.994 19.8239 21.538 19.3696 20.9755 19.3696C20.413 19.3696 19.957 19.8239 19.957 20.3843C19.957 20.9448 20.413 21.3991 20.9755 21.3991Z" fill="#231F20"/>
<path d="M36.199 20.3844C36.1992 20.5853 36.1395 20.7818 36.0275 20.949C35.9156 21.1161 35.7564 21.2464 35.5701 21.3234C35.3838 21.4004 35.1788 21.4206 34.9809 21.3814C34.7831 21.3422 34.6014 21.2455 34.4588 21.1034C34.3162 20.9613 34.2191 20.7803 34.1798 20.5832C34.1405 20.3861 34.1607 20.1818 34.238 19.9962C34.3152 19.8106 34.446 19.652 34.6138 19.5405C34.7816 19.429 34.9788 19.3695 35.1805 19.3697C35.4506 19.3697 35.7097 19.4766 35.9007 19.6669C36.0917 19.8572 36.199 20.1153 36.199 20.3844Z" fill="#231F20"/>
<path d="M28.4436 25.5254L28.3302 25.5315C26.4892 25.6523 25.4645 26.5348 24.9285 27.2536C24.5781 27.7164 24.3298 28.2478 24.2 28.8129C24.1951 28.8776 24.2144 28.9418 24.2542 28.9931C24.294 29.0445 24.3515 29.0793 24.4156 29.0909C24.4796 29.1026 24.5458 29.0902 24.6012 29.0561C24.6566 29.0221 24.6975 28.9688 24.7158 28.9066C24.736 28.798 25.2492 26.2573 28.3645 26.0524C29.6185 25.9719 30.4419 26.4543 30.9129 26.8745C31.6388 27.5233 31.9227 28.3419 31.9464 28.8882C31.9478 28.9227 31.9561 28.9565 31.9707 28.9879C31.9852 29.0192 32.0059 29.0473 32.0314 29.0707C32.0569 29.0941 32.0867 29.1122 32.1193 29.1241C32.1518 29.136 32.1864 29.1413 32.221 29.1399C32.2556 29.1385 32.2896 29.1302 32.321 29.1157C32.3525 29.1012 32.3807 29.0806 32.4042 29.0552C32.4277 29.0298 32.4459 29.0001 32.4578 28.9676C32.4697 28.9352 32.4751 28.9008 32.4736 28.8663C32.4376 28.0311 31.9754 27.1153 31.2662 26.484C30.7319 26.0113 29.8162 25.4676 28.4436 25.5254Z" fill="#231F20"/>
<path d="M36.7706 15.2425C36.4384 14.9054 35.6554 14.564 35.1106 14.88C34.8839 15.0113 34.7819 15.3038 35.0157 15.52C35.2987 15.7765 35.5641 15.52 36.2776 16.0331C36.5246 16.2082 36.79 16.5382 37.0413 16.0768C37.2592 15.6846 36.9789 15.4552 36.7706 15.2425Z" fill="#231F20"/>
<path d="M19.1557 15.1103C19.4668 14.7838 20.1698 14.4756 20.6171 14.8249C20.6671 14.8627 20.7082 14.9109 20.7375 14.9662C20.7669 15.0215 20.7838 15.0824 20.787 15.1449C20.7903 15.2073 20.7798 15.2697 20.7564 15.3277C20.733 15.3857 20.6972 15.4379 20.6514 15.4807C20.3878 15.7276 20.1769 15.4518 19.5222 15.9394C19.2954 16.1084 19.0415 16.428 18.8587 15.9464C18.7067 15.5358 18.9624 15.3161 19.1557 15.1103Z" fill="#231F20"/>
<path d="M44.1307 32.9689C43.0621 32.5066 43.5454 31.428 44.0692 30.7503C43.8169 30.8782 43.4391 31.0436 43.2466 30.7162C43.0709 30.415 43.4689 30.1357 43.7071 30.0105C44.2985 29.6989 44.8803 29.3653 45.1131 28.6894L45.5763 27.4558C45.5227 28.6964 46.0499 29.8486 45.948 31.0795C45.8715 31.969 45.317 33.4819 44.1307 32.9689Z" fill="#231F20"/>
<path d="M11.915 33.5748C12.9652 33.0731 12.4423 32.0129 11.8931 31.3554C12.1497 31.4736 12.5328 31.625 12.7138 31.2906C12.8808 30.9824 12.4695 30.7189 12.227 30.6024C11.6241 30.3135 11.0301 30.0019 10.7726 29.3347L10.2638 28.1195C10.364 29.3566 9.88065 30.528 10.0283 31.7546C10.1346 32.6406 10.7489 34.1316 11.915 33.5748Z" fill="#231F20"/>
<path d="M44.2208 17.2885C44.1277 16.3325 43.8693 15.3195 43.5802 14.3757C43.0222 12.5231 41.7155 11.0173 39.8674 10.3869C38.4262 9.89487 36.782 9.83271 35.2687 10.4316C34.9392 10.5611 34.5991 11.0873 34.5657 11.4174C34.5104 11.9908 35.1809 12.123 35.6159 12.1712C36.0895 12.2237 36.5737 12.0547 37.0131 12.1125C37.8576 12.2228 37.471 12.6448 37.6537 13.2157C38.0931 14.5762 39.5598 12.7429 40.32 13.6823C40.994 14.5158 39.9517 15.6487 39.7347 16.4629C39.4631 17.4838 39.798 18.4381 40.972 18.1028C41.465 17.9627 41.8508 17.6247 42.357 17.9277C42.697 18.1316 42.9141 18.5843 43.2436 18.8268C44.3904 19.6682 44.2999 18.1028 44.2208 17.2885Z" fill="#634337"/>
<path d="M20.1886 10.4316C18.308 10.2224 16.8492 10.3782 15.1664 11.1942C14.5512 11.4928 13.0046 12.6265 12.7937 14.4914C12.7489 15.851 14.8641 16.9244 16.0399 15.3669C16.5592 14.6761 16.1392 13.0862 17.1014 12.7666C17.5602 12.6152 18.1393 13.0844 18.5602 12.8016C19.0576 12.4672 18.6068 12.1888 19.2685 12.1608C20.0084 12.1336 21.2897 12.5583 21.7748 11.7143C22.3187 10.7591 20.7721 10.4964 20.1886 10.4316Z" fill="#634337"/>
<path d="M20.2483 25.3511C19.9284 25.0455 19.4055 25.0692 19.04 24.8599C17.5276 23.9958 19.6999 23.5029 19.2755 22.8296C18.7254 21.9541 16.6778 23.8093 17.2367 22.1599C17.3817 21.7309 17.8193 21.1924 17.1647 20.984C16.5495 20.7871 16.3518 21.6626 16.118 21.8061C15.7955 21.9419 15.6611 21.3859 15.2568 21.2931C14.8526 21.2003 14.3649 21.4945 14.6171 22.1467C14.7392 22.4602 15.3113 23.0065 15.0714 23.3225C14.8315 23.6386 14.0801 23.2394 13.8411 23.6666C13.4114 24.4484 15.5925 24.3968 15.7507 25.1628C15.9836 26.294 14.4422 27.4716 15.2234 28.5843C15.6022 29.1228 16.1277 29.1736 16.6348 28.7594C17.1778 28.3217 17.2042 27.6826 17.3887 27.0732C17.5293 26.6074 17.7842 25.8965 18.3818 25.8527C18.8519 25.8177 19.2228 26.3019 19.7201 26.2607C20.3133 26.2161 20.7061 25.7897 20.2483 25.3511Z" fill="#634337"/>
<path d="M21.9952 27.8778C21.9645 27.2229 21.1841 27.0496 20.7606 27.4899C20.6896 27.5682 20.6275 27.6539 20.5751 27.7456C20.1445 28.1194 19.8721 28.8426 20.2359 29.3084C20.9196 30.1734 22.0278 28.5677 21.9952 27.8778Z" fill="#634337"/>
<path d="M19.8887 29.7261C19.6593 29.3382 18.9053 29.4538 18.6663 29.8136C18.5063 30.0526 18.5635 30.2514 18.712 30.3687C18.7753 30.4546 18.8646 30.5181 18.9668 30.5499C19.4308 30.7119 20.2103 30.2645 19.8887 29.7261Z" fill="#634337"/>
<path d="M38.0241 10.3073C37.5285 10.232 36.4317 10.0262 36.1004 10.5822C35.9528 10.6741 35.8465 10.7932 35.8518 10.9324C35.8702 11.4708 36.6558 11.1565 36.9379 11.0873C37.3933 10.9667 37.8682 10.937 38.3352 10.9998C38.7148 11.0567 39.1735 11.2738 39.5655 11.195C40.0207 10.4272 38.4723 10.3747 38.0241 10.3073Z" fill="#84574A"/>
<path d="M16.2887 11.3194C15.9109 11.3483 15.4258 11.6451 15.0945 11.8333C14.4644 12.1914 13.8123 12.8008 13.5074 13.4539C13.1963 13.9302 13.1076 14.3924 13.5812 14.6376C14.2649 14.9878 14.4029 13.7122 14.6103 13.3296C14.9372 12.7264 15.431 12.3832 16.0163 12.0942C16.3643 11.9218 17.2519 11.245 16.2887 11.3194Z" fill="#84574A"/>
<path d="M21.2171 27.483C20.9447 27.483 20.8164 27.6782 20.7241 27.8901C20.5554 28.0783 20.42 28.306 20.4112 28.4959C20.3805 29.164 21.0088 28.608 21.2101 28.3331C21.3946 28.0801 21.7452 27.476 21.2171 27.483Z" fill="#84574A"/>
<path d="M16.1133 25.0824L16.275 25.4063C16.2722 25.3831 16.2681 25.36 16.2627 25.3372C16.2135 25.254 16.1599 25.1673 16.1133 25.0824Z" fill="#84574A"/>
<path d="M16.0941 24.5816C15.9087 24.6534 15.9877 24.8591 16.1134 25.0824L16.0563 24.9695C16.1561 25.072 16.2273 25.1988 16.2628 25.3372C16.3302 25.4369 16.3784 25.5482 16.4052 25.6655L16.2751 25.4028C16.3296 25.7994 16.051 26.203 15.87 26.59C15.7461 26.8527 15.5791 27.2659 15.5993 27.5531C15.6327 28.0442 15.9113 27.8437 16.1046 27.5146C16.3911 27.0251 16.6073 26.3606 16.7637 25.8213C16.856 25.5079 16.7391 24.3321 16.0941 24.5816Z" fill="#84574A"/>
</g>
<defs>
<clipPath id="clip0_1_728">
<rect width="36" height="36" fill="white" transform="translate(10 10)"/>
</clipPath>
</defs>
</svg>
