<svg width="52" height="52" viewBox="0 0 52 52" fill="none" xmlns="http://www.w3.org/2000/svg">
<g clip-path="url(#clip0_1_755)">
<rect width="52" height="52" rx="26" fill="#FF88B1"/>
<g style="mix-blend-mode:multiply" opacity="0.26">
<path style="mix-blend-mode:multiply" opacity="0.26" d="M53.8588 38.4807V53.8571H33.9558L18.5586 35.0617L22.4924 19.0431L28.7116 8.43768L53.8588 38.4807Z" fill="url(#paint0_linear_1_755)"/>
</g>
<g style="mix-blend-mode:multiply" opacity="0.26">
<path style="mix-blend-mode:multiply" opacity="0.26" d="M27.2789 11.5188L25.4563 9.00721L25.4537 13.2634L22.2089 8.65881L21.0129 14.878L18.9407 11.927L17.7109 15.346L17.7681 22.6572L29.7203 14.826L27.2789 11.5188Z" fill="url(#paint1_linear_1_755)"/>
</g>
<path d="M31.6133 21.5522C33.0797 21.8876 35.2689 21.0036 35.5419 20.9854C35.8149 20.9672 36.7613 22.2854 36.3843 22.6702C36.0073 23.055 32.4531 23.2604 31.6133 21.5522Z" fill="#CC0500"/>
<g style="mix-blend-mode:multiply" opacity="0.36">
<path d="M32.4297 22.3764C33.7843 23.1564 36.0853 22.9718 36.3869 22.6702C36.433 22.6089 36.463 22.537 36.4739 22.4611C36.4848 22.3852 36.4763 22.3078 36.4493 22.236C35.9527 22.3634 35.3911 22.5974 35.1701 22.5922C34.5149 22.5766 34.0781 21.9942 33.6933 21.4742C33.5685 21.5002 33.4333 21.5236 33.3163 21.5444L32.4297 22.3764Z" fill="#A12252"/>
</g>
<path d="M29.3774 18.1489C28.8574 17.5587 27.534 17.4599 26.8164 16.3289C26.442 15.7361 26.1508 14.5869 25.805 14.0487C25.2434 13.1725 24.3334 13.7627 24.245 14.5687C24.1774 15.2993 25.3552 17.7485 25.779 18.3491C26.4446 19.2617 28.223 19.3527 29.3774 18.1489Z" fill="#00A4DD"/>
<g style="mix-blend-mode:multiply" opacity="0.3">
<path d="M27.6374 19.0171C28.0559 18.6242 28.3033 18.0827 28.3264 17.5091C27.717 17.2688 27.1923 16.8535 26.8184 16.3157C26.4882 15.7957 26.223 14.8467 25.9318 14.2591C25.8441 14.3623 25.781 14.4841 25.7472 14.6153C25.573 15.2679 26.0644 15.9153 26.2672 16.4691C26.418 16.8799 26.5428 17.9277 25.7472 17.7691C25.3078 17.6807 24.8008 16.4171 24.8008 16.4171C25.0754 17.0817 25.4041 17.7225 25.7836 18.3333C26.158 18.8533 26.8756 19.1081 27.6374 19.0171Z" fill="#004056"/>
</g>
<path d="M16.4538 24.9061C15.5126 25.9461 15.6348 28.6813 15.9078 30.0099C16.2458 31.6479 17.421 33.4393 18.3596 34.8277C20.4653 37.964 23.3432 40.5052 26.716 42.2065C28.1174 42.9345 30.1142 43.5715 31.7314 43.2621C33.4864 42.9267 34.932 40.6829 35.6106 39.0475C37.4306 34.6275 37.35 30.6859 35.296 26.3855C33.9596 23.5879 32.254 22.4049 29.4512 21.1179C27.2282 20.0961 23.765 19.7321 21.4536 20.4887C20.3888 20.8192 19.3962 21.3485 18.5286 22.0487C17.8344 22.6285 17.304 23.5619 16.4538 24.9061Z" fill="#FF5252"/>
<g style="mix-blend-mode:multiply" opacity="0.36">
<path d="M35.298 26.3856C33.9616 23.588 32.256 22.405 29.4532 21.118C27.2302 20.0962 23.767 19.7322 21.4556 20.4888L21.3048 20.5434C21.1183 21.2305 21.112 21.954 21.2866 22.6442C21.9522 25.057 24.6666 25.1818 26.4268 26.227C30.7246 28.7646 33.1868 34.6978 31.2576 39.4324C30.3294 41.723 28.8396 42.2612 27.0144 42.3548C28.3924 43.0178 30.228 43.5508 31.7334 43.2622C33.4884 42.9268 34.934 40.683 35.6126 39.0476C37.4352 34.6354 37.352 30.686 35.298 26.3856Z" fill="#A12252"/>
</g>
<g style="mix-blend-mode:multiply" opacity="0.36">
<path d="M27.0243 22.1216C26.9489 24.7528 31.7303 24.5474 33.2149 25.2936C33.6855 25.5328 35.1493 26.7366 34.7333 25.4886C34.2133 23.9598 32.3127 22.4206 29.8479 22.0358L27.0243 22.1216Z" fill="#A12252"/>
</g>
<g style="mix-blend-mode:multiply" opacity="0.36">
<path d="M30.043 43.2882C30.3877 43.3333 30.7355 43.3498 31.083 43.3376C33.605 42.1156 35.2638 39.331 35.763 35.3972C36.0906 32.7712 35.9476 29.893 35.0766 27.4282C34.6138 26.1282 34.0366 25.0024 33.0278 24.0014C32.5546 23.5386 31.7278 22.8886 31.226 23.6166C30.7242 24.3446 31.5068 25.616 31.785 26.266C33.0434 29.2222 34.1484 32.3422 34.2212 35.5922C34.2966 39.6794 32.9472 42.269 30.043 43.2882Z" fill="#A12252"/>
</g>
<path d="M18.3203 23.3671C18.8403 21.4587 20.1741 19.3683 19.9089 17.3013C19.6333 15.1459 20.4965 13.9915 20.3665 11.7893C20.2677 10.1201 19.7815 9.04893 21.3467 8.57053C22.9769 8.07133 22.0643 10.0629 22.5219 10.8091C23.4501 12.3301 24.1313 10.9911 23.8219 9.75613C23.5827 8.83313 23.7907 7.78793 24.9789 8.50033C26.1047 9.17373 25.2727 10.1565 25.6757 10.5933C26.6377 11.6333 26.6013 7.94913 26.9081 7.64493C27.2149 7.34073 29.1129 7.88153 28.8789 8.53413C28.5019 9.57413 28.0391 10.2605 29.6589 12.0571C31.2787 13.8537 31.7779 16.9789 31.6661 19.0407C31.6011 20.2289 28.6787 21.2195 28.5929 19.5971C28.4343 16.6487 26.0995 12.4887 25.2961 17.3897C25.1089 18.5337 26.2425 19.7765 25.8005 20.9205C25.3585 22.0645 24.7917 22.6521 23.6295 23.1565C21.5001 24.0743 19.3733 24.0119 18.3203 23.3671Z" fill="#CC0500"/>
<path d="M27.9613 19.5035C26.2531 19.5633 27.1813 22.3141 27.7819 23.0369C28.1998 23.5484 28.7584 23.9262 29.3887 24.1237C34.9917 25.5407 32.7037 23.3437 33.2185 23.8481C33.8061 24.4357 33.9517 25.8371 34.8123 24.7295C35.5923 23.7155 33.5331 21.5835 32.8441 21.0063C31.4245 19.8155 29.4849 19.1343 27.9613 19.5035Z" fill="#FF9FA8"/>
<g style="mix-blend-mode:multiply" opacity="0.57">
<path d="M22.0981 8.70295C21.8381 8.39355 20.6005 8.74715 20.3977 9.33995C20.1039 10.2005 22.3451 9.00975 22.0981 8.70295Z" fill="#5C0500"/>
</g>
<g style="mix-blend-mode:multiply" opacity="0.57">
<path d="M24.8428 8.55223C24.354 8.32343 24.1694 8.37803 23.9822 8.57563C23.7222 8.83563 24.2422 9.94583 24.9338 9.76643C25.6852 9.57143 25.3316 8.77843 24.8428 8.55223Z" fill="#5C0500"/>
</g>
<g style="mix-blend-mode:multiply" opacity="0.57">
<path d="M27.1081 7.69677C26.7181 8.08937 28.3041 8.69517 28.7097 8.43777C29.1153 8.18037 27.3733 7.43417 27.1081 7.69677Z" fill="#5C0500"/>
</g>
<g style="mix-blend-mode:multiply" opacity="0.36">
<path d="M15.9922 30.2439C16.2184 30.7795 16.6058 31.5933 17.2246 31.6063C17.8434 31.6193 17.5548 30.8653 20.2406 30.0177C21.1324 29.7369 21.0206 28.4187 21.239 27.6179C21.473 26.7287 22.8614 26.8925 23.1942 26.1593C23.3632 25.7797 23.1942 25.2831 23.3684 24.8749C23.5426 24.4667 23.982 24.3757 23.8442 23.7595C21.2624 22.9483 17.716 26.0371 16.416 28.0209L15.9922 30.2439Z" fill="#A12252"/>
</g>
<g style="mix-blend-mode:multiply" opacity="0.36">
<path d="M24.2027 24.7372C24.0311 25.1922 24.6161 25.9202 24.9827 26.1204C25.4195 26.357 26.1969 26.3804 26.7065 26.3804C27.3403 26.4171 27.9752 26.328 28.5745 26.1183C29.1738 25.9086 29.7256 25.5823 30.1983 25.1584C31.2383 24.238 30.7963 22.9978 31.2383 21.807C31.4463 21.248 32.2471 20.8034 31.9221 20.208C31.6621 19.7504 30.9445 19.5658 30.4973 19.428C27.0783 18.44 28.2639 25.0648 24.2027 24.7372Z" fill="#A12252"/>
</g>
<g style="mix-blend-mode:screen" opacity="0.46">
<path d="M23.4369 28.0209C21.7183 28.5409 20.4417 30.4597 19.9295 32.0847C19.0741 34.7887 20.4495 37.1573 22.5737 38.7875C23.9101 39.8067 26.2631 41.5929 28.0545 41.0417C30.6233 40.2487 31.1277 36.4241 30.6857 34.1803C30.3347 32.4019 29.4741 30.5949 28.1897 29.3391C27.3369 28.5019 25.5897 27.3839 23.4369 28.0209Z" fill="#FF5252"/>
</g>
<g style="mix-blend-mode:screen" opacity="0.43">
<path d="M22.4229 29.6459C18.9961 30.5143 20.8473 35.8547 22.6127 37.4121C23.3147 38.0309 24.7629 38.8889 25.6027 38.3039C26.9287 37.3835 26.3645 34.9239 26.1851 33.5823C25.8809 31.3151 24.9319 29.4821 22.4229 29.6459Z" fill="#FF5252"/>
</g>
<g style="mix-blend-mode:multiply" opacity="0.36">
<path d="M29.643 12.057C28.031 10.2604 28.4938 9.57661 28.863 8.53401C28.8706 8.51122 28.8758 8.48769 28.8786 8.46381C28.5172 8.70821 28.0466 8.91361 27.914 9.20741C27.4954 10.1174 28.0414 11.173 28.577 11.8386C29.9082 13.4896 30.657 15.4786 30.4438 17.6314C30.384 18.2528 30.0902 19.4514 30.2254 20.3406C30.658 20.2164 31.0495 19.9785 31.359 19.6516C31.3954 19.4462 31.4266 19.259 31.463 19.1316C31.528 18.8898 31.5904 18.6376 31.6554 18.3828C31.645 16.347 31.0912 13.6664 29.643 12.057Z" fill="#A12252"/>
</g>
<g style="mix-blend-mode:multiply" opacity="0.36">
<path d="M22.8018 11.6774C22.8815 11.6914 22.9636 11.6795 23.0361 11.6435C23.1086 11.6074 23.1677 11.5492 23.2048 11.4772C23.0046 11.4252 22.7732 11.2172 22.5236 10.8142C22.196 10.2786 22.573 9.1008 22.209 8.664C22.2246 9.1502 21.7644 9.1372 21.572 9.5116C21.2314 10.1616 22.0452 11.6592 22.8018 11.6774Z" fill="#A12252"/>
</g>
<path d="M28.9336 19.8414C31.349 20.1768 33.793 17.0048 34.495 17.0048C34.8902 17.0048 36.016 19.6048 35.366 19.7582C34.716 19.9116 33.5772 20.9672 32.5788 21.4092C31.4972 21.8772 29.0922 21.3572 28.9336 19.8414Z" fill="#CC0500"/>
<g style="mix-blend-mode:multiply" opacity="0.36">
<path d="M35.17 18.2943C34.7689 18.7819 34.3096 19.2185 33.8023 19.5943C33.3161 19.9193 32.7987 20.1923 32.2189 19.9687C31.8594 19.8105 31.5514 19.5547 31.3298 19.2303C31.0856 19.3703 30.8319 19.4928 30.5706 19.5969L29.9102 20.4367C30.7214 20.9385 31.3792 21.5209 32.388 21.4559H32.4686L32.5804 21.4117C33.5892 20.9697 34.7176 19.9089 35.3676 19.7607C35.7134 19.6801 35.5548 18.9001 35.2688 18.2007C35.235 18.2371 35.2012 18.2631 35.17 18.2943Z" fill="#A12252"/>
</g>
<g style="mix-blend-mode:multiply" opacity="0.36">
<path d="M25.4595 10.9572C25.5043 10.9802 25.5534 10.9935 25.6036 10.9961C25.6539 10.9988 25.7041 10.9908 25.751 10.9726C25.7979 10.9544 25.8405 10.9265 25.8758 10.8907C25.9112 10.8549 25.9385 10.812 25.9561 10.7648C25.8419 10.7407 25.7404 10.676 25.6701 10.5828C25.3113 10.1928 25.9301 9.36604 25.2671 8.71344C25.3713 8.9028 25.4351 9.11175 25.4543 9.32704C25.4231 9.88344 24.4533 10.5932 25.4595 10.9572Z" fill="#A12252"/>
</g>
<g style="mix-blend-mode:multiply" opacity="0.36">
<path d="M28.7177 16.3912C28.3147 15.2446 26.7443 13.2712 25.3793 13.9732C24.1287 14.6284 24.1027 16.7526 23.8635 17.8914C23.5905 19.1914 23.5099 20.6864 22.6649 21.8226C22.3501 22.23 21.9251 22.5385 21.4403 22.7118C21.3857 22.2906 21.2947 21.8694 21.2505 21.4586C21.1517 20.4784 21.2817 19.7686 22.0305 19.1498C22.6961 18.6064 23.5047 18.0136 23.8505 17.1608C24.0455 16.6694 24.1963 15.1952 23.5905 14.9352C23.2031 14.7714 22.4205 15.1952 22.0695 15.3408C21.4169 15.6008 20.7929 15.918 20.1481 16.178L19.8751 16.815C19.8751 16.9736 19.8959 17.1322 19.9167 17.3012C20.1767 19.3682 18.8533 21.4612 18.3281 23.367C19.3811 24.0118 21.5079 24.0742 23.6217 23.1564C24.7839 22.652 25.3637 22.0306 25.7927 20.9204C26.2217 19.8102 25.1011 18.5336 25.2883 17.3896C26.0917 12.4886 28.4265 16.6486 28.5851 19.597C28.5825 19.7709 28.6363 19.9409 28.7385 20.0815C28.8407 20.2221 28.9858 20.3258 29.1519 20.377C29.2484 19.9438 29.2843 19.4993 29.2585 19.0562C29.1992 18.1476 29.0173 17.2511 28.7177 16.3912Z" fill="#A12252"/>
</g>
<g style="mix-blend-mode:multiply" opacity="0.57">
<path d="M35.5426 21.0764C35.215 21.404 36.008 22.8028 36.3382 22.6364C36.6684 22.47 35.7168 20.8996 35.5426 21.0764Z" fill="#5C0500"/>
</g>
<path d="M15.7109 24.7891C15.7915 23.7095 15.9409 22.6361 16.1581 21.5755C16.3843 20.2443 16.8497 18.9365 16.7275 17.5455C16.6261 16.3729 16.0697 14.1499 16.4233 12.9643C16.7197 11.9685 17.7883 11.0117 18.8647 11.8697C19.7539 12.5769 19.0103 14.6569 19.4653 15.6267C20.4195 15.7567 21.2853 14.2357 22.2629 14.0667C23.6643 13.8431 24.0829 15.4993 23.7215 16.6901C23.4121 17.7301 22.6087 18.0161 21.6675 18.4087C20.2271 19.0119 19.9359 19.0847 19.9983 20.8189C20.0295 21.6821 20.1465 22.4725 20.0971 23.3123C19.9463 25.7771 18.4149 25.3689 15.7109 24.7891Z" fill="#00B1FF"/>
<g style="mix-blend-mode:multiply" opacity="0.69">
<path d="M22.5963 14.2489C21.2729 14.2489 21.4289 17.3689 22.5521 17.5353C23.9197 17.7407 24.1537 14.3373 22.5963 14.2489Z" fill="#004056"/>
</g>
<path d="M27.9613 19.5035C26.2531 19.5633 27.1813 22.3141 27.7819 23.0369C28.1998 23.5484 28.7584 23.9262 29.3887 24.1237C34.9917 25.5407 32.7037 23.3437 33.2185 23.8481C33.8061 24.4357 33.9517 25.8371 34.8123 24.7295C35.5923 23.7155 33.5331 21.5835 32.8441 21.0063C31.4245 19.8155 29.4849 19.1343 27.9613 19.5035Z" fill="#FF9FA8"/>
<g style="mix-blend-mode:multiply" opacity="0.36">
<path d="M33.2158 23.8481C33.8034 24.4357 33.949 25.8371 34.8096 24.7295C35.5896 23.7155 33.5304 21.5835 32.8414 21.0063C31.8795 20.1857 30.71 19.6459 29.4614 19.4463C29.9502 19.7479 30.6964 19.7739 31.18 20.0859C31.9314 20.5721 33.0806 21.3859 33.6604 22.1269C34.5704 23.3047 33.3276 23.7389 32.6204 23.6271C31.4426 23.4399 30.4832 23.8481 29.542 22.9355C28.8036 22.2153 28.1588 22.2569 27.332 22.2413C27.4418 22.5257 27.5906 22.7934 27.774 23.0369C28.1919 23.5484 28.7505 23.9262 29.3808 24.1237C34.989 25.5407 32.701 23.3333 33.2158 23.8481Z" fill="#A12252"/>
</g>
<path d="M24.2554 25.2364C23.673 24.2588 24.271 23.198 24.9444 21.0608C25.6776 18.7364 26.1612 17.5716 28.6156 16.1702C30.5448 15.0678 32.9732 14.3112 33.1604 16.3236C33.4386 19.3344 28.925 18.4036 28.1372 21.3078C27.7862 22.6078 28.301 23.9416 27.7238 25.1428C27.0374 26.5728 25.0562 26.5806 24.2554 25.2364Z" fill="#00B1FF"/>
<g style="mix-blend-mode:multiply" opacity="0.57">
<path d="M34.5309 17.1582C34.1539 17.14 34.9651 19.571 35.3811 19.597C35.6983 19.6178 34.8767 17.1738 34.5309 17.1582Z" fill="#5C0500"/>
</g>
<g style="mix-blend-mode:screen" opacity="0.43">
<path d="M17.5052 11.8308C16.7252 12.4002 16.5042 13.253 16.6212 14.1708C16.7824 15.4344 16.9904 16.6512 17.0476 17.9512C17.0562 18.853 16.9048 19.7491 16.6004 20.598C16.3924 21.2584 16.0804 21.7862 16.642 22.2646C16.9202 22.4986 17.487 23.1798 17.7678 22.6598C18.0486 22.1398 17.9888 21.3598 18.0278 20.8112C18.1074 20.107 18.1275 19.3972 18.0876 18.6896C17.955 17.101 17.5182 15.5696 17.5234 13.955C17.5202 13.5191 17.5576 13.0839 17.6352 12.655C17.6828 12.5175 17.6958 12.3704 17.6732 12.2267C17.6505 12.0829 17.5928 11.947 17.5052 11.8308Z" fill="#92CEFF"/>
</g>
<g style="mix-blend-mode:screen" opacity="0.43">
<path d="M21.4665 14.5972C21.0988 14.9633 20.6926 15.2885 20.2549 15.567C19.7921 15.8868 19.4749 15.8868 19.5555 16.5368C19.5997 16.8826 19.7583 17.6574 20.2679 17.2674C20.4395 17.1348 20.5149 16.8826 20.6527 16.724C20.8425 16.5056 21.1883 16.438 21.3521 16.2534C21.5159 16.0688 21.4405 15.7334 21.4301 15.5176C21.4052 15.2105 21.4174 14.9015 21.4665 14.5972Z" fill="#92CEFF"/>
</g>
<g style="mix-blend-mode:screen" opacity="0.43">
<path d="M32.1257 15.2237C30.5293 15.2237 29.0655 16.0037 27.7941 16.9319C26.9661 17.543 26.2921 18.3389 25.8259 19.2563C25.2383 20.4315 25.0459 21.6977 24.6221 22.9353C24.4427 23.4735 24.2451 23.9285 24.3153 24.4953C24.3621 24.8697 24.5363 25.5067 24.9653 25.5899C25.3579 25.3299 25.2981 24.4511 25.3449 24.0299C25.4749 22.8677 25.5269 20.5771 26.9829 18.5855C29.1565 15.6371 31.8189 15.6085 32.6093 15.3771L32.1257 15.2237Z" fill="#92CEFF"/>
</g>
<g style="mix-blend-mode:multiply" opacity="0.3">
<path d="M33.1586 16.3237C33.1437 16.0586 33.0613 15.8018 32.9194 15.5775C32.8186 15.8245 32.6501 16.0381 32.4332 16.1937C31.4582 16.8957 30.0022 16.9295 28.9336 17.6861C27.6544 18.5935 27.2202 19.9221 26.8822 21.3599C26.604 22.5325 26.5962 23.9885 26.0398 25.0441C25.9251 25.265 25.7611 25.4567 25.5605 25.6041C25.3598 25.7515 25.128 25.8508 24.8828 25.8943C25.1127 26.0521 25.3739 26.1584 25.6487 26.206C25.9234 26.2536 26.2052 26.2413 26.4748 26.17C26.7444 26.0986 26.9954 25.9699 27.2106 25.7927C27.4259 25.6154 27.6003 25.3937 27.722 25.1429C28.2992 23.9417 27.7844 22.6157 28.1354 21.3079C28.9232 18.3907 33.4368 19.3345 33.1586 16.3237Z" fill="#004056"/>
</g>
<g style="mix-blend-mode:multiply" opacity="0.3">
<path d="M23.4137 17.3298C23.3007 17.4526 23.1611 17.5478 23.0056 17.6082C22.8501 17.6686 22.6829 17.6925 22.5167 17.6782C22.3009 17.6574 22.0851 17.4598 21.8797 17.5144C21.7367 17.5534 21.5287 17.868 21.3883 17.959C20.6785 18.4244 19.5397 18.0864 18.9313 18.6428C18.2215 19.2928 18.6037 20.5018 18.5595 21.352C18.4995 22.6822 18.1329 23.9804 17.4883 25.1454C19.0847 25.4054 19.9843 25.1714 20.0883 23.3254C20.1377 22.4856 20.0207 21.6952 19.9895 20.832C19.9271 19.0978 20.2183 19.012 21.6587 18.4218C22.3763 18.1228 23.0133 17.8836 23.4137 17.3298Z" fill="#004056"/>
</g>
<g style="mix-blend-mode:multiply" opacity="0.3">
<path d="M19.1649 15.6372C19.2555 15.6121 19.3428 15.5764 19.4249 15.5306C19.0635 14.5218 19.7239 12.564 18.8659 11.8906C18.6459 11.7037 18.3735 11.5893 18.0859 11.563C18.2669 12.0488 18.3747 12.5588 18.4057 13.0762C18.4464 13.6723 18.4088 14.271 18.2939 14.8572C18.1899 15.4916 18.4499 15.84 19.1649 15.6372Z" fill="#004056"/>
</g>
<path d="M15.3339 22.1373C13.9507 24.8205 12.9159 28.5645 15.9137 31.0579C16.5663 31.5987 17.3541 31.5779 17.9287 30.7797C18.2589 30.3221 18.1029 30.0543 18.0457 29.7527C17.9547 29.2691 18.6541 30.5093 19.0857 30.4183C20.3285 30.1583 20.4559 29.3783 20.5625 28.2161C20.7081 26.6171 21.3139 27.3477 22.2109 26.7289C22.8973 26.2583 22.9181 25.7305 22.7075 24.8647C22.5879 24.3655 23.8099 24.0067 23.6175 23.5647C23.3887 23.0447 19.6967 22.7301 18.9895 23.3047C17.2293 24.7113 17.3281 21.8487 15.3339 22.1373Z" fill="#FF9FA8"/>
<g style="mix-blend-mode:multiply" opacity="0.36">
<path d="M23.6164 23.5671C23.3876 23.0471 19.6956 22.7325 18.9884 23.3071C17.3868 24.5915 17.327 22.3373 15.8242 22.1345C16.4398 22.4455 16.9466 22.936 17.2776 23.5411C17.7586 24.3523 17.9588 24.4381 18.9416 24.1391C19.5734 23.9441 20.5718 23.4995 21.1074 24.1807C21.8874 25.1765 20.538 25.6627 19.8568 25.8213C19.5136 26.6975 19.9062 27.6413 19.7502 28.5799C19.5032 30.0827 18.1902 30.2959 17.6 28.8841C17.665 29.6277 17.9588 30.6443 17.3192 31.0681C17.1034 31.2111 16.8486 31.2865 16.2792 31.2865C16.8486 31.5647 17.47 31.4321 17.9432 30.7665C18.2734 30.3089 18.1174 30.0411 18.0602 29.7395C17.9692 29.2559 18.6686 30.4961 19.1002 30.4051C20.343 30.1451 20.4704 29.3651 20.577 28.2029C20.7226 26.6039 21.3284 27.3345 22.2254 26.7157C22.9118 26.2451 22.9326 25.7173 22.722 24.8515C22.5868 24.3575 23.8088 23.9987 23.6164 23.5671Z" fill="#A12252"/>
</g>
<g style="mix-blend-mode:screen" opacity="0.43">
<path d="M15.6509 22.8055C14.0129 24.1965 14.0181 27.3685 15.0919 29.0455C15.3389 29.4303 15.8719 30.1037 16.3919 30.0023C17.1433 29.8567 16.5817 29.1885 16.7533 28.6165C17.1043 27.4231 18.5525 29.5707 19.1271 27.9119C19.3637 27.2307 18.6799 26.6509 18.7267 26.0919C18.7891 25.3431 19.7901 25.4445 19.7303 24.7919C18.9789 24.4123 18.2015 25.2495 17.3903 24.9089C16.3685 24.4773 16.8313 23.0421 15.6509 22.8055Z" fill="#FF9797"/>
</g>
<g style="mix-blend-mode:screen" opacity="0.43">
<path d="M29.8451 19.9558C29.2081 20.2392 28.9715 20.6864 29.3745 21.2792C29.7437 21.8252 30.3053 21.7446 30.8175 22.0592C31.3297 22.3738 31.5975 22.8392 32.2397 23.029C33.2459 23.3306 33.4799 22.8392 32.9001 22.0306C32.2449 21.1206 31.1529 20.1092 29.8451 19.9558Z" fill="#FF9797"/>
</g>
<g style="mix-blend-mode:screen" opacity="0.43">
<path d="M34.1199 17.4573C33.3862 17.9073 32.7398 18.486 32.2115 19.1655C31.6057 20.0859 33.6831 19.4671 34.0757 18.9055C34.4007 18.4141 33.9795 17.6783 34.1199 17.4573Z" fill="#FF9797"/>
</g>
<g style="mix-blend-mode:screen" opacity="0.43">
<path d="M35.0904 21.2662C34.4872 21.3026 33.5044 21.6328 34.4092 22.2204C34.599 22.3452 35.0904 22.5636 35.2776 22.3088C35.4648 22.054 35.054 21.6614 35.1476 21.3806L35.0904 21.2662Z" fill="#FF9797"/>
</g>
<g style="mix-blend-mode:screen" opacity="0.43">
<path d="M20.4986 9.80805C20.5194 10.5542 20.652 11.3082 20.613 12.0882C20.5844 12.6576 20.2568 13.6482 20.4986 14.1682C20.8106 14.8416 21.523 14.2826 21.6686 13.7418C21.8376 13.1048 21.3462 12.2676 21.2266 11.6306C21.1616 11.2926 21.1642 9.21005 20.4986 9.80805Z" fill="#FF9797"/>
</g>
<g style="mix-blend-mode:screen" opacity="0.43">
<path d="M23.9158 9.63635C24.1082 10.328 24.1966 11.0378 23.8196 11.6904C23.5128 12.2104 22.855 12.7304 23.1202 13.396C23.3282 13.916 24.3292 14.6596 24.6022 13.8536C24.8076 13.2504 24.6828 12.1662 24.7426 11.5448C24.7816 11.1652 24.8466 10.6088 24.6464 10.276C24.415 9.89375 24.0432 9.85735 23.9158 9.63635Z" fill="#FF9797"/>
</g>
<g style="mix-blend-mode:screen" opacity="0.43">
<path d="M26.9407 8.26624C26.8133 8.85904 26.9173 9.49344 26.7639 10.0628C26.6287 10.5646 26.2309 10.9026 25.9553 11.3342C25.7973 11.5442 25.7067 11.7971 25.6953 12.0596C25.6953 12.5458 25.7421 12.4314 26.0957 12.6004C26.7358 12.8685 27.3305 13.2343 27.8585 13.6846C28.2381 14.0382 28.7061 15.2004 29.2625 15.099C29.3951 13.539 27.5933 12.8812 27.2735 11.5188C27.0213 10.4372 27.7259 9.10604 26.9407 8.26624Z" fill="#FF9797"/>
</g>
<g style="mix-blend-mode:screen" opacity="0.43">
<path d="M22.4929 19.0433C21.6271 19.4905 21.1591 20.9413 21.3515 21.8357C21.7233 23.5647 22.5501 21.3157 22.6931 20.6683C22.8153 20.1119 22.9375 19.4333 22.4929 19.0433Z" fill="#FF9797"/>
</g>
<g style="mix-blend-mode:screen" opacity="0.43">
<path d="M15.2542 23.5463C14.6952 24.0403 14.0842 26.2685 14.8304 26.8197C15.6624 27.4333 16.0056 25.1219 16.0524 24.6279C16.0914 24.1885 16.0238 23.4033 15.2542 23.5463Z" fill="#FF9797"/>
</g>
<g style="mix-blend-mode:screen" opacity="0.77">
<path d="M17.1692 17.4572C17.0964 15.788 16.722 14.2228 16.9222 12.551C16.9222 12.5328 16.8962 12.5302 16.8884 12.551C16.3372 14.1734 16.839 15.7984 16.8884 17.4624C16.9446 18.4191 16.8738 19.379 16.6778 20.3172C16.54 20.8996 16.2748 21.4378 16.5374 22.0098C16.5404 22.0158 16.545 22.0208 16.5508 22.0244C16.5565 22.0279 16.5631 22.0298 16.5699 22.0298C16.5766 22.0298 16.5832 22.0279 16.5889 22.0244C16.5947 22.0208 16.5993 22.0158 16.6024 22.0098C16.904 20.4628 17.2394 19.0172 17.1692 17.4572Z" fill="#92CEFF"/>
</g>
<g style="mix-blend-mode:screen" opacity="0.77">
<path d="M21.6351 14.4517C21.3387 14.5557 21.1671 14.8807 20.9253 15.0731C20.5743 15.3539 20.1661 15.5437 19.8203 15.8271C19.4745 16.1105 19.0403 16.7137 19.6175 17.0023C19.6265 17.0084 19.6373 17.0111 19.6482 17.0101C19.659 17.0091 19.6691 17.0043 19.6768 16.9966C19.6845 16.9889 19.6893 16.9788 19.6903 16.9679C19.6914 16.9571 19.6886 16.9463 19.6825 16.9373C19.3367 16.2431 20.1479 15.8713 20.6263 15.5463C21.0354 15.2562 21.3798 14.8844 21.6377 14.4543C21.6377 14.4543 21.6377 14.4491 21.6351 14.4517Z" fill="#92CEFF"/>
</g>
<g style="mix-blend-mode:screen" opacity="0.77">
<path d="M29.2873 16.178C28.1069 16.3496 27.041 17.6028 26.3676 18.518C25.5226 19.6542 25.1716 21.066 24.9688 22.4466C25.559 21.352 25.6681 20.1066 26.3701 19.038C27.0721 17.9694 28.0992 16.7812 29.316 16.3314C29.326 16.3295 29.3356 16.3256 29.3442 16.32C29.3528 16.3145 29.3602 16.3072 29.366 16.2988C29.3718 16.2903 29.3759 16.2808 29.378 16.2708C29.3801 16.2608 29.3802 16.2504 29.3783 16.2404C29.3765 16.2303 29.3726 16.2207 29.367 16.2121C29.3615 16.2035 29.3542 16.1961 29.3458 16.1903C29.3373 16.1845 29.3278 16.1804 29.3178 16.1783C29.3078 16.1762 29.2974 16.1761 29.2873 16.178Z" fill="#92CEFF"/>
</g>
<g style="mix-blend-mode:screen" opacity="0.77">
<path d="M15.3608 23.5074C14.7316 23.9936 14.144 25.3872 14.5808 26.1334C14.5859 26.141 14.5932 26.1467 14.6017 26.15C14.6102 26.1532 14.6196 26.1537 14.6284 26.1514C14.6372 26.1491 14.6451 26.1442 14.651 26.1372C14.6569 26.1303 14.6605 26.1217 14.6614 26.1126C14.7186 25.6524 14.6614 25.2234 14.8018 24.7632C14.955 24.3327 15.1482 23.9175 15.379 23.523C15.379 23.523 15.379 23.5022 15.3608 23.5074Z" fill="#92CEFF"/>
</g>
<g style="mix-blend-mode:screen" opacity="0.77">
<path d="M19.3322 29.3652C18.9604 29.6616 18.4924 29.8072 18.1128 29.4276C17.9284 29.1965 17.7738 28.9432 17.6526 28.6736C17.6526 28.6736 17.6344 28.6736 17.637 28.6736C17.7618 29.087 17.897 29.5784 18.326 29.763C18.5165 29.8422 18.7293 29.8491 18.9246 29.7826C19.1199 29.7161 19.2842 29.5806 19.3868 29.4016C19.4076 29.3704 19.3608 29.3418 19.3322 29.3652Z" fill="#92CEFF"/>
</g>
<g style="mix-blend-mode:screen" opacity="0.77">
<path d="M21.2685 24.9347C21.2685 24.9139 21.2321 24.9009 21.2139 24.9191C21.1333 24.9997 21.0943 25.1115 21.0189 25.1973C20.9146 25.3108 20.7926 25.4065 20.6575 25.4807C20.5364 25.5666 20.3986 25.626 20.253 25.6551C20.1074 25.6843 19.9573 25.6824 19.8125 25.6497C19.8125 25.6497 19.8125 25.6497 19.8125 25.6497C19.9867 25.9097 20.4339 25.7537 20.6471 25.6497C20.8603 25.5457 21.3829 25.2233 21.2685 24.9347Z" fill="#92CEFF"/>
</g>
<g style="mix-blend-mode:screen" opacity="0.77">
<path d="M33.0397 23.3253C31.9347 23.3253 30.8869 23.8921 29.8885 23.1069C29.2775 22.6259 29.0175 22.3269 28.2245 22.1423C28.2245 22.1423 28.2115 22.1423 28.2245 22.1579C28.7704 22.391 29.2644 22.7304 29.6779 23.1563C29.9165 23.3768 30.2059 23.5348 30.5203 23.6165C31.3471 23.8349 32.2441 23.6165 33.0371 23.3565C33.0395 23.3547 33.0415 23.3525 33.0429 23.3499C33.0444 23.3473 33.0453 23.3444 33.0455 23.3415C33.0458 23.3385 33.0454 23.3355 33.0444 23.3327C33.0434 23.33 33.0418 23.3274 33.0397 23.3253Z" fill="#92CEFF"/>
</g>
<g style="mix-blend-mode:screen" opacity="0.77">
<path d="M34.1986 17.4416C33.7306 17.5586 33.2573 18.0032 32.9115 18.3256C32.6255 18.5856 32.1653 18.96 32.1523 19.3838C32.4477 19.0251 32.7656 18.6856 33.1039 18.3672C33.4367 18.0656 33.9827 17.8628 34.2323 17.4884C34.2557 17.4572 34.2246 17.4338 34.1986 17.4416Z" fill="#FF94AB"/>
</g>
<g style="mix-blend-mode:screen" opacity="0.77">
<path d="M35.0761 21.2766C34.7719 21.1518 34.3325 21.43 34.1245 21.638C34.1126 21.6521 34.1059 21.6698 34.1055 21.6882C34.1051 21.7066 34.111 21.7246 34.1222 21.7392C34.1335 21.7538 34.1494 21.7641 34.1673 21.7684C34.1852 21.7727 34.2041 21.7707 34.2207 21.7628C34.3616 21.6793 34.5154 21.6195 34.6757 21.586C34.8216 21.5635 34.9646 21.5251 35.1021 21.4716C35.1905 21.4248 35.1541 21.3104 35.0761 21.2766Z" fill="#FF94AB"/>
</g>
<g style="mix-blend-mode:screen" opacity="0.77">
<path d="M20.7627 11.9973C20.7445 11.2771 20.5521 10.5803 20.4793 9.86528C20.4793 9.85228 20.4585 9.85228 20.4585 9.86528C20.4429 10.7233 20.6015 11.5735 20.5573 12.4289C20.5261 13.0191 20.2271 13.7133 20.5833 14.2489C20.5848 14.2528 20.5871 14.2564 20.59 14.2594C20.5929 14.2625 20.5964 14.2649 20.6003 14.2666C20.6042 14.2683 20.6083 14.2692 20.6125 14.2693C20.6167 14.2694 20.6209 14.2686 20.6249 14.2671C20.6288 14.2655 20.6324 14.2632 20.6354 14.2603C20.6385 14.2574 20.6409 14.2539 20.6426 14.25C20.6443 14.2462 20.6452 14.242 20.6453 14.2378C20.6453 14.2336 20.6446 14.2294 20.6431 14.2255C20.4689 13.5131 20.7809 12.7201 20.7627 11.9973Z" fill="#FF94AB"/>
</g>
<g style="mix-blend-mode:screen" opacity="0.77">
<path d="M23.937 9.65728C23.937 9.63128 23.8876 9.65728 23.8954 9.67548C24.0351 10.1915 24.0494 10.7336 23.937 11.2563C23.937 11.2875 23.976 11.3239 24.002 11.2927C24.3426 10.8507 24.1372 10.1071 23.937 9.65728Z" fill="#FF94AB"/>
</g>
<g style="mix-blend-mode:screen" opacity="0.77">
<path d="M26.8923 8.26355C26.8923 8.26355 26.8741 8.26355 26.8715 8.26355C26.7961 8.65355 26.8377 9.06435 26.7961 9.45955C26.7268 9.96721 26.5571 10.456 26.2969 10.8974C26.2969 10.926 26.2969 10.9727 26.3411 10.9571C27.2095 10.6035 27.1497 8.97595 26.8923 8.26355Z" fill="#FF94AB"/>
</g>
<g style="mix-blend-mode:screen" opacity="0.77">
<path d="M24.9979 8.59106C24.9771 8.59106 24.9693 8.61446 24.9849 8.62486C25.2657 8.84066 25.5595 9.24106 25.3099 9.59986C25.1175 9.87546 24.7769 9.77926 24.4961 9.79226C24.8159 9.90926 25.2761 9.88586 25.4217 9.53226C25.4779 9.35068 25.4658 9.15484 25.3877 8.98154C25.3097 8.80823 25.1711 8.66937 24.9979 8.59106Z" fill="#FF94AB"/>
</g>
<g style="mix-blend-mode:screen" opacity="0.77">
<path d="M28.4516 7.91003C28.5348 8.06083 28.852 8.15703 28.8078 8.36243C28.7636 8.56783 28.4776 8.57563 28.3242 8.60163C28.4932 8.62243 28.7818 8.57303 28.8442 8.39103C28.943 8.15703 28.5868 8.03483 28.4516 7.91003Z" fill="#FF94AB"/>
</g>
<g style="mix-blend-mode:screen" opacity="0.77">
<path d="M35.5083 19.194C35.4655 18.6589 35.2952 18.1419 35.0117 17.686C35.0117 17.686 35.0117 17.686 35.0117 17.686C35.0117 17.686 35.7579 19.6386 35.3419 19.6022C35.3387 19.604 35.336 19.6067 35.3341 19.6099C35.3322 19.6131 35.3312 19.6167 35.3312 19.6204C35.3312 19.6242 35.3322 19.6278 35.3341 19.631C35.336 19.6342 35.3387 19.6368 35.3419 19.6386C35.5499 19.7556 35.5135 19.2954 35.5083 19.194Z" fill="#FF94AB"/>
</g>
<g style="mix-blend-mode:screen" opacity="0.77">
<path d="M36.1936 21.7889H36.1806C36.2404 22.0073 36.4276 22.1659 36.4042 22.4129C36.3756 22.7145 36.1104 22.6885 35.9336 22.5247C36.035 22.6729 36.2612 22.7847 36.3938 22.6105C36.5732 22.3713 36.3652 21.9813 36.1936 21.7889Z" fill="#FF94AB"/>
</g>
<g style="mix-blend-mode:screen" opacity="0.77">
<path d="M35.438 21.0686C35.217 21.2766 35.438 21.6926 35.5602 21.9032C35.5602 21.9032 35.581 21.9032 35.5784 21.9032C35.5368 21.5886 35.3002 21.391 35.438 21.0686Z" fill="#FF94AB"/>
</g>
<g style="mix-blend-mode:screen" opacity="0.77">
<path d="M34.4786 17.9355C34.4058 17.7015 34.2628 17.3297 34.4162 17.1113C34.4181 17.1088 34.419 17.1057 34.4188 17.1026C34.4185 17.0995 34.4172 17.0965 34.415 17.0943C34.4128 17.0921 34.4098 17.0908 34.4067 17.0905C34.4036 17.0903 34.4005 17.0912 34.398 17.0931C34.2186 17.2283 34.281 17.5221 34.3226 17.7119C34.4179 18.1573 34.5691 18.5888 34.7724 18.9963C34.7753 18.9996 34.7792 19.002 34.7834 19.0029C34.7877 19.0039 34.7922 19.0035 34.7963 19.0018C34.8003 19 34.8037 18.9971 34.806 18.9933C34.8082 18.9895 34.8092 18.9851 34.8088 18.9807C34.7126 18.6271 34.5826 18.2865 34.4786 17.9355Z" fill="#FF94AB"/>
</g>
<g style="mix-blend-mode:screen" opacity="0.77">
<path d="M27.6552 8.41696C27.4654 8.32076 26.6854 7.93336 27.0234 7.63696C27.0416 7.63696 27.0234 7.60056 27.0052 7.60316C26.7894 7.65776 26.8778 7.90736 26.9688 8.03476C27.1418 8.24314 27.3833 8.38321 27.65 8.42996C27.65 8.42996 27.663 8.42216 27.6552 8.41696Z" fill="#FF94AB"/>
</g>
<g style="mix-blend-mode:screen" opacity="0.77">
<path d="M24.2634 8.33121C23.694 8.28441 23.6498 9.39461 24.1334 9.52981C24.1334 9.52981 24.149 9.52981 24.1334 9.51421C23.7798 9.17621 23.7174 8.50021 24.2634 8.33121Z" fill="#FF94AB"/>
</g>
<g style="mix-blend-mode:screen" opacity="0.77">
<path d="M20.4663 9.65729C20.2297 9.56109 20.3961 9.31669 20.4663 9.19969C20.5969 8.9961 20.7827 8.8338 21.0019 8.73169C21.0019 8.73169 21.0019 8.73169 21.0019 8.73169C20.6977 8.75509 20.3857 9.13469 20.2973 9.41029C20.2089 9.68589 20.6223 9.83149 20.8173 9.64169C20.8173 9.64169 20.8173 9.61829 20.8173 9.62349C20.7083 9.67685 20.5836 9.68886 20.4663 9.65729Z" fill="#FF94AB"/>
</g>
<g style="mix-blend-mode:screen" opacity="0.77">
<path d="M18.3108 11.6462C17.9858 11.42 17.4242 11.693 17.1616 11.9062C16.7524 12.2461 16.4868 12.7281 16.418 13.2556C16.418 13.2556 16.4336 13.2556 16.4336 13.2556C16.5376 12.382 17.4242 11.5682 18.3082 11.6748C18.3186 11.6774 18.3212 11.654 18.3108 11.6462Z" fill="#92CEFF"/>
</g>
<g style="mix-blend-mode:screen" opacity="0.77">
<path d="M22.4327 14.1422C21.9855 14.1084 21.6241 14.5608 21.4967 14.9482C21.405 15.2558 21.3771 15.5789 21.4146 15.8977C21.4522 16.2164 21.5544 16.5242 21.7151 16.802C21.7175 16.8079 21.7221 16.8126 21.728 16.815C21.7338 16.8174 21.7404 16.8174 21.7463 16.815C21.7521 16.8126 21.7568 16.808 21.7592 16.8021C21.7617 16.7963 21.7617 16.7897 21.7593 16.7838C21.5643 15.9128 21.3043 14.5166 22.4353 14.163C22.4483 14.1604 22.4457 14.1448 22.4327 14.1422Z" fill="#92CEFF"/>
</g>
<g style="mix-blend-mode:screen" opacity="0.77">
<path d="M23.6776 15.1925C23.9168 15.9725 23.5424 16.8019 23.1576 17.4493C23.1561 17.4531 23.1558 17.4573 23.1569 17.4612C23.1581 17.4651 23.1604 17.4685 23.1637 17.4709C23.167 17.4733 23.171 17.4746 23.1751 17.4744C23.1792 17.4743 23.1831 17.4727 23.1862 17.4701C23.5145 17.1092 23.7218 16.6546 23.779 16.1701C23.8414 15.8633 23.8804 15.4603 23.6776 15.1925Z" fill="#92CEFF"/>
</g>
<g style="mix-blend-mode:screen" opacity="0.77">
<path d="M22.138 36.7414C21.6492 35.6 20.9576 34.6614 20.695 33.403C20.5325 32.742 20.5325 32.0515 20.695 31.3906C20.9004 30.6678 21.3658 30.2726 21.9352 29.8306C21.9373 29.8276 21.9386 29.8241 21.9387 29.8204C21.9388 29.8168 21.9378 29.8132 21.9358 29.8101C21.9339 29.807 21.931 29.8046 21.9277 29.8031C21.9243 29.8017 21.9206 29.8013 21.917 29.802C20.5468 30.1608 20.2192 31.7494 20.357 32.9688C20.4948 34.1882 21.0408 36.0368 22.0496 36.8168C22.0606 36.8227 22.0732 36.8251 22.0857 36.8238C22.0982 36.8224 22.11 36.8174 22.1195 36.8092C22.129 36.8011 22.1359 36.7903 22.1392 36.7782C22.1425 36.7661 22.1421 36.7532 22.138 36.7414Z" fill="#FF94AB"/>
</g>
<g style="mix-blend-mode:screen" opacity="0.77">
<path d="M20.6165 23.8663C20.1534 23.7788 19.6759 23.8056 19.2255 23.9443C18.7835 24.0925 18.7627 24.1679 18.2297 24.1731C17.6083 24.1731 17.4731 24.0431 17.1507 23.5335C16.7685 22.9303 16.5319 22.3713 15.7675 22.2335C15.7675 22.2335 15.7545 22.2335 15.7675 22.2465C16.8647 22.5065 16.8075 23.7337 17.6603 24.2797C17.7937 24.3691 17.9464 24.4259 18.1058 24.4453C18.2653 24.4647 18.4271 24.4463 18.5781 24.3915C18.9083 24.3031 19.1891 24.0899 19.5297 24.0171C19.8703 23.9443 20.2603 23.9729 20.6217 23.9157C20.6249 23.9153 20.6281 23.9143 20.631 23.9128C20.6338 23.9112 20.6364 23.9091 20.6384 23.9066C20.6405 23.9041 20.642 23.9011 20.6429 23.898C20.6438 23.8949 20.6441 23.8916 20.6438 23.8884C20.6435 23.8851 20.6425 23.882 20.6409 23.8791C20.6394 23.8762 20.6373 23.8737 20.6347 23.8717C20.6322 23.8696 20.6293 23.8681 20.6261 23.8671C20.623 23.8662 20.6197 23.8659 20.6165 23.8663Z" fill="#FF94AB"/>
</g>
<g style="mix-blend-mode:screen" opacity="0.77">
<path d="M31.9811 22.9926C31.5781 22.7872 31.4039 22.3998 31.0529 22.1424C30.7019 21.885 30.3457 21.9084 30.0129 21.7498C29.4591 21.4898 28.8611 19.831 29.8595 19.9168C29.8777 19.9168 29.8881 19.8882 29.8595 19.8804C28.9885 19.4878 29.1133 20.8502 29.2953 21.2948C29.3738 21.5004 29.5033 21.6826 29.6716 21.8245C29.8398 21.9664 30.0414 22.0632 30.2573 22.106C30.5211 22.1605 30.7713 22.2675 30.9931 22.4206C31.1387 22.5402 31.2297 22.7144 31.3675 22.8418C31.4444 22.9196 31.5365 22.981 31.6379 23.0221C31.7394 23.0633 31.8482 23.0833 31.9577 23.081C31.9683 23.0814 31.9788 23.0782 31.9875 23.0719C31.9961 23.0656 32.0022 23.0565 32.005 23.0462C32.0077 23.0359 32.0068 23.0249 32.0025 23.0152C31.9981 23.0054 31.9906 22.9974 31.9811 22.9926Z" fill="#FF94AB"/>
</g>
<g style="mix-blend-mode:screen" opacity="0.77">
<path d="M19.2276 27.1136C19.2239 27.1053 19.2179 27.0981 19.2103 27.0932C19.2027 27.0882 19.1938 27.0855 19.1847 27.0855C19.1756 27.0855 19.1666 27.0882 19.159 27.0932C19.1514 27.0981 19.1454 27.1053 19.1418 27.1136C19.017 27.566 18.913 28.177 18.3852 28.3252C17.9952 28.437 17.6312 28.1354 17.2386 28.3044C17.2204 28.3044 17.2386 28.3434 17.2386 28.3434C17.7846 28.3434 18.2656 28.7568 18.7596 28.3434C19.0742 28.0938 19.4278 27.5166 19.2276 27.1136Z" fill="#FF94AB"/>
</g>
<g style="mix-blend-mode:screen" opacity="0.77">
<path d="M33.9284 26.2166C34.0943 26.2461 34.2648 26.238 34.4272 26.193C34.5896 26.148 34.7399 26.0672 34.867 25.9566C34.867 25.9566 34.867 25.941 34.867 25.9566C34.1104 26.3726 33.2472 25.7954 32.4958 25.6264C32.0653 25.5271 31.6159 25.5468 31.1958 25.6836C31.0502 25.5328 30.7148 25.564 30.5328 25.6108C29.9634 25.759 29.3212 26.2478 28.9 25.5562C28.9 25.5562 28.8766 25.5562 28.8844 25.5562C28.9583 25.7211 29.0903 25.8531 29.2553 25.9269C29.4202 26.0007 29.6066 26.0113 29.7788 25.9566C30.0206 25.9072 30.2494 25.8058 30.4886 25.7486C30.6221 25.7059 30.7637 25.6952 30.902 25.7174C30.9336 25.7272 30.9641 25.7402 30.993 25.7564C30.0674 26.1828 30.213 27.085 30.8942 27.7142L30.98 27.7896C30.9734 27.7914 30.9675 27.7951 30.9629 27.8001C30.9583 27.8052 30.9552 27.8114 30.954 27.8182C30.8734 28.2082 31.214 28.45 31.3622 28.7724C31.6222 29.2924 31.1022 29.6122 31.149 30.114C31.149 30.1374 31.1906 30.1478 31.1958 30.114C31.2582 29.7032 31.643 29.4354 31.6144 29.0012C31.5858 28.567 31.1776 28.2706 31.0632 27.852C31.5442 28.2342 32.1526 28.5046 32.3632 29.1182C32.605 29.8176 32.3268 30.5976 32.4594 31.3204C32.5764 31.96 32.9586 32.3604 33.4058 32.792C33.5031 32.8885 33.5943 32.9909 33.6788 33.0988C33.658 33.0988 33.6346 33.1144 33.645 33.1378C33.8712 33.6942 33.7932 34.0062 33.5202 34.5314C33.3557 34.8196 33.2505 35.1378 33.2108 35.4674H33.229C33.2758 34.872 34.0844 34.131 33.9414 33.4992C34.3314 34.2324 34.282 35.0384 33.9414 35.9172C33.9414 35.938 33.97 35.9536 33.9778 35.9328C34.4978 34.8252 34.4042 33.7462 33.5514 32.8336C32.826 32.0536 32.4776 31.5024 32.5608 30.4156C32.579 30.1712 32.6076 29.9268 32.6128 29.6902C32.6791 29.8414 32.7667 29.9823 32.8728 30.1088C32.9802 30.2161 33.0977 30.3128 33.2238 30.3974C33.3454 30.4768 33.4444 30.5863 33.5114 30.7152C33.5783 30.844 33.6109 30.988 33.606 31.1332C33.606 31.1332 33.6242 31.1488 33.6268 31.1332C33.6663 30.9849 33.6593 30.8281 33.6068 30.6839C33.5542 30.5397 33.4587 30.4152 33.333 30.3272C33.1058 30.169 32.9159 29.9631 32.7766 29.724C32.6986 29.5706 32.6544 29.412 32.5816 29.2664C32.5534 29.0946 32.4954 28.9292 32.41 28.7776C32.1708 28.3668 31.747 28.1172 31.37 27.8364C30.9254 27.501 30.486 27.1162 30.629 26.5364C30.772 25.9566 31.3362 25.811 31.8718 25.7824C32.4074 25.7538 33.1198 26.0996 33.7646 26.2062C33.6329 26.3572 33.5105 26.5161 33.398 26.682C33.2986 26.8096 33.2529 26.971 33.2706 27.1318C33.3129 27.3306 33.4097 27.5138 33.5502 27.6608C33.6907 27.8077 33.8694 27.9127 34.0662 27.9638C34.0697 27.9638 34.073 27.9624 34.0754 27.9599C34.0778 27.9575 34.0792 27.9542 34.0792 27.9508C34.0792 27.9473 34.0778 27.944 34.0754 27.9416C34.073 27.9391 34.0697 27.9378 34.0662 27.9378C33.6606 27.7012 33.1198 27.189 33.5462 26.7132C33.6736 26.5572 33.8894 26.4142 33.9284 26.2166Z" fill="#EEC39C"/>
</g>
<g style="mix-blend-mode:screen" opacity="0.77">
<path d="M28.8981 37.5578C28.7269 37.3062 28.4806 37.1151 28.1944 37.0119C27.9081 36.9087 27.5966 36.8987 27.3043 36.9832C26.6777 37.1366 26.1603 37.2432 25.5649 36.8844C25.3017 36.7186 25.0708 36.5062 24.8837 36.2578C24.8268 36.0105 24.7394 35.7712 24.6237 35.5454C24.3299 35.0254 23.8281 34.7446 23.3497 34.4144C22.1121 33.5564 21.5531 32.4384 21.7247 31.128C21.7478 31.3776 21.8278 31.6187 21.9587 31.8326C22.3019 32.3526 23.0975 32.4644 23.6435 32.6126V32.5892C23.1443 32.35 22.3877 32.233 22.0835 31.739C21.8866 31.3461 21.8114 30.9034 21.8677 30.4676C21.9119 30.3246 21.9587 30.1816 22.0185 30.0334C22.4657 28.9128 23.1807 27.6336 22.9181 26.3934C22.9181 26.3934 22.9025 26.3934 22.8999 26.3934C22.3799 28.8894 20.0113 31.9782 22.5827 34.144C22.904 34.3903 23.2381 34.6194 23.5837 34.8304C23.5629 34.8281 23.542 34.8281 23.5213 34.8304C23.5146 34.8322 23.5083 34.8353 23.5028 34.8396C23.4973 34.8438 23.4927 34.8491 23.4894 34.8552C23.486 34.8613 23.4838 34.8679 23.483 34.8748C23.4823 34.8817 23.4829 34.8887 23.4849 34.8954C23.571 35.1482 23.571 35.4225 23.4849 35.6754C23.4163 35.8681 23.382 36.0714 23.3835 36.276C23.418 36.5196 23.5125 36.7507 23.6587 36.9487C23.8049 37.1466 23.998 37.305 24.2207 37.4096C24.2207 37.4096 24.2337 37.4096 24.2207 37.4096C23.9191 37.1054 23.5681 36.679 23.5811 36.2188C23.6321 35.9447 23.7052 35.6751 23.7995 35.4128C23.8344 35.2754 23.8344 35.1315 23.7995 34.9942C24.0488 35.1731 24.2615 35.3981 24.4261 35.6572C24.8057 36.2838 24.8265 37.056 25.1333 37.7164C25.4689 38.3607 25.9981 38.8835 26.6465 39.2114C27.0911 39.4294 27.4907 39.7293 27.8243 40.0954C28.0174 40.3655 28.2486 40.6064 28.5107 40.8104C28.5575 40.8416 28.6043 40.774 28.5679 40.735C28.1077 40.2358 27.8087 39.6586 27.2159 39.3076C26.3293 38.7876 25.5285 38.356 25.1567 37.3212C25.0705 37.0583 24.9984 36.791 24.9409 36.5204C25.177 36.8463 25.5006 37.0987 25.8743 37.2484C26.1133 37.345 26.3711 37.3859 26.6283 37.368C27.5201 37.2874 27.9985 36.8298 28.8643 37.5916C28.8687 37.5961 28.8748 37.5986 28.8812 37.5986C28.8875 37.5986 28.8936 37.5961 28.8981 37.5916C28.9025 37.5871 28.9051 37.581 28.9051 37.5747C28.9051 37.5683 28.9025 37.5623 28.8981 37.5578Z" fill="#EEC39C"/>
</g>
<g style="mix-blend-mode:screen" opacity="0.77">
<path d="M22.5452 27.8754C22.1941 28.5704 21.9128 29.2985 21.7054 30.049C21.5 30.7094 21.5468 31.3334 21.4844 32.012C21.4844 32.0276 21.5026 32.0276 21.5078 32.012C21.747 31.4218 21.6612 30.712 21.8588 30.088C22.0954 29.3522 22.358 28.6242 22.5556 27.878C22.5582 27.8754 22.5478 27.8702 22.5452 27.8754Z" fill="#FF94AB"/>
</g>
<g style="mix-blend-mode:screen" opacity="0.77">
<path d="M23.6981 34.9189C23.6487 35.4649 23.1989 36.1773 23.5421 36.6973C23.5442 36.7018 23.548 36.7052 23.5526 36.7069C23.5572 36.7087 23.5623 36.7085 23.5668 36.7064C23.5713 36.7043 23.5748 36.7006 23.5765 36.6959C23.5782 36.6913 23.578 36.6862 23.5759 36.6817C23.477 36.3452 23.4851 35.9863 23.5993 35.6547C23.68 35.4182 23.7135 35.1682 23.6981 34.9189Z" fill="#FF94AB"/>
</g>
<g style="mix-blend-mode:screen" opacity="0.77">
<path d="M26.846 39.2349C26.4794 38.9489 26.066 38.7747 25.7384 38.4185C25.2886 37.9141 25.2184 37.3005 25.0078 36.6869C25.1404 37.3161 25.2002 37.9141 25.6162 38.4315C25.9275 38.827 26.3492 39.1211 26.8278 39.2765C26.8434 39.2973 26.8668 39.2505 26.846 39.2349Z" fill="#FF94AB"/>
</g>
<g style="mix-blend-mode:screen" opacity="0.77">
<path d="M22.7402 34.1882C22.5088 33.9022 22.2202 33.6942 21.9966 33.3874C21.7827 33.0933 21.6257 32.7617 21.5338 32.4098H21.5156C21.6092 33.1014 22.0356 33.9204 22.709 34.2298C22.7145 34.2339 22.7215 34.2357 22.7283 34.2347C22.7351 34.2338 22.7413 34.2301 22.7454 34.2246C22.7496 34.2191 22.7513 34.2121 22.7504 34.2053C22.7494 34.1985 22.7457 34.1923 22.7402 34.1882Z" fill="#FF94AB"/>
</g>
<g style="mix-blend-mode:screen" opacity="0.77">
<path d="M28.0936 37.1184C27.7946 36.9182 27.5086 36.9806 27.1784 37.0898C26.9169 37.192 26.6379 37.2416 26.3573 37.2358C26.0767 37.23 25.8 37.1689 25.543 37.056C25.8386 37.2701 26.1946 37.3848 26.5596 37.3836C26.7308 37.3713 26.8992 37.3327 27.0588 37.2692C27.3827 37.1498 27.7316 37.1149 28.0728 37.1678C28.0786 37.168 28.0844 37.1665 28.0893 37.1634C28.0942 37.1603 28.0981 37.1557 28.1003 37.1503C28.1026 37.1449 28.1032 37.139 28.1019 37.1333C28.1007 37.1276 28.0978 37.1224 28.0936 37.1184Z" fill="#FF94AB"/>
</g>
<g style="mix-blend-mode:screen" opacity="0.77">
<path d="M30.8511 25.863C30.8511 25.863 30.8511 25.8396 30.8511 25.8474C30.3961 26.1646 30.0399 27.2098 30.7887 27.4334C30.8277 27.4334 30.8511 27.3944 30.8277 27.3658C30.6223 27.124 30.4481 26.955 30.4949 26.6092C30.5418 26.3322 30.6652 26.0737 30.8511 25.863Z" fill="#FF94AB"/>
</g>
<g style="mix-blend-mode:screen" opacity="0.77">
<path d="M31.1641 28.3591C31.3093 28.5379 31.394 28.7582 31.4059 28.9883C31.4059 29.1807 31.3435 29.3627 31.3383 29.5525C31.3386 29.559 31.341 29.5653 31.3451 29.5704C31.3492 29.5756 31.3549 29.5793 31.3612 29.581C31.3676 29.5827 31.3743 29.5824 31.3804 29.5801C31.3866 29.5778 31.3918 29.5736 31.3955 29.5681C31.4985 29.3699 31.5316 29.1428 31.4896 28.9234C31.4477 28.704 31.333 28.5052 31.1641 28.3591Z" fill="#FF94AB"/>
</g>
<g style="mix-blend-mode:screen" opacity="0.77">
<path d="M32.1016 28.5332C32.2102 28.8667 32.2919 29.2084 32.346 29.555C32.3484 29.8444 32.3744 30.1331 32.424 30.4182C32.4256 30.4228 32.4285 30.4268 32.4325 30.4296C32.4365 30.4324 32.4412 30.4339 32.4461 30.4339C32.4509 30.4339 32.4557 30.4324 32.4596 30.4296C32.4636 30.4268 32.4666 30.4228 32.4682 30.4182C32.5359 30.0954 32.5383 29.7624 32.4753 29.4387C32.4124 29.1149 32.2853 28.8071 32.1016 28.5332Z" fill="#FF94AB"/>
</g>
<g style="mix-blend-mode:screen" opacity="0.77">
<path d="M33.7799 33.3433C33.7761 33.3376 33.7706 33.3333 33.7642 33.3311C33.7578 33.3288 33.7509 33.3287 33.7444 33.3308C33.7379 33.3328 33.7323 33.3369 33.7284 33.3425C33.7245 33.348 33.7225 33.3547 33.7227 33.3615C33.7505 33.472 33.7653 33.5855 33.7669 33.6995C33.7669 33.8035 33.7435 33.9049 33.7513 34.0089C33.7536 34.0138 33.7572 34.0181 33.7618 34.021C33.7664 34.024 33.7718 34.0255 33.7773 34.0255C33.7827 34.0255 33.7881 34.024 33.7927 34.021C33.7973 34.0181 33.801 34.0138 33.8033 34.0089C33.9385 33.8373 33.8371 33.5331 33.7799 33.3433Z" fill="#FF94AB"/>
</g>
<g style="mix-blend-mode:screen" opacity="0.77">
<path d="M33.4996 26.6273C33.2916 26.7183 33.1798 27.1785 33.406 27.3059C33.4216 27.3059 33.445 27.3059 33.4372 27.2825C33.3821 27.1793 33.3586 27.062 33.3697 26.9455C33.3808 26.829 33.426 26.7183 33.4996 26.6273Z" fill="#FF94AB"/>
</g>
<g style="mix-blend-mode:multiply" opacity="0.36">
<path d="M23.0157 26.2685H23.0001C22.9143 27.0485 23.0001 27.8857 22.7219 28.6501C22.5191 29.2169 22.1239 29.6901 21.9289 30.2647C21.6975 30.9563 21.8093 31.6999 22.5243 32.0197C22.5477 32.0197 22.5763 32.0015 22.5529 31.9807C21.4271 31.0213 22.3475 29.9553 22.7947 28.9231C23.1613 28.0807 23.0807 27.1629 23.0157 26.2685Z" fill="#A12252"/>
</g>
<g style="mix-blend-mode:multiply" opacity="0.36">
<path d="M25.0628 36.6973C25.003 37.5267 25.5828 38.2313 26.2172 38.7019C26.55 38.9437 26.927 39.1205 27.2572 39.3571C27.8052 39.7827 28.2879 40.2864 28.6899 40.8521C28.6899 40.8521 28.7106 40.8521 28.708 40.8521C28.019 38.9827 25.2578 38.8423 25.0628 36.6973Z" fill="#A12252"/>
</g>
<g style="mix-blend-mode:multiply" opacity="0.36">
<path d="M24.2616 37.3681C23.8898 36.9885 23.687 36.6609 23.7416 36.1175C23.8059 35.7458 23.8355 35.3689 23.83 34.9917C23.6974 35.8107 23.3724 36.8897 24.2486 37.4071C24.2527 37.4064 24.2566 37.4045 24.2598 37.4018C24.263 37.399 24.2653 37.3955 24.2667 37.3915C24.268 37.3875 24.2682 37.3832 24.2673 37.3791C24.2664 37.375 24.2645 37.3712 24.2616 37.3681Z" fill="#A12252"/>
</g>
<g style="mix-blend-mode:multiply" opacity="0.36">
<path d="M25.4883 36.5725C25.8471 36.9755 26.2683 37.0561 26.7883 37.0405C27.6957 37.0119 28.3847 36.8013 29.0009 37.6567C29.0217 37.6853 29.0789 37.6697 29.0633 37.6307C28.4679 36.0967 26.4867 37.4903 25.4883 36.5725Z" fill="#A12252"/>
</g>
<g style="mix-blend-mode:multiply" opacity="0.36">
<path d="M33.9485 32.9142C33.6885 32.5216 33.3609 32.2018 33.0775 31.83C32.6381 31.2528 32.6849 30.6522 32.5861 29.9866C32.5653 30.738 32.4977 31.2866 32.9631 31.9236C33.6963 32.9298 34.5881 33.7436 34.2137 35.106C34.2111 35.1163 34.2123 35.1271 34.217 35.1366C34.2217 35.146 34.2297 35.1535 34.2394 35.1576C34.2492 35.1617 34.2601 35.1621 34.2702 35.1589C34.2802 35.1556 34.2888 35.1489 34.2943 35.1398C34.6791 34.3884 34.3853 33.5772 33.9485 32.9142Z" fill="#A12252"/>
</g>
<g style="mix-blend-mode:multiply" opacity="0.36">
<path d="M32.5379 28.8166C32.3195 28.3434 31.8749 28.1146 31.4693 27.8182C31.1339 27.5712 30.7179 27.1994 30.7387 26.734C30.7673 26.1542 31.3653 25.954 31.8255 25.8448C31.2093 25.7876 30.5021 26.2192 30.6035 26.9134C30.7361 27.8364 31.9347 28.242 32.4859 28.866C32.5015 28.8972 32.5379 28.8504 32.5379 28.8166Z" fill="#A12252"/>
</g>
<g style="mix-blend-mode:multiply" opacity="0.36">
<path d="M34.8068 26.1022C34.5273 26.0597 34.2421 26.1234 34.0072 26.2808C33.7724 26.4382 33.605 26.6778 33.538 26.9524C33.4184 27.4724 33.798 27.8312 34.1958 28.0938C34.2166 28.0938 34.2348 28.0808 34.227 28.0626C34.0502 27.6778 33.5562 27.5426 33.6446 27.0408C33.7538 26.396 34.2686 26.2374 34.8068 26.1022Z" fill="#A12252"/>
</g>
<g style="mix-blend-mode:multiply" opacity="0.36">
<path d="M31.6606 29.0117C31.6434 28.826 31.5884 28.6458 31.499 28.4821C31.4095 28.3185 31.2876 28.1748 31.1406 28.0601C31.1406 28.0601 31.1406 28.0601 31.1406 28.0601C31.4136 28.4111 31.6814 28.9441 31.4838 29.3835C31.385 29.5993 31.1952 29.7813 31.2446 30.0309C31.2469 30.0358 31.2506 30.0401 31.2552 30.043C31.2598 30.046 31.2651 30.0475 31.2706 30.0475C31.2761 30.0475 31.2815 30.046 31.2861 30.043C31.2907 30.0401 31.2943 30.0358 31.2966 30.0309C31.437 29.7397 31.697 29.3679 31.6606 29.0117Z" fill="#A12252"/>
</g>
<g style="mix-blend-mode:multiply" opacity="0.36">
<path d="M17.5761 28.9205C17.5605 29.3599 17.6463 29.7993 17.6281 30.2387C17.6421 30.4847 17.5611 30.7267 17.4019 30.9147C17.1705 31.1513 16.8429 31.1279 16.5439 31.2007C16.5179 31.2007 16.5153 31.2527 16.5439 31.2579C16.7735 31.3105 17.0143 31.2777 17.2214 31.1658C17.4286 31.0538 17.5879 30.8703 17.6697 30.6495C17.8231 30.0983 17.6021 29.4743 17.5761 28.9205Z" fill="#A12252"/>
</g>
<g style="mix-blend-mode:multiply" opacity="0.36">
<path d="M19.934 25.928C19.934 25.928 19.934 25.928 19.9184 25.928C19.531 27.1474 20.3266 28.788 19.219 29.711C19.2117 29.7152 19.2064 29.722 19.2042 29.7301C19.202 29.7381 19.2031 29.7467 19.2073 29.7539C19.2114 29.7612 19.2182 29.7665 19.2263 29.7687C19.2343 29.7709 19.2429 29.7698 19.2502 29.7656C20.5918 29.4172 19.7442 26.8536 19.934 25.928Z" fill="#A12252"/>
</g>
<g style="mix-blend-mode:multiply" opacity="0.36">
<path d="M21.6036 26.9264C20.9198 26.7626 20.5948 27.3008 20.5116 27.9014C20.3946 28.7386 20.1216 30.9044 18.7774 30.3636C18.7644 30.3636 18.7592 30.3636 18.7774 30.3818C19.5002 30.9148 20.1294 30.0386 20.405 29.4354C20.5494 29.0985 20.6372 28.7401 20.665 28.3746C20.6712 28.1186 20.7052 27.8641 20.7664 27.6154C20.912 27.176 21.2006 27.0954 21.6036 26.981C21.6192 26.9732 21.6322 26.9316 21.6036 26.9264Z" fill="#A12252"/>
</g>
<g style="mix-blend-mode:multiply" opacity="0.36">
<path d="M22.9578 24.3783C22.625 24.5213 22.6068 24.8281 22.6484 25.1583C22.6977 25.39 22.7239 25.6261 22.7264 25.8629C22.6783 26.1419 22.572 26.4077 22.4144 26.6429C22.4102 26.6516 22.4091 26.6614 22.4113 26.6708C22.4135 26.6802 22.4189 26.6885 22.4266 26.6944C22.4343 26.7002 22.4437 26.7032 22.4534 26.7028C22.463 26.7024 22.4722 26.6987 22.4794 26.6923C22.6107 26.5958 22.7185 26.4708 22.7946 26.3267C22.8707 26.1827 22.9131 26.0232 22.9188 25.8603C22.9474 25.3403 22.6224 24.8489 22.9812 24.3939C22.9786 24.3861 22.9682 24.3731 22.9578 24.3783Z" fill="#A12252"/>
</g>
<g style="mix-blend-mode:multiply" opacity="0.36">
<path d="M23.6971 23.6712C23.6763 23.4424 23.4631 23.1824 23.2109 23.2682C23.2109 23.2682 23.2109 23.2682 23.2109 23.2838C23.3955 23.3982 23.5827 23.4632 23.5619 23.7232C23.5537 23.8165 23.5214 23.906 23.4683 23.9832C23.4111 24.0638 23.3201 24.1106 23.2707 24.1964C23.2551 24.2224 23.2707 24.2458 23.3019 24.251C23.5671 24.2822 23.7205 23.8792 23.6971 23.6712Z" fill="#A12252"/>
</g>
<g style="mix-blend-mode:multiply" opacity="0.36">
<path d="M20.7011 23.7831C20.7011 23.7831 20.6881 23.7831 20.7011 23.7831C20.9611 24.0431 21.3147 24.2693 21.3641 24.6723C21.3827 24.8745 21.3355 25.0773 21.2297 25.2506C21.1238 25.4239 20.9649 25.5585 20.7765 25.6343C20.7479 25.6473 20.7635 25.6889 20.7765 25.6889C21.2081 25.7149 21.4707 25.2339 21.4915 24.8543C21.5331 24.3031 21.0989 24.0587 20.7011 23.7831Z" fill="#A12252"/>
</g>
<g style="mix-blend-mode:multiply" opacity="0.36">
<path d="M21.9078 8.61719C21.666 8.49239 21.2526 8.72899 21.0446 8.84859C20.7515 8.98437 20.5236 9.22999 20.4102 9.53239C20.4102 9.57139 20.457 9.58699 20.4726 9.54799C20.6179 9.25634 20.8675 9.02992 21.172 8.91359C21.3111 8.84251 21.4576 8.78672 21.6088 8.74719C21.7116 8.73387 21.8122 8.70676 21.9078 8.66659C21.9121 8.66407 21.9156 8.66046 21.9181 8.65613C21.9206 8.6518 21.9219 8.64689 21.9219 8.64189C21.9219 8.63689 21.9206 8.63198 21.9181 8.62765C21.9156 8.62331 21.9121 8.61971 21.9078 8.61719Z" fill="#A12252"/>
</g>
<g style="mix-blend-mode:multiply" opacity="0.36">
<path d="M24.9188 8.60158C24.8434 8.38838 24.5054 8.34158 24.3156 8.38838C24.2211 8.41928 24.136 8.47366 24.0682 8.54641C24.0005 8.61917 23.9523 8.70793 23.9282 8.80438C23.9005 8.90228 23.895 9.00514 23.9121 9.10544C23.9292 9.20575 23.9684 9.30097 24.027 9.38418C24.0935 9.47729 24.1871 9.54752 24.2951 9.58523C24.4032 9.62294 24.5202 9.62628 24.6302 9.59478C24.4612 9.49598 24.274 9.48558 24.1492 9.31658C24.1033 9.25122 24.0732 9.17617 24.061 9.09727C24.0488 9.01837 24.055 8.93772 24.079 8.86158C24.0952 8.78999 24.1292 8.72364 24.1778 8.66865C24.2264 8.61366 24.2881 8.57182 24.3572 8.54698C24.5574 8.48458 24.6978 8.64838 24.8772 8.64578C24.8832 8.64764 24.8897 8.64777 24.8958 8.64616C24.9019 8.64455 24.9074 8.64125 24.9118 8.63665C24.9161 8.63204 24.919 8.62632 24.9203 8.62012C24.9215 8.61392 24.921 8.6075 24.9188 8.60158Z" fill="#A12252"/>
</g>
<g style="mix-blend-mode:multiply" opacity="0.36">
<path d="M28.0713 7.86071C27.8867 7.70991 26.9767 7.46291 27.0469 7.92831C27.0963 8.26631 27.5383 8.26371 27.7957 8.27931V8.25591C27.6189 8.20651 27.2913 8.15711 27.1925 7.98291C27.0937 7.80871 27.4525 7.79051 27.5643 7.81131C27.7206 7.86516 27.8831 7.89922 28.0479 7.91271C28.0739 7.91011 28.0947 7.87891 28.0713 7.86071Z" fill="#A12252"/>
</g>
<g style="mix-blend-mode:multiply" opacity="0.36">
<path d="M34.5477 17.2492C34.54 17.2428 34.5309 17.2382 34.5211 17.236C34.5114 17.2338 34.5012 17.234 34.4915 17.2366C34.4818 17.2391 34.4729 17.2439 34.4655 17.2507C34.458 17.2574 34.4523 17.2658 34.4489 17.2752C34.4042 17.4475 34.4152 17.6295 34.4801 17.7952C34.5144 17.9613 34.5945 18.1144 34.7115 18.2372C34.7245 18.2372 34.7401 18.2372 34.7401 18.219C34.7243 18.0769 34.681 17.9391 34.6127 17.8134C34.5571 17.6803 34.5331 17.5362 34.5425 17.3922C34.7091 17.6114 34.852 17.8476 34.9689 18.0968C34.9689 18.0968 34.9897 18.0968 34.9871 18.0968C34.9443 17.7716 34.7888 17.4716 34.5477 17.2492Z" fill="#A12252"/>
</g>
<g style="mix-blend-mode:multiply" opacity="0.36">
<path d="M35.5076 21.1803C35.4945 21.1771 35.4807 21.1791 35.469 21.1859C35.4574 21.1927 35.4489 21.2038 35.4452 21.2167C35.4153 21.3682 35.4288 21.525 35.4842 21.6691C35.5115 21.8043 35.5839 21.9263 35.6896 22.0149C35.6936 22.0172 35.6982 22.0184 35.7028 22.0184C35.7075 22.0184 35.712 22.0171 35.716 22.0147C35.72 22.0123 35.7232 22.0089 35.7255 22.0048C35.7277 22.0008 35.7288 21.9962 35.7286 21.9915C35.7077 21.8751 35.6664 21.7633 35.6064 21.6613C35.5624 21.5433 35.5412 21.418 35.544 21.2921C35.6471 21.3197 35.7418 21.3724 35.8196 21.4455C35.8206 21.4471 35.8219 21.4484 35.8235 21.4494C35.825 21.4504 35.8267 21.4511 35.8285 21.4515C35.8303 21.4519 35.8322 21.4519 35.834 21.4515C35.8358 21.4512 35.8376 21.4504 35.8391 21.4494C35.8406 21.4484 35.842 21.4471 35.843 21.4455C35.844 21.444 35.8447 21.4423 35.8451 21.4405C35.8454 21.4387 35.8454 21.4368 35.8451 21.435C35.8447 21.4332 35.844 21.4315 35.843 21.4299C35.8109 21.3647 35.7638 21.308 35.7055 21.2646C35.6471 21.2212 35.5793 21.1923 35.5076 21.1803Z" fill="#A12252"/>
</g>
<g style="mix-blend-mode:multiply" opacity="0.36">
<path d="M35.7949 22.5687C35.6427 22.5686 35.4912 22.5905 35.3451 22.6337C35.0922 22.6949 34.8256 22.6636 34.5938 22.5453C34.5938 22.5453 34.5938 22.5453 34.5938 22.5453C34.7462 22.6799 34.9442 22.7515 35.1476 22.7455C35.3747 22.7529 35.6003 22.7056 35.8054 22.6077C35.8184 22.6025 35.8183 22.5713 35.7949 22.5687Z" fill="#A12252"/>
</g>
<g style="mix-blend-mode:multiply" opacity="0.36">
<path d="M35.1637 19.4619C34.8127 19.3345 34.5579 19.4827 34.2719 19.6933C33.6895 20.1249 33.2449 20.3849 32.4961 20.4031C32.4961 20.4031 32.4961 20.4031 32.4961 20.4187C33.4035 21.0219 34.3525 19.7583 35.1663 19.5659C35.1772 19.5621 35.1867 19.5549 35.1933 19.5454C35.1999 19.5359 35.2033 19.5245 35.203 19.513C35.2027 19.5014 35.1987 19.4902 35.1917 19.481C35.1846 19.4718 35.1748 19.4652 35.1637 19.4619Z" fill="#A12252"/>
</g>
<g style="mix-blend-mode:multiply" opacity="0.36">
<path d="M28.9805 12.0543C28.3227 11.0507 27.8391 9.90933 28.5671 8.82513C27.2905 9.36333 28.1147 11.5239 28.9363 12.1089C28.9597 12.1245 28.9987 12.0829 28.9805 12.0543Z" fill="#A12252"/>
</g>
<g style="mix-blend-mode:multiply" opacity="0.36">
<path d="M25.7126 10.8948C25.5254 10.809 25.3018 10.77 25.2342 10.5438C25.2015 10.3207 25.2534 10.0935 25.3798 9.90679C25.3954 9.88079 25.3564 9.84699 25.3356 9.87299C25.2442 9.97208 25.1771 10.0911 25.1397 10.2206C25.1022 10.3501 25.0954 10.4866 25.1198 10.6192C25.1562 10.7393 25.2369 10.8411 25.3455 10.9038C25.4542 10.9666 25.5826 10.9857 25.7048 10.9572C25.7131 10.9582 25.7215 10.9559 25.728 10.9508C25.7346 10.9457 25.7389 10.9382 25.7399 10.9299C25.741 10.9216 25.7387 10.9133 25.7336 10.9067C25.7284 10.9001 25.7209 10.8958 25.7126 10.8948Z" fill="#A12252"/>
</g>
<g style="mix-blend-mode:multiply" opacity="0.36">
<path d="M23.006 11.5292C22.5172 11.5292 22.2468 11.212 22.0232 10.8116C21.8937 10.5742 21.8193 10.3108 21.8053 10.0408C21.7914 9.77074 21.8383 9.50104 21.9426 9.25159C21.9426 9.25159 21.9426 9.25159 21.9426 9.25159C21.472 9.77159 21.5708 10.51 21.901 11.0716C22.1194 11.4486 22.6108 12.0102 23.0684 11.6488C23.11 11.615 23.0658 11.5266 23.006 11.5292Z" fill="#A12252"/>
</g>
<g style="mix-blend-mode:multiply" opacity="0.36">
<path d="M28.0733 16.1572C27.6911 15.1016 26.3885 14.0356 25.4031 15.073C24.2877 16.2508 24.5139 18.3698 24.9143 19.7712C24.9143 19.776 24.9162 19.7806 24.9197 19.784C24.9231 19.7874 24.9277 19.7894 24.9325 19.7894C24.9374 19.7894 24.942 19.7874 24.9454 19.784C24.9488 19.7806 24.9507 19.776 24.9507 19.7712C24.9637 18.5128 24.7245 17.2518 25.2315 16.048C25.4525 15.528 25.8503 14.8702 26.5315 15.008C27.0853 15.1224 27.6131 15.8062 27.9615 16.2196C27.9712 16.2314 27.9847 16.2395 27.9997 16.2424C28.0147 16.2452 28.0303 16.2427 28.0436 16.2353C28.057 16.2278 28.0673 16.2159 28.0727 16.2016C28.0781 16.1873 28.0784 16.1716 28.0733 16.1572Z" fill="#A12252"/>
</g>
<g style="mix-blend-mode:multiply" opacity="0.36">
<path d="M29.25 12.1533C29.4353 12.5993 29.648 13.0335 29.887 13.4533C30.1236 13.9343 30.2588 14.4933 30.5448 14.9379C30.5555 14.9542 30.5711 14.9668 30.5893 14.9738C30.6075 14.9809 30.6275 14.982 30.6464 14.9772C30.6653 14.9723 30.6823 14.9616 30.6948 14.9466C30.7074 14.9317 30.7149 14.9131 30.7164 14.8937C30.8256 13.9629 29.9026 12.7461 29.25 12.1533Z" fill="#A12252"/>
</g>
<g style="mix-blend-mode:multiply" opacity="0.36">
<path d="M35.7783 32.6049C35.7237 30.9669 35.9343 28.5645 34.9073 27.1449C34.9073 27.1293 34.8657 27.1449 34.8761 27.1449C35.5703 28.8245 35.4481 30.7849 35.4845 32.5789C35.5053 33.5617 35.4559 34.5289 35.3961 35.5065C35.3285 36.6323 34.9229 37.5865 34.7227 38.6733C34.7227 38.7175 34.7825 38.7565 34.8033 38.7071C35.1673 37.8491 35.5833 36.9937 35.6691 36.0551C35.7784 34.9085 35.8149 33.7561 35.7783 32.6049Z" fill="#A12252"/>
</g>
<g style="mix-blend-mode:multiply" opacity="0.34">
<path d="M23.3641 14.8805C23.0677 14.5711 22.5841 14.1941 22.1707 14.5321C21.6507 14.9611 21.5701 15.9309 21.7781 16.5289C21.7781 16.5549 21.8353 16.5627 21.8405 16.5289C21.9445 15.9829 21.8041 15.4369 22.1005 14.9273C22.2721 14.6413 22.4827 14.4957 22.8129 14.6413C22.9897 14.7193 23.1509 14.8337 23.3329 14.9013C23.3363 14.9033 23.3401 14.9043 23.3441 14.9042C23.348 14.9041 23.3518 14.9029 23.355 14.9007C23.3583 14.8985 23.3609 14.8955 23.3625 14.8919C23.3641 14.8883 23.3646 14.8844 23.3641 14.8805Z" fill="#004056"/>
</g>
<g style="mix-blend-mode:multiply" opacity="0.34">
<path d="M22.4251 17.6756C21.5983 18.1956 20.0851 18.3464 19.4715 19.1602C19.1803 19.5424 19.2115 20.039 19.2115 20.494C19.1914 21.319 19.2392 22.1443 19.3545 22.9614C19.3607 22.9839 19.3742 23.0037 19.3927 23.0178C19.4112 23.0318 19.4339 23.0395 19.4572 23.0395C19.4805 23.0395 19.5031 23.0318 19.5217 23.0178C19.5402 23.0037 19.5536 22.9839 19.5599 22.9614C19.66 22.348 19.6914 21.7254 19.6535 21.105C19.6275 20.455 19.3207 19.7114 19.7705 19.1576C20.4075 18.3776 21.7101 18.3958 22.4849 17.751C22.5265 17.7172 22.4719 17.647 22.4251 17.6756Z" fill="#004056"/>
</g>
<g style="mix-blend-mode:multiply" opacity="0.34">
<path d="M19.0187 13.6379C19.057 13.0365 18.9061 12.4383 18.5871 11.9271C18.5831 11.9203 18.5769 11.915 18.5696 11.9121C18.5622 11.9091 18.5541 11.9086 18.5465 11.9107C18.5388 11.9127 18.5321 11.9172 18.5272 11.9235C18.5223 11.9297 18.5196 11.9374 18.5195 11.9453C18.5455 12.5953 18.6105 13.2271 18.5819 13.8823C18.5611 14.4023 18.4649 14.9223 18.6729 15.3955C18.6783 15.4052 18.6862 15.4134 18.6958 15.419C18.7054 15.4247 18.7164 15.4277 18.7275 15.4277C18.7387 15.4277 18.7496 15.4247 18.7592 15.419C18.7688 15.4134 18.7767 15.4052 18.7821 15.3955C19.0317 14.8755 19.0187 14.2047 19.0187 13.6379Z" fill="#004056"/>
</g>
<g style="mix-blend-mode:multiply" opacity="0.34">
<path d="M32.6539 16.763C31.8776 17.3897 31.0206 17.9091 30.1059 18.3074C29.3519 18.674 28.6369 19.1108 28.2001 19.8466C27.7246 20.7204 27.4093 21.6723 27.2693 22.6572C27.0899 23.7362 27.2329 24.9972 26.5049 25.889C26.4581 25.9462 26.5179 26.0398 26.5881 25.9956C27.2563 25.5874 27.4019 24.836 27.5007 24.1028C27.6228 22.8665 27.9177 21.6535 28.3769 20.4992C28.8813 19.3448 29.8771 18.8846 30.9327 18.3282C31.6347 17.9616 32.3601 17.5482 32.6773 16.7682C32.6955 16.7604 32.6669 16.75 32.6539 16.763Z" fill="#004056"/>
</g>
<g style="mix-blend-mode:multiply" opacity="0.34">
<path d="M26.0984 15.4396C26.0984 15.4214 26.0646 15.4396 26.062 15.4396C26.0152 15.7906 26.2024 16.1338 26.322 16.4562C26.4714 16.8372 26.4896 17.2571 26.374 17.6496C26.3717 17.6603 26.3725 17.6715 26.3763 17.6817C26.3802 17.692 26.3869 17.7009 26.3956 17.7075C26.4044 17.7141 26.4148 17.718 26.4258 17.7188C26.4367 17.7196 26.4476 17.7172 26.4572 17.712C27.2684 17.3246 26.4026 15.9154 26.0984 15.4396Z" fill="#004056"/>
</g>
<g style="mix-blend-mode:multiply" opacity="0.34">
<path d="M26.3321 15.2603C26.0929 14.8573 25.7003 15.6789 25.6509 15.8297C25.4696 16.3977 25.4007 16.9956 25.4481 17.5899C25.4503 17.5982 25.4552 17.6056 25.4621 17.6108C25.4689 17.6161 25.4772 17.6189 25.4858 17.6189C25.4944 17.6189 25.5028 17.6161 25.5096 17.6108C25.5164 17.6056 25.5213 17.5982 25.5235 17.5899C25.5729 17.1635 25.6197 16.7423 25.7081 16.3211C25.7487 16.072 25.8258 15.8302 25.9369 15.6035C26.0461 15.4111 26.1605 15.4215 26.3191 15.3149C26.3236 15.3123 26.3276 15.3087 26.3307 15.3045C26.3338 15.3003 26.336 15.2955 26.3372 15.2904C26.3385 15.2853 26.3386 15.28 26.3377 15.2748C26.3369 15.2697 26.335 15.2647 26.3321 15.2603Z" fill="#004056"/>
</g>
<g style="mix-blend-mode:multiply" opacity="0.36">
<path d="M33.3194 23.9885C33.3169 23.9777 33.3111 23.9679 33.3028 23.9605C33.2945 23.953 33.2842 23.9483 33.2732 23.9469C33.2622 23.9454 33.251 23.9474 33.2411 23.9525C33.2313 23.9577 33.2232 23.9657 33.218 23.9755C32.3444 25.3457 29.9394 23.9209 28.6914 23.7441C29.2062 24.0145 33.7848 25.6941 33.3194 23.9885Z" fill="#A12252"/>
</g>
<g style="mix-blend-mode:multiply" opacity="0.36">
<path d="M34.617 25.0569C34.6145 25.0443 34.6077 25.0329 34.5977 25.0249C34.5877 25.0168 34.5752 25.0125 34.5624 25.0127C34.4636 25.0127 34.4428 25.0907 34.3596 25.1271C34.3109 25.1403 34.2596 25.1406 34.2108 25.1278C34.1619 25.115 34.1173 25.0897 34.0814 25.0543C33.9283 24.9317 33.7896 24.7921 33.668 24.6383C33.7404 24.8932 33.9007 25.1142 34.1204 25.2623C34.1682 25.2936 34.2226 25.3137 34.2794 25.3209C34.3361 25.3281 34.3938 25.3223 34.448 25.3039C34.5286 25.2701 34.6404 25.1739 34.617 25.0569Z" fill="#A12252"/>
</g>
<g style="mix-blend-mode:multiply" opacity="0.36">
<path d="M33.6096 22.0929C33.6039 22.0912 33.5978 22.0914 33.5922 22.0933C33.5866 22.0953 33.5817 22.099 33.5783 22.1038C33.5748 22.1087 33.573 22.1145 33.573 22.1205C33.5731 22.1265 33.5749 22.1323 33.5784 22.1371C33.7266 22.2619 33.9606 22.3529 34.0204 22.5505C34.0319 22.652 34.0193 22.7549 33.9837 22.8506C33.948 22.9464 33.8902 23.0324 33.815 23.1017C33.5591 23.3525 33.2705 23.5676 32.957 23.7413C33.1949 23.705 33.4217 23.6161 33.6209 23.4812C33.8202 23.3463 33.9868 23.1687 34.1088 22.9613C34.1593 22.8734 34.1858 22.7738 34.1858 22.6725C34.1857 22.5711 34.1591 22.4716 34.1086 22.3837C34.0581 22.2959 33.9855 22.2228 33.8979 22.1717C33.8104 22.1207 33.711 22.0935 33.6096 22.0929Z" fill="#A12252"/>
</g>
</g>
<defs>
<linearGradient id="paint0_linear_1_755" x1="42.1718" y1="44.1903" x2="11.5308" y2="6.06389" gradientUnits="userSpaceOnUse">
<stop stop-color="white"/>
<stop offset="0.39" stop-color="#3D4396"/>
<stop offset="0.86" stop-color="#2A4090"/>
</linearGradient>
<linearGradient id="paint1_linear_1_755" x1="22.3935" y1="16.8696" x2="17.7603" y2="10.7128" gradientUnits="userSpaceOnUse">
<stop stop-color="white"/>
<stop offset="0.39" stop-color="#3D5996"/>
<stop offset="0.86" stop-color="#2A3B90"/>
</linearGradient>
<clipPath id="clip0_1_755">
<rect width="52" height="52" rx="26" fill="white"/>
</clipPath>
</defs>
</svg>
