<svg width="18" height="16" viewBox="0 0 18 16" fill="none" xmlns="http://www.w3.org/2000/svg">
<path d="M2.81204 10.0821C1.22049 8.72858 0.2847 6.34579 0.542427 4.32944L0.542428 4.32943C0.678707 3.26306 1.19763 1.84617 2.92943 1.00196L2.92979 1.00178C4.86735 0.0553627 6.34159 0.624535 7.26248 1.26905C7.77533 1.63507 8.22567 2.07997 8.59652 2.5868L8.99936 3.13733L9.40307 2.58744C9.65476 2.24463 10.1049 1.71289 10.7363 1.27017C11.6551 0.62611 13.1326 0.0564113 15.0708 1.0019L15.0712 1.00207C16.8026 1.84501 17.3216 3.26283 17.4576 4.3293L17.4576 4.32936C17.7151 6.34616 16.7798 8.72865 15.1883 10.0821C13.2018 11.7711 9.73141 14.7942 9.00007 15.4317C8.26569 14.7914 4.79751 11.7704 2.81204 10.0821ZM2.81204 10.0821L2.48812 10.463L2.81204 10.0821ZM8.86244 15.5517C8.86255 15.5516 8.86265 15.5516 8.86276 15.5515L8.86267 15.5515L8.86244 15.5517Z" stroke="white"/>
<path d="M3.95152 7.86139C3.98875 7.86148 4.02508 7.84846 4.0555 7.82414C4.08591 7.79983 4.1089 7.76541 4.12129 7.72565L4.40484 6.77512L5.15534 10.8379C5.16397 10.8844 5.18667 10.926 5.21951 10.9556C5.25236 10.9852 5.29329 11.0009 5.33526 11C5.37722 10.999 5.41758 10.9815 5.44937 10.9505C5.48116 10.9195 5.50239 10.8768 5.50941 10.83L6.33972 5.27833L6.96311 8.52696C6.97138 8.56983 6.99164 8.60853 7.02087 8.63734C7.0501 8.66614 7.08675 8.68351 7.12538 8.68687C7.16402 8.69023 7.20258 8.67939 7.23535 8.65598C7.26812 8.63256 7.29335 8.5978 7.3073 8.55687L7.78529 7.15178L8.00209 7.73748C8.01574 7.77459 8.03879 7.80629 8.06833 7.82858C8.09788 7.85087 8.13259 7.86274 8.16809 7.86271H9.51006C9.54759 7.86274 9.58419 7.84948 9.61474 7.82479C9.64528 7.80009 9.66825 7.7652 9.68042 7.72499L9.96541 6.78695L10.7139 10.8375C10.7223 10.8834 10.7445 10.9245 10.7765 10.9541C10.8086 10.9837 10.8487 10.9998 10.89 10.9999H10.8935C10.9355 10.999 10.9759 10.9816 11.0077 10.9505C11.0395 10.9195 11.0607 10.8769 11.0677 10.83L11.898 5.27833L12.5216 8.52696C12.5299 8.56983 12.5502 8.60853 12.5794 8.63734C12.6086 8.66614 12.6453 8.68351 12.6839 8.68687C12.7226 8.69023 12.7611 8.67939 12.7939 8.65598C12.8267 8.63256 12.8519 8.5978 12.8658 8.55687L13.3438 7.15178L13.5603 7.73748C13.5741 7.77457 13.5972 7.80623 13.6268 7.82851C13.6564 7.85078 13.6911 7.86268 13.7266 7.86271H16.861C16.9103 7.72795 16.957 7.59188 17 7.45482H13.8465L13.5032 6.5273C13.4895 6.49021 13.4664 6.45853 13.4369 6.43625C13.4073 6.41397 13.3727 6.40208 13.3372 6.40207H13.3345C13.2985 6.40278 13.2635 6.41567 13.2339 6.4391C13.2044 6.46253 13.1817 6.49541 13.1688 6.53354L12.746 7.77626L12.0521 4.16084C12.0435 4.11433 12.0207 4.07273 11.9878 4.04334C11.9548 4.01395 11.9138 3.99865 11.8719 4.00011C11.8299 4.00111 11.7896 4.01862 11.7578 4.04963C11.726 4.08064 11.7048 4.12322 11.6977 4.17004L10.8715 9.69901L10.1842 5.97874C10.1767 5.93434 10.1563 5.89404 10.1263 5.86418C10.0963 5.83432 10.0584 5.81659 10.0185 5.81377C9.97867 5.81095 9.93912 5.8232 9.90608 5.8486C9.87303 5.87399 9.84838 5.9111 9.83597 5.95409L9.38004 7.45515H8.28795L7.94462 6.5273C7.93097 6.49018 7.90792 6.45848 7.87838 6.4362C7.84883 6.41391 7.81412 6.40203 7.77862 6.40207H7.77601C7.73999 6.40275 7.70498 6.41564 7.67549 6.43908C7.64601 6.46251 7.6234 6.49542 7.61058 6.53354L7.18744 7.77593L6.49353 4.16084C6.48507 4.11427 6.46233 4.0726 6.42935 4.04319C6.39637 4.01377 6.35526 3.99852 6.31331 4.00011C6.27134 4.00099 6.23096 4.01845 6.19916 4.04948C6.16736 4.08051 6.14614 4.12316 6.13918 4.17004L5.31293 9.69901L4.62569 5.97874C4.61761 5.93518 4.59719 5.89581 4.56752 5.86662C4.53786 5.83743 4.50058 5.82002 4.46137 5.81704C4.42216 5.81406 4.38317 5.82568 4.35033 5.85013C4.31749 5.87457 4.2926 5.9105 4.27946 5.95245L3.82411 7.40979L1 7.44759C1.04353 7.58695 1.09045 7.72488 1.14076 7.86139H3.95152Z" fill="white" stroke="white" stroke-width="0.4"/>
</svg>
