<svg width="19" height="18" viewBox="0 0 19 18" fill="none" xmlns="http://www.w3.org/2000/svg">
<path opacity="0.5" d="M9.83334 7.5C8.42709 7.5 7.33334 8.625 7.33334 10C7.33334 11.4063 8.42709 12.5 9.83334 12.5C11.2083 12.5 12.3333 11.4063 12.3333 10C12.3333 8.625 11.2083 7.5 9.83334 7.5ZM9.83334 11.5C8.98959 11.5 8.33334 10.8438 8.33334 10C8.33334 9.1875 8.98959 8.5 9.83334 8.5C10.6458 8.5 11.3333 9.1875 11.3333 10C11.3333 10.8438 10.6458 11.5 9.83334 11.5ZM16.8333 3H11.8333V2C11.8333 1.46875 11.3646 1 10.8333 1H8.83334C8.27084 1 7.83334 1.46875 7.83334 2V3H2.83334C1.70834 3 0.833344 3.90625 0.833344 5V15C0.833344 16.125 1.70834 17 2.83334 17H16.8333C17.9271 17 18.8333 16.125 18.8333 15V5C18.8333 3.90625 17.9271 3 16.8333 3ZM8.83334 2H10.8333V5H8.83334V2ZM12.8333 16H6.83334V15.3438C6.83334 15.0625 6.89584 14.7813 7.05209 14.5625C7.27084 14.2188 7.67709 14 8.14584 14C8.64584 14 8.89584 14.25 9.83334 14.25C10.7396 14.25 10.9896 14 11.4896 14C11.9583 14 12.3646 14.2188 12.5833 14.5625C12.7396 14.7813 12.8333 15.0625 12.8333 15.3438V16ZM17.8333 15C17.8333 15.5625 17.3646 16 16.8333 16H13.8333V15.3438C13.8333 14.8438 13.6771 14.375 13.4271 14C12.9896 13.3438 12.2396 13 11.4896 13C10.8021 13 10.6146 13.25 9.83334 13.25C9.02084 13.25 8.83334 13 8.14584 13C7.39584 13 6.67709 13.3438 6.23959 14C5.98959 14.375 5.83334 14.8438 5.83334 15.3438V16H2.83334C2.27084 16 1.83334 15.5625 1.83334 15V5C1.83334 4.46875 2.27084 4 2.83334 4H7.83334V6H11.8333V4H16.8333C17.3646 4 17.8333 4.46875 17.8333 5V15Z" fill="#040E16" stroke="#040E16" stroke-width="0.2"/>
</svg>
