<svg width="32" height="32" viewBox="0 0 32 32" fill="none" xmlns="http://www.w3.org/2000/svg">
<rect width="32" height="32" rx="16" fill="#FF6197"/>
<path d="M24.5 15.3125V16.1875C24.5 16.4336 24.2812 16.625 24.0625 16.625H20.6445L19.1406 19.6328C18.9766 19.9609 18.6484 20.1523 18.2656 20.0977C17.9102 20.0703 17.6094 19.8242 17.5273 19.4688L15.832 13.3438L13.9727 22.0664C13.8906 22.4492 13.5352 22.75 13.1523 22.75H13.125C12.7148 22.75 12.3867 22.5039 12.2773 22.1211L10.6914 16.625H7.4375C7.19141 16.625 7 16.4336 7 16.2148V15.3125C7 15.0938 7.19141 14.9023 7.4375 14.9023H11.375C11.7578 14.9023 12.0859 15.1758 12.1953 15.5586L12.9883 18.293L14.875 9.46094C14.957 9.05078 15.3125 8.77734 15.7227 8.77734C16.1055 8.75 16.4883 9.02344 16.5703 9.40625L18.5938 16.8164L19.332 15.3945C19.4688 15.0664 19.7695 14.875 20.125 14.875H24.0625C24.2812 14.875 24.5 15.0938 24.5 15.3125Z" fill="white"/>
</svg>
