<svg width="20" height="16" viewBox="0 0 20 16" fill="none" xmlns="http://www.w3.org/2000/svg">
<path d="M7 8C9.1875 8 11 6.21875 11 4C11 1.8125 9.1875 0 7 0C4.78125 0 3 1.8125 3 4C3 6.21875 4.78125 8 7 8ZM7 1.5C8.375 1.5 9.5 2.625 9.5 4C9.5 5.40625 8.375 6.5 7 6.5C5.59375 6.5 4.5 5.40625 4.5 4C4.5 2.625 5.59375 1.5 7 1.5ZM8.5625 9.5H5.40625C2.40625 9.5 0 11.9375 0 14.9375C0 15.5312 0.46875 16 1.0625 16H12.9062C13.5 16 14 15.5312 14 14.9375C14 11.9375 11.5625 9.5 8.5625 9.5ZM1.5 14.5C1.71875 12.5625 3.375 11 5.40625 11H8.5625C10.5938 11 12.2188 12.5625 12.4688 14.5H1.5ZM19.25 6.25H17.75V4.75C17.75 4.34375 17.4062 4 17 4C16.5625 4 16.25 4.34375 16.25 4.75V6.25H14.75C14.3125 6.25 14 6.59375 14 7C14 7.4375 14.3125 7.75 14.75 7.75H16.25V9.25C16.25 9.6875 16.5625 10 17 10C17.4062 10 17.75 9.6875 17.75 9.25V7.75H19.25C19.6562 7.75 20 7.4375 20 7C20 6.59375 19.6562 6.25 19.25 6.25Z" fill="#6197FF"/>
</svg>
