<svg width="31" height="35" viewBox="0 0 31 35" fill="none" xmlns="http://www.w3.org/2000/svg">
<g filter="url(#filter0_d_0_487)">
<path d="M8.20456 27.9144C8.20589 28.1185 8.18686 28.3222 8.14768 28.5231C8.09606 29.0096 7.84482 29.4595 7.4455 29.7804C7.04619 30.1012 6.52909 30.2687 6.00033 30.2485C4.77733 30.2485 3.79135 29.5128 3.79135 27.9144C3.84622 27.26 4.03439 26.6211 4.34596 26.0313C4.80699 25.0894 5.34582 24.1817 5.95767 23.3163C5.95767 23.3163 8.20456 26.316 8.20456 27.9144Z" fill="#EC5186"/>
<path d="M8.20465 27.9143C8.20598 28.1184 8.18694 28.3221 8.14776 28.523C7.95238 28.7921 7.68543 29.0104 7.3725 29.1569C7.05957 29.3033 6.71116 29.3731 6.36067 29.3594C5.13768 29.3594 4.1517 28.6193 4.1517 27.0253C4.16245 26.6869 4.22795 26.3518 4.34605 26.0312C4.80708 25.0893 5.34591 24.1816 5.95775 23.3162C5.95775 23.3162 8.20465 26.3159 8.20465 27.9143Z" fill="#FF6197"/>
<path opacity="0.37" d="M7.88147 27.7479C7.88147 28.2296 7.58758 28.6237 7.22257 28.6237C6.85757 28.6237 6.55893 28.234 6.55893 27.7479C6.55893 27.2618 6.85283 26.8721 7.22257 26.8721C7.59232 26.8721 7.88147 27.2662 7.88147 27.7479Z" fill="white"/>
<path d="M6.18018 19.397C6.13751 19.721 6.22758 20.0539 5.93368 20.356L5.13257 21.4202L5.97634 22.1602L6.87225 22.8478L7.9246 21.9719C8.21376 21.6698 8.57876 21.7092 8.9248 21.6347C9.73065 21.4596 10.3042 20.8421 10.8588 20.2641L18.23 12.6224L16.514 11.2123L14.798 9.80225L7.43161 17.4395C6.87226 18.0438 6.27498 18.6394 6.18018 19.397Z" fill="#E1EBFF"/>
<path d="M6.32718 21.7967L5.82471 21.3588L6.35088 20.6581C6.59332 20.3752 6.71478 20.0199 6.69218 19.6597C6.68734 19.5926 6.68734 19.5253 6.69218 19.4582C6.76803 18.8758 7.2468 18.3766 7.75875 17.8467L14.8597 10.5116L17.5048 12.7012L10.4323 20.0363C9.92032 20.5661 9.43681 21.0654 8.82531 21.2011H8.78739L8.60726 21.2274C8.52758 21.2348 8.44844 21.2465 8.37024 21.2624C8.06547 21.3104 7.7859 21.4487 7.57388 21.6566L6.88179 22.2171L6.32718 21.7967Z" fill="#BCD3FF"/>
<path d="M13.4375 10.4808L21.2779 2.35307C21.5235 2.09829 21.8423 1.91322 22.1973 1.8194C22.5523 1.72559 22.9289 1.72691 23.2831 1.8232C23.5576 1.8992 23.8102 2.03086 24.0226 2.20857L25.3451 3.2946C25.4162 3.35296 25.4827 3.41589 25.5442 3.48291C25.8106 3.77544 25.9685 4.13921 25.9945 4.52076C26.0136 4.75783 25.9815 4.99603 25.9001 5.22155C25.8188 5.44707 25.6897 5.65543 25.5205 5.83451L17.6801 13.9622L13.4375 10.4808Z" fill="#6197FF"/>
<path d="M14.3846 13.5188C14.5197 13.63 14.6016 13.7851 14.6125 13.9507C14.6234 14.1163 14.5625 14.2792 14.4429 14.4044L8.81328 20.1606C8.68921 20.2811 8.51893 20.3534 8.33785 20.3624C8.15677 20.3715 7.97881 20.3167 7.84098 20.2093C7.70692 20.0975 7.62588 19.9425 7.61499 19.7773C7.6041 19.612 7.66423 19.4493 7.78264 19.3237L13.4171 13.5675C13.5397 13.4463 13.7094 13.3735 13.89 13.3644C14.0706 13.3553 14.248 13.4107 14.3846 13.5188Z" fill="#FF6197"/>
<path opacity="0.1" d="M15.4861 10.5368C15.7515 10.7557 16.1406 10.7336 16.3794 10.4861L23.1852 3.43193C23.3198 3.30505 23.3952 3.13445 23.3952 2.95678C23.3952 2.77911 23.3198 2.60853 23.1852 2.48165C23.0331 2.37212 22.8405 2.32222 22.649 2.3427C22.4574 2.36318 22.2823 2.4524 22.1613 2.59113L15.4311 9.57146C15.1647 9.84781 15.19 10.2925 15.4861 10.5368Z" fill="white"/>
<path opacity="0.1" d="M17.4691 12.1818C17.7338 12.399 18.121 12.3766 18.3588 12.1302L25.0481 5.20063C25.1159 5.13837 25.1697 5.06434 25.2064 4.9828C25.2432 4.90126 25.2621 4.81381 25.2621 4.7255C25.2621 4.63719 25.2432 4.54974 25.2064 4.4682C25.1697 4.38666 25.1159 4.31263 25.0481 4.25036C24.9735 4.1957 24.8878 4.15517 24.7962 4.13109C24.7045 4.10701 24.6087 4.09985 24.514 4.11001C24.4194 4.12018 24.3278 4.14748 24.2446 4.19035C24.1614 4.23321 24.0881 4.29081 24.029 4.35984L17.413 11.2174C17.1466 11.4936 17.1724 11.9383 17.4691 12.1818Z" fill="white"/>
<path d="M12.3472 10.1962C12.4954 10.0491 12.6989 9.95978 12.916 9.94662C13.2016 9.92934 13.4856 9.99686 13.7266 10.1393C13.8117 10.187 13.8912 10.2427 13.9636 10.3057L17.808 13.4675C17.9545 13.5816 18.0745 13.7218 18.1609 13.8799C18.2472 14.0379 18.2981 14.2104 18.3105 14.3871C18.3242 14.5879 18.2528 14.7858 18.1114 14.9389C18.0311 15.0174 17.9344 15.08 17.827 15.1228C17.7021 15.1693 17.5682 15.1916 17.4335 15.1885C17.0814 15.1766 16.7453 15.0493 16.4855 14.8294L12.6411 11.6676C12.4512 11.5286 12.3064 11.3438 12.2228 11.1336C12.1392 10.9235 12.1199 10.6961 12.1671 10.4765C12.2035 10.3717 12.2651 10.2759 12.3472 10.1962Z" fill="#6197FF"/>
<path opacity="0.1" d="M13.3581 10.3109C13.2026 10.1828 13.289 9.96214 13.4796 10.0275C13.6596 10.0892 13.8243 10.184 13.9636 10.3061L17.808 13.4678C17.9545 13.5819 18.0745 13.7222 18.1609 13.8802C18.2573 14.0568 18.0544 14.1766 17.899 14.0488L13.3581 10.3109Z" fill="white"/>
<path d="M6.57131 21.3532L6.71011 21.4673C6.80816 21.5479 6.95837 21.5398 7.04561 21.4492L7.54245 20.9333C7.62969 20.8428 7.62093 20.704 7.52288 20.6234L7.38407 20.5093C7.28602 20.4287 7.13582 20.4368 7.04858 20.5274L6.55174 21.0433C6.4645 21.1339 6.47326 21.2726 6.57131 21.3532Z" fill="#FF6197"/>
<path d="M24.9801 13.4893H19.9648V14.422H24.9801V13.4893Z" fill="#BCD3FF"/>
<path d="M23.9753 14.0979C24.5013 14.0991 25.0053 14.2929 25.3767 14.6369C25.7482 14.9809 25.9568 15.4469 25.9568 15.9328V27.3755C25.9568 29.9811 24.3925 30.0862 22.4774 30.0862C20.5623 30.0862 18.998 29.9811 18.998 27.3755V15.9328C18.998 15.4469 19.2067 14.9809 19.5781 14.6369C19.9496 14.2929 20.4535 14.0991 20.9795 14.0979H23.9753Z" fill="#E1EBFF"/>
<path d="M23.5582 14.4919C24.0837 14.4919 24.5877 14.6848 24.9593 15.0281C25.3309 15.3714 25.5396 15.837 25.5396 16.3224V27.4586C25.5396 29.7052 24.165 29.5037 22.4774 29.5037C20.7899 29.5037 19.4199 29.7052 19.4199 27.4586V16.3224C19.4199 16.0821 19.4712 15.844 19.5708 15.6219C19.6703 15.3998 19.8163 15.1981 20.0003 15.0281C20.1843 14.8581 20.4027 14.7233 20.6431 14.6313C20.8835 14.5393 21.1412 14.4919 21.4014 14.4919H23.5582Z" fill="#D6E4FF"/>
<path d="M25.5396 20.4528V23.0803C25.5396 30.1438 24.165 29.5089 22.4774 29.5089C20.7899 29.5089 19.4199 30.1438 19.4199 23.0803V20.4528H25.5396Z" fill="#FF6197"/>
<g style="mix-blend-mode:overlay" opacity="0.2">
<path d="M23.9515 28.7639C24.3625 28.7639 24.6957 28.4307 24.6957 28.0197V16.2524C24.6957 15.8414 24.3625 15.5082 23.9515 15.5082C23.5405 15.5082 23.2073 15.8364 23.2073 16.2475C23.2073 18.36 23.2073 24.4972 23.2073 28.0214C23.2073 28.4325 23.5405 28.7639 23.9515 28.7639Z" fill="white"/>
</g>
<path d="M20.4537 12.4079H24.5067C24.6214 12.4067 24.7352 12.4266 24.8415 12.4664C24.9479 12.5061 25.0446 12.565 25.1262 12.6395C25.2077 12.714 25.2725 12.8028 25.3167 12.9006C25.3609 12.9984 25.3836 13.1033 25.3836 13.2093V13.5771C25.3836 13.6619 25.3471 13.7432 25.2823 13.8032C25.2174 13.8631 25.1293 13.8968 25.0376 13.8968H19.9323C19.8405 13.8968 19.7525 13.8631 19.6876 13.8032C19.6227 13.7432 19.5862 13.6619 19.5862 13.5771V13.218C19.585 13.1121 19.6065 13.0069 19.6495 12.9087C19.6926 12.8104 19.7563 12.721 19.8369 12.6457C19.9176 12.5703 20.0137 12.5105 20.1195 12.4697C20.2254 12.4289 20.339 12.4079 20.4537 12.4079Z" fill="#2B2C3A"/>
<g style="mix-blend-mode:overlay">
<path d="M19.5862 13.2087H25.3836V13.5766C25.3836 13.6614 25.3471 13.7427 25.2822 13.8026C25.2173 13.8626 25.1293 13.8963 25.0375 13.8963H19.9322C19.8404 13.8963 19.7524 13.8626 19.6875 13.8026C19.6226 13.7427 19.5862 13.6614 19.5862 13.5766V13.2175V13.2087Z" fill="white" fill-opacity="0.15"/>
</g>
</g>
<defs>
<filter id="filter0_d_0_487" x="-1" y="-0.5" width="36" height="36" filterUnits="userSpaceOnUse" color-interpolation-filters="sRGB">
<feFlood flood-opacity="0" result="BackgroundImageFix"/>
<feColorMatrix in="SourceAlpha" type="matrix" values="0 0 0 0 0 0 0 0 0 0 0 0 0 0 0 0 0 0 127 0" result="hardAlpha"/>
<feOffset dx="1.5" dy="1.5"/>
<feGaussianBlur stdDeviation="1.5"/>
<feColorMatrix type="matrix" values="0 0 0 0 0.0687782 0 0 0 0 0.0971668 0 0 0 0 0.170166 0 0 0 0.15 0"/>
<feBlend mode="normal" in2="BackgroundImageFix" result="effect1_dropShadow_0_487"/>
<feBlend mode="normal" in="SourceGraphic" in2="effect1_dropShadow_0_487" result="shape"/>
</filter>
</defs>
</svg>
