<svg width="31" height="36" viewBox="0 0 31 36" fill="none" xmlns="http://www.w3.org/2000/svg">
<g clip-path="url(#clip0_0_553)" filter="url(#filter0_d_0_553)">
<g style="mix-blend-mode:multiply" opacity="0.4">
<path d="M11.1034 4.02685C10.9921 4.22745 10.8061 4.37559 10.5862 4.43882C10.3663 4.50205 10.1304 4.47521 9.93023 4.36417C9.73064 4.25221 9.58338 4.06543 9.52069 3.84473C9.45799 3.62403 9.48496 3.38739 9.59569 3.1866C9.70694 2.98596 9.89302 2.83787 10.113 2.7749C10.333 2.71193 10.5689 2.73923 10.7688 2.8508C10.8678 2.90595 10.9549 2.98011 11.0252 3.06907C11.0956 3.15803 11.1478 3.26004 11.1789 3.36925C11.2099 3.47847 11.2192 3.59276 11.2063 3.70559C11.1933 3.81842 11.1584 3.92759 11.1034 4.02685Z" fill="#6197FF"/>
</g>
<path opacity="0.8" d="M20.3534 7.04004V4.99182H10.3038V7.0841C10.3044 7.31742 10.2525 7.54786 10.1522 7.7583C10.0518 7.96874 9.90547 8.15378 9.72406 8.29966L7.87126 9.7872C7.65016 9.96475 7.47169 10.19 7.34905 10.4461C7.22642 10.7023 7.16278 10.9829 7.16284 11.2671V29.9563C7.16284 30.3593 7.32232 30.7458 7.6062 31.0308C7.89008 31.3157 8.2751 31.4758 8.67657 31.4758H22.291C22.6925 31.4758 23.0775 31.3157 23.3614 31.0308C23.6452 30.7458 23.8047 30.3593 23.8047 29.9563V11.3173C23.8047 11.0183 23.7341 10.7235 23.5989 10.457C23.4637 10.1906 23.2676 9.96003 23.0267 9.78416L20.9847 8.29359C20.7885 8.14929 20.6291 7.96055 20.5195 7.74271C20.4098 7.52488 20.3529 7.28412 20.3534 7.04004Z" fill="#E0E0E0"/>
<path d="M8.45605 10.9885H22.518V28.4578C22.518 28.8654 22.3702 29.2563 22.1071 29.5445C21.8439 29.8327 21.487 29.9946 21.1149 29.9946H9.85922C9.48708 29.9946 9.13018 29.8327 8.86703 29.5445C8.60389 29.2563 8.45605 28.8654 8.45605 28.4578V10.9885Z" fill="#6197FF"/>
<g opacity="0.51">
<g style="mix-blend-mode:multiply" opacity="0.51">
<path d="M13.1152 13.3858C13.2264 12.6983 12.7613 12.0505 12.0764 11.9389C11.3914 11.8273 10.7461 12.2942 10.6349 12.9817C10.5237 13.6692 10.9888 14.317 11.6738 14.4286C12.3587 14.5402 13.004 14.0734 13.1152 13.3858Z" fill="#6197FF"/>
</g>
<g style="mix-blend-mode:multiply" opacity="0.51">
<path d="M20.6134 18.18C21.1041 17.6875 21.1041 16.889 20.6134 16.3964C20.1228 15.9039 19.3273 15.9039 18.8366 16.3964C18.346 16.889 18.346 17.6875 18.8366 18.18C19.3273 18.6725 20.1228 18.6725 20.6134 18.18Z" fill="#6197FF"/>
</g>
<g style="mix-blend-mode:multiply" opacity="0.51">
<path d="M13.4441 24.8539C14.138 24.8539 14.7005 24.2893 14.7005 23.5928C14.7005 22.8963 14.138 22.3317 13.4441 22.3317C12.7502 22.3317 12.1877 22.8963 12.1877 23.5928C12.1877 24.2893 12.7502 24.8539 13.4441 24.8539Z" fill="#6197FF"/>
</g>
<g style="mix-blend-mode:multiply" opacity="0.51">
<path d="M16.899 23.2767C17.5929 23.2767 18.1554 22.712 18.1554 22.0155C18.1554 21.319 17.5929 20.7544 16.899 20.7544C16.2051 20.7544 15.6426 21.319 15.6426 22.0155C15.6426 22.712 16.2051 23.2767 16.899 23.2767Z" fill="#6197FF"/>
</g>
<g style="mix-blend-mode:multiply" opacity="0.51">
<path d="M15.4849 16.342C15.7449 16.342 15.9557 16.1304 15.9557 15.8695C15.9557 15.6085 15.7449 15.3969 15.4849 15.3969C15.2249 15.3969 15.0142 15.6085 15.0142 15.8695C15.0142 16.1304 15.2249 16.342 15.4849 16.342Z" fill="#6197FF"/>
</g>
<g style="mix-blend-mode:multiply" opacity="0.51">
<path d="M10.774 18.5483C11.034 18.5483 11.2448 18.3367 11.2448 18.0758C11.2448 17.8148 11.034 17.6032 10.774 17.6032C10.514 17.6032 10.3032 17.8148 10.3032 18.0758C10.3032 18.3367 10.514 18.5483 10.774 18.5483Z" fill="#6197FF"/>
</g>
<g style="mix-blend-mode:multiply" opacity="0.51">
<path d="M20.3524 25.3265C20.3524 25.4519 20.3028 25.5721 20.2145 25.6607C20.1263 25.7493 20.0065 25.7991 19.8817 25.7991C19.7568 25.7991 19.6371 25.7493 19.5488 25.6607C19.4605 25.5721 19.4109 25.4519 19.4109 25.3265C19.4109 25.2011 19.4604 25.0807 19.5487 24.9919C19.6369 24.903 19.7567 24.8529 19.8817 24.8525C20.0067 24.8529 20.1264 24.903 20.2146 24.9919C20.3029 25.0807 20.3524 25.2011 20.3524 25.3265Z" fill="#6197FF"/>
</g>
<g style="mix-blend-mode:multiply" opacity="0.51">
<path d="M17.5268 27.5328C17.5268 27.5948 17.5146 27.6563 17.491 27.7136C17.4673 27.771 17.4326 27.823 17.3889 27.8669C17.3452 27.9108 17.2933 27.9456 17.2362 27.9694C17.1791 27.9931 17.1178 28.0053 17.056 28.0053C16.931 28.0053 16.8111 27.9556 16.7226 27.867C16.6341 27.7784 16.5841 27.6583 16.5837 27.5328C16.5841 27.4073 16.6341 27.2871 16.7226 27.1986C16.8111 27.11 16.931 27.0602 17.056 27.0602C17.1178 27.0602 17.1791 27.0725 17.2362 27.0962C17.2933 27.12 17.3452 27.1548 17.3889 27.1986C17.4326 27.2425 17.4673 27.2946 17.491 27.3519C17.5146 27.4093 17.5268 27.4707 17.5268 27.5328Z" fill="#6197FF"/>
</g>
<g style="mix-blend-mode:multiply" opacity="0.51">
<path d="M15.0138 28.794C15.0138 28.9193 14.9642 29.0395 14.8759 29.1281C14.7876 29.2167 14.6679 29.2665 14.543 29.2665C14.4182 29.2665 14.2984 29.2167 14.2102 29.1281C14.1219 29.0395 14.0723 28.9193 14.0723 28.794C14.0723 28.6686 14.1219 28.5484 14.2102 28.4598C14.2984 28.3712 14.4182 28.3214 14.543 28.3214C14.6679 28.3214 14.7876 28.3712 14.8759 28.4598C14.9642 28.5484 15.0138 28.6686 15.0138 28.794Z" fill="#6197FF"/>
</g>
<g style="mix-blend-mode:multiply" opacity="0.51">
<path d="M13.129 27.3745C13.129 27.6253 13.0298 27.8659 12.8533 28.0434C12.6768 28.2208 12.4373 28.3208 12.1874 28.3212C11.9373 28.3212 11.6975 28.2214 11.5206 28.0439C11.3437 27.8664 11.2444 27.6256 11.2444 27.3745C11.2444 27.2503 11.2688 27.1273 11.3162 27.0125C11.3636 26.8978 11.4331 26.7935 11.5207 26.7057C11.6083 26.6179 11.7123 26.5484 11.8267 26.5009C11.9411 26.4535 12.0637 26.4292 12.1874 26.4294C12.4371 26.4294 12.6766 26.529 12.8532 26.7063C13.0298 26.8835 13.129 27.1239 13.129 27.3745Z" fill="#6197FF"/>
</g>
<g style="mix-blend-mode:multiply" opacity="0.51">
<path d="M13.2869 21.385C13.5469 21.385 13.7577 21.1734 13.7577 20.9124C13.7577 20.6514 13.5469 20.4399 13.2869 20.4399C13.0269 20.4399 12.8162 20.6514 12.8162 20.9124C12.8162 21.1734 13.0269 21.385 13.2869 21.385Z" fill="#6197FF"/>
</g>
<g style="mix-blend-mode:multiply" opacity="0.51">
<path d="M18.939 14.7648C19.199 14.7648 19.4098 14.5532 19.4098 14.2923C19.4098 14.0313 19.199 13.8197 18.939 13.8197C18.679 13.8197 18.4683 14.0313 18.4683 14.2923C18.4683 14.5532 18.679 14.7648 18.939 14.7648Z" fill="#6197FF"/>
</g>
<g style="mix-blend-mode:multiply" opacity="0.51">
<path d="M21.9227 12.7165C21.9227 12.8418 21.8731 12.962 21.7849 13.0506C21.6966 13.1393 21.5768 13.189 21.452 13.189C21.3271 13.189 21.2074 13.1393 21.1191 13.0506C21.0308 12.962 20.9812 12.8418 20.9812 12.7165C20.9812 12.591 21.0308 12.4707 21.119 12.3818C21.2072 12.293 21.327 12.2428 21.452 12.2424C21.577 12.2428 21.6967 12.293 21.7849 12.3818C21.8732 12.4707 21.9227 12.591 21.9227 12.7165Z" fill="#6197FF"/>
</g>
</g>
<path d="M20.082 13.8197H10.5728C10.2501 13.8197 9.98853 14.0823 9.98853 14.4062V25.527C9.98853 25.851 10.2501 26.1135 10.5728 26.1135H20.082C20.4047 26.1135 20.6663 25.851 20.6663 25.527V14.4062C20.6663 14.0823 20.4047 13.8197 20.082 13.8197Z" fill="#F4F4F4"/>
<path d="M12.0963 19.8336C12.1738 19.8567 12.2332 19.8944 12.2743 19.9466C12.3155 19.9989 12.3361 20.0633 12.3361 20.1399C12.3361 20.253 12.2931 20.3411 12.2071 20.4043C12.1224 20.4675 12.0007 20.4991 11.842 20.4991H11.2153V19.2228H11.8075C11.9552 19.2228 12.0703 19.2513 12.1526 19.3085C12.235 19.3656 12.2761 19.447 12.2761 19.5528C12.2761 19.616 12.2604 19.6719 12.2289 19.7205C12.1974 19.768 12.1532 19.8056 12.0963 19.8336ZM11.5078 19.7515H11.7821C11.8463 19.7515 11.8947 19.7388 11.9274 19.7133C11.9601 19.6865 11.9764 19.6476 11.9764 19.5966C11.9764 19.5467 11.9595 19.5084 11.9256 19.4817C11.8929 19.4549 11.845 19.4416 11.7821 19.4416H11.5078V19.7515ZM11.8311 20.2803C11.9692 20.2803 12.0382 20.2256 12.0382 20.1162C12.0382 20.0105 11.9692 19.9576 11.8311 19.9576H11.5078V20.2803H11.8311Z" fill="#2F4260"/>
<path d="M12.9267 19.5036C13.078 19.5036 13.1943 19.54 13.2754 19.613C13.3566 19.6847 13.3971 19.7935 13.3971 19.9393V20.4991H13.1319V20.3769C13.0786 20.4681 12.9793 20.5137 12.834 20.5137C12.7589 20.5137 12.6935 20.5009 12.6378 20.4754C12.5833 20.4499 12.5416 20.4146 12.5125 20.3697C12.4834 20.3247 12.4689 20.2736 12.4689 20.2165C12.4689 20.1253 12.5028 20.0536 12.5706 20.0013C12.6397 19.9491 12.7456 19.9229 12.8885 19.9229H13.1138C13.1138 19.8609 13.095 19.8135 13.0574 19.7807C13.0199 19.7467 12.9636 19.7297 12.8885 19.7297C12.8364 19.7297 12.785 19.7382 12.7341 19.7552C12.6845 19.771 12.6421 19.7929 12.607 19.8208L12.5052 19.6221C12.5585 19.5844 12.6221 19.5552 12.696 19.5346C12.771 19.5139 12.8479 19.5036 12.9267 19.5036ZM12.9049 20.3222C12.9533 20.3222 12.9963 20.3113 13.0338 20.2894C13.0714 20.2663 13.098 20.2329 13.1138 20.1891V20.0889H12.9194C12.8031 20.0889 12.745 20.1272 12.745 20.2037C12.745 20.2402 12.7589 20.2694 12.7868 20.2913C12.8159 20.3119 12.8552 20.3222 12.9049 20.3222Z" fill="#2F4260"/>
<path d="M14.0738 20.1272H13.9267V20.4991H13.6433V19.5182H13.9267V19.8992H14.0792L14.3444 19.5182H14.646L14.3045 19.9886L14.6696 20.4991H14.3354L14.0738 20.1272Z" fill="#2F4260"/>
<path d="M15.9095 20.2657V20.7143H15.6461V20.4991H14.8087V19.5182H15.0903V20.2657H15.4845V19.5182H15.7678V20.2657H15.9095Z" fill="#2F4260"/>
<path d="M16.0877 19.5182H16.3693V20.1016L16.8452 19.5182H17.1049V20.4991H16.8234V19.9156L16.3493 20.4991H16.0877V19.5182Z" fill="#2F4260"/>
<path d="M17.3773 19.5182H17.6589V19.9011H18.0839V19.5182H18.3673V20.4991H18.0839V20.1326H17.6589V20.4991H17.3773V19.5182Z" fill="#2F4260"/>
<path d="M19.0182 19.5036C19.1696 19.5036 19.2858 19.54 19.367 19.613C19.4481 19.6847 19.4887 19.7935 19.4887 19.9393V20.4991H19.2235V20.3769C19.1702 20.4681 19.0709 20.5137 18.9256 20.5137C18.8505 20.5137 18.7851 20.5009 18.7294 20.4754C18.6749 20.4499 18.6331 20.4146 18.6041 20.3697C18.575 20.3247 18.5605 20.2736 18.5605 20.2165C18.5605 20.1253 18.5944 20.0536 18.6622 20.0013C18.7312 19.9491 18.8372 19.9229 18.9801 19.9229H19.2053C19.2053 19.8609 19.1865 19.8135 19.149 19.7807C19.1115 19.7467 19.0552 19.7297 18.9801 19.7297C18.928 19.7297 18.8765 19.7382 18.8257 19.7552C18.776 19.771 18.7336 19.7929 18.6985 19.8208L18.5968 19.6221C18.6501 19.5844 18.7137 19.5552 18.7875 19.5346C18.8626 19.5139 18.9395 19.5036 19.0182 19.5036ZM18.9964 20.3222C19.0449 20.3222 19.0878 20.3113 19.1254 20.2894C19.1629 20.2663 19.1896 20.2329 19.2053 20.1891V20.0889H19.0109C18.8947 20.0889 18.8366 20.1272 18.8366 20.2037C18.8366 20.2402 18.8505 20.2694 18.8783 20.2913C18.9074 20.3119 18.9468 20.3222 18.9964 20.3222Z" fill="#2F4260"/>
<g style="mix-blend-mode:multiply" opacity="0.1">
<path d="M23.0289 9.78416L21.002 8.30422C20.8011 8.15702 20.6375 7.96431 20.5247 7.74175C20.4119 7.51919 20.3529 7.27305 20.3526 7.02333V4.99182H17.2117V7.13273C17.2123 7.34721 17.2632 7.55855 17.3602 7.74965C17.4573 7.94075 17.5977 8.10626 17.7702 8.2328L19.8894 9.7796C20.1302 9.95555 20.326 10.1862 20.461 10.4526C20.596 10.7191 20.6662 11.0138 20.666 11.3127V29.9472C20.666 30.3502 20.5065 30.7367 20.2226 31.0216C19.9387 31.3066 19.5537 31.4667 19.1523 31.4667H22.2917C22.6932 31.4667 23.0782 31.3066 23.3621 31.0216C23.646 30.7367 23.8054 30.3502 23.8054 29.9472V11.3173C23.8055 11.0184 23.7352 10.7237 23.6003 10.4573C23.4653 10.1908 23.2696 9.9602 23.0289 9.78416Z" fill="#A6A6A6"/>
</g>
<g style="mix-blend-mode:screen" opacity="0.63">
<path d="M9.19695 9.78408L11.7869 7.89236C11.8137 7.87288 11.8355 7.8473 11.8505 7.81771C11.8655 7.78812 11.8733 7.75538 11.8732 7.72219V4.98718H13.4445V7.72219C13.4442 7.75549 13.4362 7.78827 13.4209 7.81785C13.4056 7.84742 13.3836 7.87296 13.3567 7.89236L10.7667 9.78408C10.5258 9.95995 10.3297 10.1905 10.1945 10.457C10.0592 10.7234 9.98871 11.0182 9.98863 11.3172V29.9517C9.98863 30.3547 10.1481 30.7412 10.432 31.0261C10.7159 31.3111 11.1009 31.4711 11.5024 31.4711H9.93413C9.53267 31.4711 9.14765 31.3111 8.86377 31.0261C8.57989 30.7412 8.42041 30.3547 8.42041 29.9517V11.3172C8.42032 11.0183 8.49061 10.7236 8.62556 10.4572C8.76052 10.1907 8.9563 9.96011 9.19695 9.78408Z" fill="#E0E0E0"/>
</g>
<path d="M21.4294 2.00757H9.54062C8.92113 2.00757 8.41895 2.51166 8.41895 3.13348V4.64533C8.41895 5.26715 8.92113 5.77124 9.54062 5.77124H21.4294C22.0489 5.77124 22.5511 5.26715 22.5511 4.64533V3.13348C22.5511 2.51166 22.0489 2.00757 21.4294 2.00757Z" fill="#2B2C3A"/>
<g style="mix-blend-mode:multiply" opacity="0.48">
<path d="M21.4294 4.82462H9.54057C9.24334 4.82421 8.95843 4.70541 8.74841 4.49431C8.53838 4.2832 8.42041 3.99706 8.42041 3.69871V4.64532C8.42201 4.94262 8.54068 5.2272 8.75054 5.437C8.96039 5.64679 9.24439 5.76476 9.54057 5.76516H21.4294C21.7268 5.76516 22.0121 5.64653 22.2225 5.43538C22.4329 5.22423 22.551 4.93786 22.551 4.63925V3.69263C22.552 3.84105 22.5237 3.98821 22.4678 4.1256C22.4119 4.263 22.3294 4.38791 22.2251 4.49315C22.1208 4.59838 21.9968 4.68186 21.8602 4.73875C21.7237 4.79564 21.5772 4.82482 21.4294 4.82462Z" fill="#2F4260"/>
</g>
<path opacity="0.48" d="M20.488 2.00757H17.0337C17.3312 2.00757 17.6165 2.12619 17.8268 2.33734C18.0372 2.54849 18.1554 2.83486 18.1554 3.13347V4.65292C18.1518 4.94916 18.032 5.23203 17.8221 5.44024C17.6121 5.64844 17.3288 5.76518 17.0337 5.76516H20.488C20.7855 5.76516 21.0708 5.64653 21.2812 5.43538C21.4915 5.22424 21.6097 4.93786 21.6097 4.63925V3.1198C21.6061 2.82357 21.4863 2.54069 21.2764 2.33249C21.0664 2.12429 20.7832 2.00755 20.488 2.00757Z" fill="white" fill-opacity="0.1"/>
<path opacity="0.48" d="M11.6944 4.64536V3.12592C11.6942 2.978 11.7231 2.83151 11.7794 2.69482C11.8357 2.55812 11.9183 2.43392 12.0225 2.32933C12.1267 2.22474 12.2504 2.14181 12.3866 2.0853C12.5228 2.02879 12.6687 1.9998 12.8161 2H10.9315C10.634 2 10.3487 2.11862 10.1383 2.32977C9.92799 2.54092 9.80981 2.82731 9.80981 3.12592V4.64536C9.80981 4.94397 9.92799 5.23036 10.1383 5.44151C10.3487 5.65265 10.634 5.77127 10.9315 5.77127H12.81C12.5136 5.76966 12.2298 5.65034 12.0208 5.43936C11.8117 5.22839 11.6944 4.94292 11.6944 4.64536Z" fill="white" fill-opacity="0.1"/>
</g>
<defs>
<filter id="filter0_d_0_553" x="-1" y="0.5" width="36" height="36" filterUnits="userSpaceOnUse" color-interpolation-filters="sRGB">
<feFlood flood-opacity="0" result="BackgroundImageFix"/>
<feColorMatrix in="SourceAlpha" type="matrix" values="0 0 0 0 0 0 0 0 0 0 0 0 0 0 0 0 0 0 127 0" result="hardAlpha"/>
<feOffset dx="1.5" dy="1.5"/>
<feGaussianBlur stdDeviation="1.5"/>
<feColorMatrix type="matrix" values="0 0 0 0 0.0687782 0 0 0 0 0.0971668 0 0 0 0 0.170166 0 0 0 0.15 0"/>
<feBlend mode="normal" in2="BackgroundImageFix" result="effect1_dropShadow_0_553"/>
<feBlend mode="normal" in="SourceGraphic" in2="effect1_dropShadow_0_553" result="shape"/>
</filter>
<clipPath id="clip0_0_553">
<rect width="30" height="30" fill="white" transform="translate(0.5 2)"/>
</clipPath>
</defs>
</svg>
