<svg width="34" height="34" viewBox="0 0 34 34" fill="none" xmlns="http://www.w3.org/2000/svg">
<g filter="url(#filter0_d_0_480)">
<path d="M20.1407 12.5647C20.2684 12.2555 20.7063 12.2555 20.834 12.5647L21.8986 15.1439C21.99 15.3653 22.2628 15.4455 22.4595 15.3086L24.7494 13.7144C25.024 13.5233 25.3924 13.7601 25.3326 14.0892L24.8338 16.8345C24.791 17.0702 24.9772 17.2851 25.2166 17.2763L28.0049 17.1732C28.3393 17.1609 28.5212 17.5593 28.2929 17.8039L26.3891 19.8436C26.2256 20.0188 26.2661 20.3003 26.4723 20.4223L28.8737 21.8431C29.1616 22.0134 29.0993 22.4469 28.775 22.5293L26.0706 23.216C25.8384 23.2749 25.7203 23.5336 25.8278 23.7477L27.0798 26.2412C27.2299 26.5402 26.9431 26.8712 26.6258 26.7652L23.9795 25.8807C23.7523 25.8048 23.5131 25.9585 23.4877 26.1968L23.1929 28.9714C23.1576 29.304 22.7373 29.4274 22.5277 29.1667L20.7796 26.992C20.6295 26.8052 20.3452 26.8052 20.1951 26.992L18.447 29.1667C18.2374 29.4274 17.8172 29.304 17.7818 28.9714L17.487 26.1968C17.4617 25.9585 17.2224 25.8048 16.9952 25.8807L14.3489 26.7652C14.0316 26.8712 13.7448 26.5402 13.8949 26.2412L15.1469 23.7477C15.2544 23.5336 15.1363 23.2749 14.9041 23.216L12.1997 22.5293C11.8754 22.4469 11.8131 22.0134 12.101 21.8431L14.5024 20.4223C14.7086 20.3003 14.7491 20.0188 14.5856 19.8436L12.6818 17.8039C12.4535 17.5593 12.6355 17.1609 12.9698 17.1732L15.7581 17.2763C15.9975 17.2851 16.1837 17.0702 16.1409 16.8345L15.6421 14.0892C15.5823 13.7601 15.9507 13.5233 16.2253 13.7144L18.5153 15.3086C18.7119 15.4455 18.9847 15.3653 19.0761 15.1439L20.1407 12.5647Z" fill="#6197FF"/>
<g filter="url(#filter1_b_0_480)">
<path d="M14.4409 2.58977C14.5685 2.28054 15.0065 2.28054 15.1341 2.58977L16.9322 6.94588C17.0236 7.16736 17.2964 7.24746 17.4931 7.11057L21.3608 4.41809C21.6354 4.22695 22.0038 4.46375 21.944 4.79289L21.1016 9.4296C21.0587 9.66534 21.2449 9.88023 21.4844 9.87138L26.1938 9.69737C26.5281 9.68501 26.71 10.0834 26.4818 10.328L23.2662 13.7732C23.1028 13.9483 23.1432 14.2298 23.3494 14.3518L27.4053 16.7515C27.6932 16.9218 27.6309 17.3553 27.3067 17.4377L22.739 18.5975C22.5068 18.6565 22.3886 18.9151 22.4962 19.1292L24.6108 23.3408C24.7609 23.6397 24.4741 23.9707 24.1568 23.8647L19.6872 22.371C19.4599 22.295 19.2207 22.4487 19.1954 22.687L18.6975 27.3732C18.6621 27.7059 18.2419 27.8293 18.0323 27.5685L15.0798 23.8955C14.9297 23.7087 14.6453 23.7087 14.4952 23.8955L11.5427 27.5685C11.3331 27.8293 10.9129 27.7059 10.8775 27.3732L10.3796 22.687C10.3543 22.4487 10.1151 22.295 9.88781 22.371L5.41819 23.8647C5.10091 23.9707 4.81409 23.6397 4.9642 23.3408L7.07885 19.1292C7.18636 18.9151 7.06824 18.6565 6.83601 18.5975L2.26835 17.4377C1.9441 17.3553 1.88177 16.9218 2.16969 16.7515L6.22557 14.3518C6.43178 14.2298 6.47224 13.9483 6.30876 13.7732L3.09324 10.328C2.86498 10.0834 3.04693 9.68501 3.38124 9.69737L8.09064 9.87138C8.33007 9.88023 8.51628 9.66534 8.47345 9.4296L7.63098 4.79289C7.57118 4.46375 7.93964 4.22696 8.21419 4.41809L12.0819 7.11057C12.2786 7.24747 12.5514 7.16736 12.6428 6.94588L14.4409 2.58977Z" fill="#6197FF" fill-opacity="0.36"/>
<path d="M13.105 7.13666L14.7875 3.06047L16.47 7.13666C16.6833 7.65343 17.3199 7.84034 17.7787 7.52093L21.3979 5.00147L20.6096 9.34022C20.5097 9.89027 20.9441 10.3917 21.5028 10.371L25.9096 10.2082L22.9007 13.432C22.5193 13.8407 22.6137 14.4974 23.0948 14.7821L26.8901 17.0276L22.6159 18.1129C22.0741 18.2505 21.7985 18.854 22.0493 19.3536L24.0281 23.2945L19.8457 21.8967C19.3154 21.7195 18.7573 22.0782 18.6982 22.6342L18.2323 27.0193L15.4695 23.5822C15.1192 23.1465 14.4558 23.1465 14.1055 23.5822L11.3427 27.0192L10.8768 22.6342C10.8177 22.0782 10.2596 21.7195 9.72932 21.8967L5.54692 23.2945L7.52568 19.3536C7.77655 18.854 7.50093 18.2505 6.95907 18.1129L2.68492 17.0276L6.48017 14.7821C6.96132 14.4974 7.05574 13.8407 6.67429 13.432L3.6654 10.2082L8.07218 10.371C8.63086 10.3917 9.06533 9.89027 8.96539 9.34022L8.17707 5.00146L11.7962 7.52093C12.2551 7.84034 12.8917 7.65342 13.105 7.13666Z" stroke="url(#paint0_linear_0_480)" stroke-opacity="0.26"/>
</g>
</g>
<defs>
<filter id="filter0_d_0_480" x="-1" y="-0.5" width="36" height="36" filterUnits="userSpaceOnUse" color-interpolation-filters="sRGB">
<feFlood flood-opacity="0" result="BackgroundImageFix"/>
<feColorMatrix in="SourceAlpha" type="matrix" values="0 0 0 0 0 0 0 0 0 0 0 0 0 0 0 0 0 0 127 0" result="hardAlpha"/>
<feOffset dx="1.5" dy="1.5"/>
<feGaussianBlur stdDeviation="1.5"/>
<feColorMatrix type="matrix" values="0 0 0 0 0.0687782 0 0 0 0 0.0971668 0 0 0 0 0.170166 0 0 0 0.15 0"/>
<feBlend mode="normal" in2="BackgroundImageFix" result="effect1_dropShadow_0_480"/>
<feBlend mode="normal" in="SourceGraphic" in2="effect1_dropShadow_0_480" result="shape"/>
</filter>
<filter id="filter1_b_0_480" x="-3.0145" y="-2.64215" width="35.604" height="35.3512" filterUnits="userSpaceOnUse" color-interpolation-filters="sRGB">
<feFlood flood-opacity="0" result="BackgroundImageFix"/>
<feGaussianBlur in="BackgroundImage" stdDeviation="2.5"/>
<feComposite in2="SourceAlpha" operator="in" result="effect1_backgroundBlur_0_480"/>
<feBlend mode="normal" in="SourceGraphic" in2="effect1_backgroundBlur_0_480" result="shape"/>
</filter>
<linearGradient id="paint0_linear_0_480" x1="-2.13437" y1="0.783036" x2="10.7299" y2="37.5139" gradientUnits="userSpaceOnUse">
<stop stop-color="#EFF6FC"/>
<stop offset="1" stop-color="white"/>
</linearGradient>
</defs>
</svg>
