<svg width="21" height="21" viewBox="0 0 21 21" fill="none" xmlns="http://www.w3.org/2000/svg">
<path d="M20.9609 10.5C20.9609 9.09375 20.2188 7.84375 19.125 7.14062C19.3984 5.85156 19.0469 4.44531 18.0312 3.42969C17.0547 2.45312 15.6484 2.0625 14.3594 2.33594C13.6172 1.24219 12.4062 0.5 10.9609 0.5C9.55469 0.5 8.30469 1.24219 7.5625 2.33594C6.3125 2.0625 4.90625 2.45312 3.89062 3.42969C2.91406 4.44531 2.52344 5.85156 2.79688 7.14062C1.70312 7.84375 0.960938 9.09375 0.960938 10.5C0.960938 11.9453 1.70312 13.1953 2.79688 13.8984C2.52344 15.1875 2.91406 16.5938 3.89062 17.5703C4.90625 18.5859 6.27344 18.9766 7.5625 18.7031C8.30469 19.7969 9.55469 20.5 10.9609 20.5C12.4062 20.5 13.6172 19.7969 14.3594 18.7031C15.6484 18.9766 17.0547 18.5859 18.0312 17.5703C19.0469 16.5938 19.3984 15.1875 19.125 13.8984C20.2578 13.1953 20.9609 11.9453 20.9609 10.5ZM8.46094 6.75C9.16406 6.75 9.67188 7.33594 9.67188 8C9.67188 8.70312 9.16406 9.25 8.46094 9.25C7.79688 9.25 7.21094 8.70312 7.21094 8C7.21094 7.33594 7.79688 6.75 8.46094 6.75ZM9.125 13.6641C8.96875 13.8594 8.73438 13.9375 8.5 13.9375C8.22656 13.9375 7.99219 13.8594 7.83594 13.6641C7.44531 13.3125 7.44531 12.7266 7.83594 12.375L12.8359 7.375C13.1875 6.98438 13.7734 6.98438 14.125 7.375C14.5156 7.72656 14.5156 8.3125 14.125 8.66406L9.125 13.6641ZM13.4609 14.25C12.7969 14.25 12.2109 13.7031 12.2109 13C12.2109 12.3359 12.7969 11.75 13.4609 11.75C14.1641 11.75 14.7109 12.3359 14.7109 13C14.7109 13.7031 14.1641 14.25 13.4609 14.25Z" fill="#FF6197"/>
</svg>
