<svg width="18" height="21" viewBox="0 0 18 21" fill="none" xmlns="http://www.w3.org/2000/svg">
<path d="M0.25 18C0.25 19.4062 1.34375 20.5 2.75 20.5H15.25C16.6172 20.5 17.75 19.4062 17.75 18V5.5H0.25V18ZM4.625 8.625H13.375C13.6875 8.625 14 8.9375 14 9.25C14 9.60156 13.6875 9.875 13.375 9.875H4.625C4.27344 9.875 4 9.60156 4 9.25C4 8.9375 4.27344 8.625 4.625 8.625ZM4.625 12.375H13.375C13.6875 12.375 14 12.6875 14 13C14 13.3516 13.6875 13.625 13.375 13.625H4.625C4.27344 13.625 4 13.3516 4 13C4 12.6875 4.27344 12.375 4.625 12.375ZM4.625 16.125H8.375C8.6875 16.125 9 16.4375 9 16.75C9 17.1016 8.6875 17.375 8.375 17.375H4.625C4.27344 17.375 4 17.1016 4 16.75C4 16.4375 4.27344 16.125 4.625 16.125ZM15.25 0.5H2.75C1.34375 0.5 0.25 1.63281 0.25 3V4.25H17.75V3C17.75 1.63281 16.6172 0.5 15.25 0.5Z" fill="#FFC961"/>
</svg>
