<svg width="19" height="18" viewBox="0 0 19 18" fill="none" xmlns="http://www.w3.org/2000/svg">
<path d="M9.83333 7.5C8.42708 7.5 7.33333 8.625 7.33333 10C7.33333 11.4063 8.42708 12.5 9.83333 12.5C11.2083 12.5 12.3333 11.4063 12.3333 10C12.3333 8.625 11.2083 7.5 9.83333 7.5ZM9.83333 11.5C8.98958 11.5 8.33333 10.8438 8.33333 10C8.33333 9.1875 8.98958 8.5 9.83333 8.5C10.6458 8.5 11.3333 9.1875 11.3333 10C11.3333 10.8438 10.6458 11.5 9.83333 11.5ZM16.8333 3H11.8333V2C11.8333 1.46875 11.3646 1 10.8333 1H8.83333C8.27083 1 7.83333 1.46875 7.83333 2V3H2.83333C1.70833 3 0.833328 3.90625 0.833328 5V15C0.833328 16.125 1.70833 17 2.83333 17H16.8333C17.9271 17 18.8333 16.125 18.8333 15V5C18.8333 3.90625 17.9271 3 16.8333 3ZM8.83333 2H10.8333V5H8.83333V2ZM12.8333 16H6.83333V15.3438C6.83333 15.0625 6.89583 14.7813 7.05208 14.5625C7.27083 14.2188 7.67708 14 8.14583 14C8.64583 14 8.89583 14.25 9.83333 14.25C10.7396 14.25 10.9896 14 11.4896 14C11.9583 14 12.3646 14.2188 12.5833 14.5625C12.7396 14.7813 12.8333 15.0625 12.8333 15.3438V16ZM17.8333 15C17.8333 15.5625 17.3646 16 16.8333 16H13.8333V15.3438C13.8333 14.8438 13.6771 14.375 13.4271 14C12.9896 13.3438 12.2396 13 11.4896 13C10.8021 13 10.6146 13.25 9.83333 13.25C9.02083 13.25 8.83333 13 8.14583 13C7.39583 13 6.67708 13.3438 6.23958 14C5.98958 14.375 5.83333 14.8438 5.83333 15.3438V16H2.83333C2.27083 16 1.83333 15.5625 1.83333 15V5C1.83333 4.46875 2.27083 4 2.83333 4H7.83333V6H11.8333V4H16.8333C17.3646 4 17.8333 4.46875 17.8333 5V15Z" fill="white" stroke="white" stroke-width="0.2"/>
</svg>
