<svg width="32" height="32" viewBox="0 0 32 32" fill="none" xmlns="http://www.w3.org/2000/svg">
<rect width="32" height="32" rx="16" fill="#FFC961"/>
<path d="M22.2745 16.4304C22.2268 16.3853 22.1608 16.3598 22.0918 16.3598C22.0227 16.3598 21.9567 16.3853 21.909 16.4304C21.7834 16.5573 20.6837 17.6903 20.6837 18.3365C20.6837 18.7913 20.952 19.2117 21.3877 19.4391C21.8234 19.6665 22.3602 19.6665 22.7959 19.4391C23.2315 19.2117 23.4999 18.7914 23.4999 18.3366C23.4982 17.6903 22.3985 16.5573 22.2745 16.4304Z" fill="white"/>
<path d="M21.7842 15.3687C22.2096 15.3687 22.6029 15.1634 22.8157 14.8302C23.0284 14.4969 23.0284 14.0865 22.8157 13.7532C22.6028 13.42 22.2096 13.2147 21.7842 13.2147H17.3428C17.546 12.9673 17.6214 12.653 17.5501 12.3516C17.4882 12.1076 17.3358 11.8901 17.1181 11.7352C16.9006 11.5804 16.6309 11.4975 16.354 11.5005H13.2995C12.0109 11.5427 10.7906 12.0352 9.89546 12.8744C9.00029 13.7136 8.50006 14.8341 8.50006 15.9999C8.50006 17.1658 9.00029 18.2863 9.89546 19.1256C10.7906 19.9648 12.011 20.4573 13.2995 20.4995H16.3802C16.6834 20.4978 16.9745 20.3916 17.1941 20.2025C17.4138 20.0135 17.5454 19.7557 17.5621 19.482C17.5788 19.2082 17.4793 18.939 17.2841 18.7292C17.6512 18.608 17.9289 18.3312 18.0267 17.9891C18.1244 17.6469 18.0297 17.2833 17.7736 17.0164C18.1284 16.9037 18.4033 16.6458 18.5145 16.3209C18.6258 15.9961 18.5604 15.6428 18.3382 15.3686L21.7842 15.3687Z" fill="white"/>
</svg>
