<svg width="52" height="52" viewBox="0 0 52 52" fill="none" xmlns="http://www.w3.org/2000/svg">
<g clip-path="url(#clip0_1_650)">
<rect width="52" height="52" rx="26" fill="#54D1FF"/>
<path d="M10.2773 36.0213C10.2773 36.0213 12.6431 30.7428 15.0979 30.2086C15.0979 30.2086 15.9755 30.7174 14.9453 32.5108C13.915 34.3042 10.2773 36.0213 10.2773 36.0213Z" fill="#18120E"/>
<path d="M11.2293 26.3293L15.6683 31.188L12.8573 34.8511C12.8573 34.8511 8.97798 29.5472 8.72359 27.8174C8.46921 26.0876 11.2293 26.3293 11.2293 26.3293Z" fill="#E3BB94"/>
<path d="M10.2773 36.0213C10.2773 36.0976 15.861 40.8673 18.9772 41.9738C20.2492 42.4063 23.7215 36.1739 21.8264 34.813C21.4321 34.5331 15.8611 30.8191 15.0979 30.2086C14.7036 32.0656 11.8418 35.0037 10.2773 36.0213Z" fill="#AC9E8C"/>
<g style="mix-blend-mode:multiply" opacity="0.5">
<path d="M21.8234 34.8129L20.0681 33.63C19.6229 34.1474 19.2269 34.7052 18.8852 35.2962C18.4985 36.0773 18.1793 36.89 17.9313 37.7256C17.8005 38.2513 17.4727 38.7067 17.0155 38.9975C15.9853 39.5317 14.6243 38.6922 13.734 38.2343C12.462 37.5984 11.5081 36.619 10.3125 35.9449C10.3125 36.0212 15.8962 40.7909 19.0124 41.8975C20.208 42.4062 23.7185 36.1738 21.8234 34.8129Z" fill="#AC9E8C"/>
</g>
<path d="M42.2635 37.1405C42.2635 37.1405 40.3556 31.684 37.9517 30.9463C37.9517 30.9463 37.0232 31.3915 37.9517 33.2612C38.8802 35.1309 42.2635 37.1405 42.2635 37.1405Z" fill="#18120E"/>
<path d="M26.9116 31.595L27.2168 35.6779C27.2168 35.6779 25.6142 39.6462 24.0879 39.4936C22.5616 39.341 22.5234 35.9958 22.5234 35.9958V31.5696L26.9116 31.595Z" fill="#E3BB94"/>
<path d="M18.6848 44.7593C18.9773 41.9229 19.0282 36.2375 19.9567 33.5156C20.3001 33.4393 22.5768 32.8287 22.5768 32.8287C22.916 34.7799 23.3747 36.7084 23.9505 38.6032C24.8633 36.6499 25.9043 34.7591 27.0667 32.9432L32.307 34.2151C32.307 34.2151 33.9477 50.5847 33.846 51.5005C33.8129 52.0868 33.9836 52.6665 34.3293 53.1412C34.8762 54.0443 33.2355 54.7693 33.2355 54.7693C24.6246 57.0206 19.0918 55.1763 18.9773 55.0872C18.8628 54.9982 17.4129 54.1969 17.9979 52.8487C18.4494 50.1758 18.6791 47.4701 18.6848 44.7593Z" fill="#C6B6A1"/>
<g style="mix-blend-mode:multiply">
<path d="M23.9888 39.0102C24.4212 38.3234 24.9173 37.662 25.4006 37.0006C26.3291 35.7287 27.2449 34.4568 28.237 33.1848L26.9651 32.8923C25.8027 34.7082 24.7617 36.599 23.8489 38.5523C23.2731 36.6574 22.8144 34.729 22.4752 32.7778L22.1445 32.8669C22.3331 35.2167 22.8028 37.5354 23.5436 39.7734C23.6769 39.5104 23.8255 39.2556 23.9888 39.0102Z" fill="#C6B6A1"/>
</g>
<g style="mix-blend-mode:multiply">
<path d="M34.2786 53.1284C33.9329 52.6537 33.7621 52.074 33.7952 51.4877C33.897 50.5719 32.2562 34.2023 32.2562 34.2023L29.9286 33.6427C29.2672 34.9146 29.7251 36.6063 29.7124 38.0054C29.7467 40.02 29.6404 42.0345 29.3944 44.0343C29.1625 45.9324 28.4967 47.7516 27.4484 49.3509C26.978 50.0602 26.4083 50.6984 25.7567 51.246C25.2352 51.6658 24.5484 51.8438 24.0396 52.2636C27.073 51.3468 29.7054 49.4275 31.5058 46.8197C31.5058 46.8197 31.6711 46.8197 31.6584 46.8197C31.5798 48.483 31.0572 50.0948 30.1448 51.4877C29.0962 53.0155 27.5274 54.1096 25.7313 54.5657C24.8778 54.832 23.9802 54.9276 23.0897 54.8468C22.1993 54.7661 21.3335 54.5106 20.5419 54.0951C19.0028 53.1539 18.6594 51.4622 18.5577 49.7706L18.4814 48.4987C18.4519 49.9421 18.2729 51.3785 17.9471 52.785C17.3621 54.1333 18.8121 54.9473 18.9265 55.0236C19.041 55.0999 24.5738 56.9569 33.1847 54.7056C33.1847 54.7565 34.8255 54.0315 34.2786 53.1284Z" fill="#C6B6A1"/>
</g>
<path d="M42.8104 28.4661C42.8485 27.7204 42.8485 26.9732 42.8104 26.2275C42.8104 25.4898 42.8104 24.7648 42.8104 24.0271C42.8301 23.2795 42.6454 22.5406 42.2761 21.8903L42.5433 21.9793C42.8044 22.0743 43.0794 22.1259 43.3573 22.1319C43.3573 22.1319 43.4463 22.1319 43.4208 22.0429C43.0384 21.3954 42.5008 20.8534 41.8564 20.4657C42.1163 19.7439 42.1648 18.9629 41.9963 18.2144C41.9963 18.2144 41.9963 18.1254 41.92 18.2144C41.7292 18.5197 41.3095 18.914 40.9915 19.3337C40.6014 17.5899 39.803 15.9635 38.6621 14.5882C37.5212 13.2129 36.0702 12.1279 34.4284 11.4224C29.8877 9.34918 24.4439 10.0742 20.1194 7.5049L20.0176 7.42859L19.954 7.5049C20.501 8.14086 21.0606 8.77682 21.5567 9.43822L21.9382 9.99785C21.5948 9.99785 21.2387 9.99786 20.8952 10.0742C20.1227 10.2132 19.3762 10.4706 18.6821 10.8373C18.6185 10.8373 18.6821 10.9645 18.6821 10.9518C19.0879 11.2166 19.5131 11.4505 19.954 11.6513C20.2211 11.7658 20.4628 11.9057 20.7299 12.0456C19.8621 12.3524 19.0127 12.7092 18.1861 13.1141C18.1861 13.1141 18.1225 13.114 18.1861 13.1904C18.7673 13.3961 19.2968 13.726 19.7378 14.157C19.6031 15.4351 19.2683 16.6842 18.7457 17.8583C18.1988 19.2574 17.4738 20.6692 17.0795 22.1065C17.0669 22.1345 17.0603 22.1648 17.0603 22.1955C17.0603 22.2262 17.0669 22.2566 17.0795 22.2846C16.955 22.5951 16.907 22.931 16.9396 23.2639C17.0855 23.96 17.3902 24.6129 17.8299 25.1718C18.7861 26.4535 19.9936 27.5268 21.3786 28.3262C24.1895 30.234 27.471 31.8239 30.9434 30.87C31.3885 30.87 31.8337 30.87 32.2153 30.87C33.2228 30.9834 34.2429 30.897 35.217 30.6156C36.1328 30.3231 36.985 29.8779 37.888 29.5726C38.9342 29.2553 40.0522 29.2641 41.0933 29.5981C41.1068 29.6059 41.1222 29.61 41.1378 29.61C41.1534 29.61 41.1688 29.6059 41.1823 29.5981H41.284C41.2366 29.2685 41.1557 28.9445 41.0424 28.6314C41.0424 28.4915 40.9661 28.3643 40.9406 28.2371H41.2586C41.7749 28.2977 42.2801 28.4304 42.7595 28.6314H42.8358C42.8577 28.628 42.8774 28.6161 42.8905 28.5982C42.9036 28.5803 42.9091 28.5579 42.9057 28.536C42.9023 28.5141 42.8904 28.4944 42.8725 28.4813C42.8546 28.4682 42.8323 28.4627 42.8104 28.4661Z" fill="#7D7D7D"/>
<path d="M32.0273 30.5775C32.0693 30.9107 32.1937 31.2282 32.3891 31.5013C32.5845 31.7744 32.8448 31.9946 33.1466 32.1419C33.6747 32.3083 34.2438 32.2893 34.7597 32.0881C35.2755 31.8868 35.7071 31.5154 35.983 31.0354C36.4663 30.2595 36.8606 29.2165 35.5633 29.2292C34.6848 29.2633 33.8211 29.4662 33.0194 29.827L32.0273 30.5775Z" fill="#EDC8A5"/>
<path d="M19.0279 19.9187C19.0279 19.9187 19.0279 18.2144 17.9214 18.2017C17.6764 18.2183 17.4376 18.2855 17.2199 18.3989C17.0022 18.5123 16.8102 18.6695 16.6562 18.8606C16.5021 19.0517 16.3892 19.2726 16.3246 19.5094C16.2599 19.7462 16.2449 19.9938 16.2806 20.2367C16.2806 20.8981 17.12 22.5643 17.5525 22.6025C17.9849 22.6406 19.0279 19.9187 19.0279 19.9187Z" fill="#EDC8A5"/>
<path d="M17.9832 20.5929C18.0214 20.357 18.0214 20.1165 17.9832 19.8806C17.9759 19.7823 17.9423 19.6878 17.8857 19.607C17.8291 19.5263 17.7518 19.4623 17.6619 19.4219C17.572 19.3815 17.4728 19.3662 17.3748 19.3775C17.2769 19.3889 17.1839 19.4265 17.1056 19.4863C17.2964 19.4863 17.4999 19.4863 17.6143 19.6135C17.6854 19.76 17.7203 19.9214 17.7161 20.0841C17.4846 20.0567 17.2508 20.1107 17.0547 20.2368C17.0547 20.2368 17.0547 20.3258 17.0547 20.3131C17.263 20.2302 17.495 20.2302 17.7033 20.3131C17.7033 20.4021 17.7033 20.5039 17.7033 20.5929C17.6719 20.7353 17.6719 20.8829 17.7033 21.0254C17.7222 21.0432 17.7473 21.0532 17.7733 21.0532C17.7993 21.0532 17.8244 21.0432 17.8433 21.0254C17.9577 21.0126 17.9577 20.6947 17.9832 20.5929Z" fill="#C19168"/>
<path d="M38.1055 21.5851C37.582 19.5313 36.4518 17.683 34.8622 16.2812C33.6212 15.0527 32.1042 14.1392 30.438 13.617C28.7718 13.0948 27.0047 12.979 25.2846 13.2795C24.1489 13.3127 23.0658 13.7659 22.2447 14.5514C21.6608 15.2291 21.1925 15.9983 20.8584 16.8281C20.3964 17.8143 19.7182 18.6838 18.8742 19.3719C17.6023 20.4149 15.8852 23.582 17.3733 27.8302C18.6452 31.6459 23.0715 33.452 27.0144 32.9941C28.5251 32.8305 29.9847 32.352 31.2992 31.5896C32.6136 30.8273 33.7537 29.7979 34.6459 28.5679L35.5363 27.296C35.5614 27.3105 35.5899 27.3181 35.6189 27.3181C35.648 27.3181 35.6765 27.3105 35.7016 27.296C36.6094 26.6763 37.319 25.8079 37.7454 24.7949C38.1718 23.7819 38.2969 22.6674 38.1055 21.5851Z" fill="#F2D7BD"/>
<path style="mix-blend-mode:multiply" d="M38.1055 21.5851C37.582 19.5313 36.4518 17.683 34.8622 16.2812C33.6212 15.0527 32.1042 14.1392 30.438 13.617C28.7718 13.0948 27.0047 12.979 25.2846 13.2795C24.1489 13.3127 23.0658 13.7659 22.2447 14.5514C21.6608 15.2291 21.1925 15.9983 20.8584 16.8281C20.3964 17.8143 19.7182 18.6838 18.8742 19.3719C17.6023 20.4149 15.8852 23.582 17.3733 27.8302C18.6452 31.6459 23.0715 33.452 27.0144 32.9941C28.5251 32.8305 29.9847 32.352 31.2992 31.5896C32.6136 30.8273 33.7537 29.7979 34.6459 28.5679L35.5363 27.296C35.5614 27.3105 35.5899 27.3181 35.6189 27.3181C35.648 27.3181 35.6765 27.3105 35.7016 27.296C36.6094 26.6763 37.319 25.8079 37.7454 24.7949C38.1718 23.7819 38.2969 22.6674 38.1055 21.5851Z" fill="url(#paint0_radial_1_650)"/>
<g style="mix-blend-mode:multiply" opacity="0.5">
<path d="M18.3904 20.8982C18.5544 20.7505 18.7575 20.6533 18.9755 20.6184C19.3575 20.5411 19.732 20.4304 20.0948 20.2877C20.9713 19.9667 21.7089 19.3506 22.1807 18.5451C22.5496 17.9092 22.8421 17.4004 23.6434 17.2732C24.1736 17.3123 24.7017 17.1736 25.1443 16.8789C25.2714 16.72 25.3527 16.5295 25.3796 16.3278C25.4065 16.1261 25.3779 15.9209 25.2969 15.7342C25.1951 15.3018 25.6149 15.1746 25.9201 14.9583C26.6403 14.4926 27.2067 13.8244 27.5482 13.0378C26.7877 12.9968 26.0252 13.0653 25.2842 13.2413C24.1484 13.2745 23.0653 13.7277 22.2443 14.5132C21.6604 15.1909 21.192 15.9601 20.8579 16.7899C20.396 17.7761 19.7178 18.6456 18.8737 19.3337C17.8507 20.2967 17.1753 21.5714 16.9531 22.9587C17.3952 22.2468 17.875 21.559 18.3904 20.8982Z" fill="#EDC8A5"/>
</g>
<g style="mix-blend-mode:multiply" opacity="0.5">
<path d="M19.8906 25.6424C20.2542 26.3634 20.8835 26.9152 21.6459 27.1814C21.3915 26.4437 20.5902 25.4007 19.8906 25.6424Z" fill="#EDC8A5"/>
</g>
<g style="mix-blend-mode:multiply" opacity="0.5">
<path d="M38.1051 21.5851C37.5816 19.5313 36.4513 17.683 34.8617 16.2812C33.6208 15.0527 32.1038 14.1392 30.4376 13.617C28.7713 13.0948 27.0043 12.979 25.2842 13.2795C24.1484 13.3127 23.0653 13.7659 22.2443 14.5514C22.1081 14.6791 21.9846 14.8196 21.8755 14.9711C24.2158 16.243 29.5069 18.0491 29.3925 18.1255C28.7187 18.6495 28.0089 19.1255 27.2684 19.55C27.8847 19.7901 28.513 19.9981 29.1508 20.1732C30.5952 20.6126 32.084 20.8899 33.5898 21C33.6204 21.9008 33.5779 22.8025 33.4626 23.6964C33.9452 23.439 34.4522 23.2302 34.9762 23.0732C35.1034 23.0732 33.4117 28.0209 31.7582 29.7126C30.1148 31.4025 27.8817 32.3915 25.5259 32.4727C24.3341 32.5084 23.1487 32.2859 22.051 31.8204C20.9532 31.355 19.9692 30.6576 19.1663 29.7762C18.1803 28.6655 17.4276 27.3679 16.9531 25.9605C17.0512 26.5929 17.2088 27.2146 17.4238 27.8174C18.6957 31.6332 23.1219 33.4393 27.0649 32.9814C28.5756 32.8178 30.0352 32.3393 31.3496 31.5769C32.6641 30.8146 33.8041 29.7852 34.6964 28.5552L35.5867 27.2832C35.6118 27.2978 35.6403 27.3054 35.6694 27.3054C35.6984 27.3054 35.7269 27.2978 35.752 27.2832C36.6483 26.6581 37.3464 25.789 37.7635 24.7789C38.1806 23.7689 38.2991 22.6604 38.1051 21.5851Z" fill="#EDC8A5"/>
</g>
<path d="M26.8883 25.9476C26.6467 26.3801 26.2651 26.6217 26.0489 26.4945C25.8327 26.3674 25.8327 25.9222 26.0489 25.4897C26.2651 25.0573 26.6721 24.8156 26.901 24.9428C27.13 25.07 27.1045 25.5152 26.8883 25.9476Z" fill="#3D1B0B"/>
<path d="M26.5961 25.3499C26.5198 25.4771 26.3926 25.5406 26.329 25.5025C26.2655 25.4643 26.329 25.3244 26.329 25.1972C26.329 25.07 26.5325 25.0192 26.5961 25.0573C26.6597 25.0955 26.6852 25.2354 26.5961 25.3499Z" fill="white"/>
<path d="M21.4166 22.8442C21.1749 23.2767 20.8061 23.5183 20.5771 23.3911C20.3482 23.264 20.3609 22.8188 20.5771 22.3863C20.7934 21.9539 21.2004 21.7122 21.4293 21.8394C21.6583 21.9666 21.6583 22.4118 21.4166 22.8442Z" fill="#3D1B0B"/>
<path d="M21.1391 22.2592C21.0501 22.3736 20.9356 22.4372 20.872 22.3991C20.8084 22.3609 20.872 22.221 20.872 22.1065C20.872 21.9921 21.0882 21.9157 21.1518 21.9539C21.2154 21.9921 21.2281 22.132 21.1391 22.2592Z" fill="white"/>
<path d="M35.2693 30.2595C34.786 29.738 33.7175 30.4248 33.2851 30.6919V30.7683L33.9338 30.5012C34.0737 30.7174 34.3153 30.9336 34.2899 31.2134C34.2899 31.2134 34.3662 31.2897 34.3789 31.2134C34.4057 31.0711 34.4013 30.9247 34.3662 30.7842C34.3311 30.6437 34.266 30.5124 34.1754 30.3994C34.3949 30.34 34.6228 30.3185 34.8495 30.3358C35.3837 30.3994 34.9513 31.0608 34.8495 31.3025C34.7478 31.5441 34.9132 31.4297 34.9513 31.3788C35.2311 31.1498 35.5745 30.5775 35.2693 30.2595Z" fill="#C19168"/>
<path d="M29.3421 24.7902C29.1433 24.3086 28.8441 23.875 28.4645 23.5183C27.9176 23.0477 27.0145 22.8187 26.7474 22.1319C26.6822 22.3239 26.627 22.5192 26.582 22.717C26.6563 22.9346 26.7882 23.128 26.9636 23.2766C27.7487 23.7685 28.4968 24.3168 29.2022 24.9174C29.2022 24.8792 29.4057 24.9428 29.3421 24.7902Z" fill="#7D7D7D"/>
<path d="M22.6118 24.5104C21.6858 24.5133 20.7885 24.8318 20.068 25.4134C19.4447 25.9222 20.8438 26.7871 21.2127 26.8761C21.2127 26.8761 21.3653 26.7617 21.3144 26.7362C20.882 26.4691 19.6228 25.8204 20.4622 25.3117C21.1052 24.8963 21.8375 24.6391 22.5991 24.5613C22.5991 24.5613 22.6245 24.5104 22.6118 24.5104Z" fill="#C39368"/>
<g style="mix-blend-mode:multiply" opacity="0.5">
<path d="M18.4297 23.035C22.4118 24.0215 26.101 25.9445 29.1901 28.6441C28.1391 26.7616 26.5604 25.2275 24.6485 24.2308C22.7366 23.2342 20.5749 22.8185 18.4297 23.035Z" fill="#EDC8A5"/>
</g>
<path d="M40.7883 29.4581L37.5703 32.3072L39.6817 35.5633C40.9918 34.3751 42.0963 32.9783 42.9505 31.4296C43.5483 29.7761 40.7883 29.4581 40.7883 29.4581Z" fill="#E3BB94"/>
<path d="M43.6377 29.8525C43.5106 30.3485 43.0908 32.0656 41.8698 32.0656C38.9189 32.0656 34.2383 20.275 34.2383 20.275L36.6295 19.2701C36.6295 19.2701 43.0272 26.5328 43.6377 29.8525Z" fill="#F4D9BF"/>
<path d="M35.8651 12.7833C35.4835 12.7833 34.9111 13.2158 34.7203 14.4368C33.8576 13.405 32.6764 12.6892 31.3625 12.4018C31.1837 12.3532 30.9943 12.36 30.8195 12.4213C30.6446 12.4827 30.4924 12.5956 30.3831 12.7452C30.3831 12.7452 29.7217 12.6053 29.5182 12.8978C29.3274 13.5592 30.5612 14.0298 31.4007 14.9201C30.8156 14.7166 28.9586 14.0044 28.7424 14.7675C28.5261 15.5307 30.5866 15.7978 31.4388 16.6627C30.7011 16.3829 29.4546 16.332 29.4673 16.8153C29.48 17.2986 30.5103 17.6548 31.2226 17.871C31.9348 18.0872 31.5787 18.596 32.2783 19.5881C32.5708 19.9188 33.9318 21.8648 34.962 21.763C35.463 21.6665 35.9345 21.454 36.3387 21.1426C36.7429 20.8312 37.0685 20.4295 37.2896 19.9697C37.1928 18.3384 36.7598 16.7449 36.0177 15.289C35.6616 14.475 36.2594 12.7706 35.8651 12.7833Z" fill="#F4D9BF"/>
<path d="M30.3867 12.7452H30.603C30.8027 12.7821 30.9985 12.8375 31.188 12.9106L31.5569 13.0632L31.7604 13.1523L31.9512 13.2667L32.3582 13.5211L32.7652 13.8136L33.1341 14.1443L33.4648 14.4878L33.7573 14.8312L33.999 15.1492C34.0683 15.2384 34.132 15.3319 34.1898 15.429L34.317 15.6579L34.4314 15.8487L34.2915 15.6706L34.1262 15.4671L33.9099 15.2128L33.6556 14.9202L33.3503 14.6022L33.0069 14.2843C32.8899 14.1716 32.7667 14.0654 32.638 13.9663L32.2564 13.6737C32.1165 13.5847 32.0021 13.4829 31.8749 13.4194L31.4933 13.1904C31.3788 13.1141 31.2517 13.0632 31.1372 12.9996C31.0227 12.936 30.7302 12.8216 30.603 12.7834L30.3867 12.7452Z" fill="#C39368"/>
<path d="M31.3516 14.8439H31.466L31.7459 14.9456C31.8603 14.9456 31.9875 15.0601 32.1274 15.1237L32.3309 15.2509C32.4085 15.2884 32.4811 15.3354 32.5472 15.3908C32.6814 15.4829 32.8051 15.5895 32.916 15.7088L33.0687 15.8741L33.1959 16.0268C33.2753 16.1408 33.3475 16.2598 33.4121 16.3829C33.4121 16.3829 33.2722 16.2684 33.1068 16.1031C33.0665 16.0542 33.0194 16.0114 32.9669 15.9759L32.8016 15.8232L32.6235 15.6833L32.4327 15.5434L32.2292 15.4035L32.0384 15.2636C31.9112 15.1873 31.7967 15.0982 31.695 15.0474L31.3516 14.8439Z" fill="#C39368"/>
<path d="M31.4023 16.5991C31.4903 16.6246 31.5755 16.6586 31.6567 16.7009L31.8984 16.8153L32.1528 16.9934C32.2381 17.0507 32.3189 17.1145 32.3944 17.1842L32.5852 17.3877C32.6472 17.4543 32.7025 17.5267 32.7506 17.6039L32.5089 17.4767L32.2927 17.3241L32.0383 17.146L31.7966 16.9553L31.5931 16.7899L31.4023 16.5991Z" fill="#C39368"/>
<path d="M34.7354 14.4369C34.7861 14.4697 34.833 14.5081 34.8753 14.5514C34.9674 14.6354 35.0448 14.7343 35.1043 14.8439C35.1769 14.9444 35.2328 15.0561 35.2696 15.1746C35.2753 15.2296 35.2753 15.285 35.2696 15.3399L35.1297 15.2382C35.0405 15.1515 34.9635 15.0531 34.9007 14.9457C34.8291 14.838 34.7694 14.7228 34.7227 14.6022C34.7242 14.5469 34.7284 14.4918 34.7354 14.4369Z" fill="#C39368"/>
<path d="M40.7883 29.4581L37.5703 32.3072L39.6817 35.5633C40.9918 34.3751 42.0963 32.9783 42.9505 31.4296C43.5483 29.7761 40.7883 29.4581 40.7883 29.4581Z" fill="#E3BB94"/>
<path d="M43.6377 29.8525C43.5106 30.3485 43.0908 32.0656 41.8698 32.0656C38.9189 32.0656 34.2383 20.275 34.2383 20.275L36.6295 19.2701C36.6295 19.2701 43.0272 26.5328 43.6377 29.8525Z" fill="#F4D9BF"/>
<path d="M35.8651 12.7833C35.4835 12.7833 34.9111 13.2158 34.7203 14.4368C33.8576 13.405 32.6764 12.6892 31.3625 12.4018C31.1837 12.3532 30.9943 12.36 30.8195 12.4213C30.6446 12.4827 30.4924 12.5956 30.3831 12.7452C30.3831 12.7452 29.7217 12.6053 29.5182 12.8978C29.3274 13.5592 30.5612 14.0298 31.4007 14.9201C30.8156 14.7166 28.9586 14.0044 28.7424 14.7675C28.5261 15.5307 30.5866 15.7978 31.4388 16.6627C30.7011 16.3829 29.4546 16.332 29.4673 16.8153C29.48 17.2986 30.5103 17.6548 31.2226 17.871C31.9348 18.0872 31.5787 18.596 32.2783 19.5881C32.5708 19.9188 33.9318 21.8648 34.962 21.763C35.463 21.6665 35.9345 21.454 36.3387 21.1426C36.7429 20.8312 37.0685 20.4295 37.2896 19.9697C37.1928 18.3384 36.7598 16.7449 36.0177 15.289C35.6616 14.475 36.2594 12.7706 35.8651 12.7833Z" fill="#F4D9BF"/>
<path d="M30.3867 12.7452H30.603C30.8027 12.7821 30.9985 12.8375 31.188 12.9106L31.5569 13.0632L31.7604 13.1523L31.9512 13.2667L32.3582 13.5211L32.7652 13.8136L33.1341 14.1443L33.4648 14.4878L33.7573 14.8312L33.999 15.1492C34.0683 15.2384 34.132 15.3319 34.1898 15.429L34.317 15.6579L34.4314 15.8487L34.2915 15.6706L34.1262 15.4671L33.9099 15.2128L33.6556 14.9202L33.3503 14.6022L33.0069 14.2843C32.8899 14.1716 32.7667 14.0654 32.638 13.9663L32.2564 13.6737C32.1165 13.5847 32.0021 13.4829 31.8749 13.4194L31.4933 13.1904C31.3788 13.1141 31.2517 13.0632 31.1372 12.9996C31.0227 12.936 30.7302 12.8216 30.603 12.7834L30.3867 12.7452Z" fill="#C39368"/>
<path d="M31.3516 14.8439H31.466L31.7459 14.9456C31.8603 14.9456 31.9875 15.0601 32.1274 15.1237L32.3309 15.2509C32.4085 15.2884 32.4811 15.3354 32.5472 15.3908C32.6814 15.4829 32.8051 15.5895 32.916 15.7088L33.0687 15.8741L33.1959 16.0268C33.2753 16.1408 33.3475 16.2598 33.4121 16.3829C33.4121 16.3829 33.2722 16.2684 33.1068 16.1031C33.0665 16.0542 33.0194 16.0114 32.9669 15.9759L32.8016 15.8232L32.6235 15.6833L32.4327 15.5434L32.2292 15.4035L32.0384 15.2636C31.9112 15.1873 31.7967 15.0982 31.695 15.0474L31.3516 14.8439Z" fill="#C39368"/>
<path d="M31.4023 16.5991C31.4903 16.6246 31.5755 16.6586 31.6567 16.7009L31.8984 16.8153L32.1528 16.9934C32.2381 17.0507 32.3189 17.1145 32.3944 17.1842L32.5852 17.3877C32.6472 17.4543 32.7025 17.5267 32.7506 17.6039L32.5089 17.4767L32.2927 17.3241L32.0383 17.146L31.7966 16.9553L31.5931 16.7899L31.4023 16.5991Z" fill="#C39368"/>
<path d="M34.7354 14.4369C34.7861 14.4697 34.833 14.5081 34.8753 14.5514C34.9674 14.6354 35.0448 14.7343 35.1043 14.8439C35.1769 14.9444 35.2328 15.0561 35.2696 15.1746C35.2753 15.2296 35.2753 15.285 35.2696 15.3399L35.1297 15.2382C35.0405 15.1515 34.9635 15.0531 34.9007 14.9457C34.8291 14.838 34.7694 14.7228 34.7227 14.6022C34.7242 14.5469 34.7284 14.4918 34.7354 14.4369Z" fill="#C39368"/>
<path d="M42.2633 37.1405C42.2633 37.2168 36.4124 41.6049 33.2072 42.4571C31.9353 42.7878 29.1625 35.3598 31.1849 34.1642C31.5919 33.9226 37.1374 31.4932 37.9515 30.9463C38.1804 32.8414 40.7497 35.9576 42.2633 37.1405Z" fill="#AC9E8C"/>
<g style="mix-blend-mode:multiply" opacity="0.5">
<path d="M38.3211 32.1418C38.4483 32.6888 38.6263 33.223 38.7917 33.7317C38.957 34.2405 39.2368 35.0037 39.4658 35.5633C39.6663 35.9585 39.7791 36.3924 39.7965 36.8352C39.7965 37.4457 39.1351 37.9291 38.6645 38.2343C38.0293 38.622 37.3709 38.9703 36.693 39.2773C36.1334 39.5444 35.5737 39.8115 35.0014 40.0532C34.4805 40.2918 33.9343 40.471 33.3733 40.5874C32.572 40.6891 32.1014 40.0659 31.7198 39.4681C31.097 38.5719 30.7198 37.5282 30.626 36.4409C30.6028 35.7558 30.6975 35.0717 30.9058 34.4186C29.4558 36.1357 32.0124 42.7751 33.208 42.4698C36.4132 41.6176 42.3022 37.2295 42.264 37.1532C40.6148 35.7758 39.2718 34.0688 38.3211 32.1418Z" fill="#AC9E8C"/>
</g>
<path d="M8.35539 26.1385C8.35539 26.6472 8.43171 28.4025 9.62731 28.6823C12.5018 29.2928 19.5228 18.7105 19.5228 18.7105L17.3987 17.235C17.3987 17.235 9.64003 23.0095 8.35539 26.1385Z" fill="#F4D9BF"/>
<path d="M19.4712 11.0154C19.84 11.1045 20.3234 11.6514 20.2598 12.8724C21.3178 12.0487 22.6202 11.6011 23.961 11.6005C24.1458 11.5907 24.3292 11.6363 24.4878 11.7315C24.6465 11.8267 24.7731 11.9671 24.8514 12.1347C24.8514 12.1347 25.5255 12.1347 25.6654 12.4527C25.6654 13.1395 24.3935 13.3558 23.4014 14.0553C24.0119 13.9663 25.9452 13.661 26.047 14.4496C26.1488 15.2382 24.0119 15.0856 23.0071 15.7215C23.7957 15.607 25.0295 15.8105 24.915 16.2812C24.8005 16.7518 23.7194 16.8917 22.9689 16.9553C22.2185 17.0189 22.4729 17.5912 21.5953 18.418C21.2392 18.6724 19.4966 20.3004 18.5172 20.0079C18.0466 19.806 17.6294 19.4975 17.2983 19.1068C16.9672 18.7162 16.7314 18.2539 16.6094 17.7566C17.0271 16.1789 17.7773 14.7088 18.8098 13.4448C19.3186 12.7071 19.1023 10.9264 19.4712 11.0154Z" fill="#F4D9BF"/>
<path d="M24.8514 12.1093H24.6225H24.0247L23.6304 12.1856H23.4142L23.1979 12.2619C23.0414 12.3057 22.8884 12.361 22.74 12.4273L22.2949 12.6308L21.8624 12.8724L21.4681 13.1395L21.112 13.4194L20.8067 13.6865L20.565 13.9154L20.387 14.1062L20.2344 14.2843L20.4124 14.1444L20.6159 13.979C20.6998 13.9008 20.789 13.8285 20.883 13.7628L21.201 13.5338L21.5572 13.2795L22.015 13.0632L22.4348 12.8343L22.8672 12.6181L23.2997 12.44L23.7194 12.3001C23.8393 12.256 23.9627 12.222 24.0883 12.1983C24.3299 12.1983 24.5334 12.0966 24.6733 12.0839L24.8514 12.1093Z" fill="#C39368"/>
<path d="M23.4643 13.9662H23.3498H23.0573C22.9154 13.991 22.7751 14.0249 22.6376 14.0679L22.4214 14.1443C22.345 14.1443 22.256 14.1443 22.1924 14.2333C22.0427 14.3035 21.8982 14.3842 21.7599 14.475L21.5692 14.6021L21.4165 14.7293C21.2385 14.9074 21.1367 15.0346 21.1367 15.0346C21.2565 14.9714 21.3713 14.8991 21.4801 14.8184C21.5354 14.7812 21.5953 14.7512 21.6582 14.7293L21.849 14.6149L22.0525 14.5131L22.2687 14.4114L22.4849 14.3223L22.7012 14.2206L23.0827 14.0807L23.4643 13.9662Z" fill="#C39368"/>
<path d="M23.0576 15.6706C22.9688 15.6612 22.8792 15.6612 22.7904 15.6706L22.5361 15.7469L22.2435 15.8614L21.9637 16.0013L21.7348 16.1667C21.6604 16.2181 21.5921 16.2779 21.5312 16.3447C21.6186 16.3231 21.7038 16.2933 21.7856 16.2557L22.04 16.1539L22.3198 16.0395L22.5997 15.9123L22.8286 15.7851L23.0576 15.6706Z" fill="#C39368"/>
<path d="M20.2593 12.8724C20.2004 12.8945 20.1448 12.9245 20.0939 12.9615C19.8804 13.0905 19.7014 13.2694 19.5724 13.483C19.5421 13.5357 19.5166 13.591 19.4961 13.6483L19.6488 13.5593C19.7552 13.495 19.8534 13.4182 19.9413 13.3303C20.03 13.2432 20.107 13.1449 20.1702 13.0378C20.2072 12.9869 20.2371 12.9313 20.2593 12.8724Z" fill="#C39368"/>
<path d="M32.4728 23.6455C32.4728 23.6455 31.5061 25.1591 31.7732 25.299C31.7732 25.299 32.0658 25.5407 32.2057 25.1336C32.3274 24.644 32.4166 24.1469 32.4728 23.6455Z" fill="#C0E5F0"/>
<path d="M33.718 23.3148C33.718 23.3148 32.8404 24.3578 33.0694 24.4595C33.1028 24.4816 33.1407 24.4962 33.1803 24.5023C33.2199 24.5085 33.2604 24.5061 33.299 24.4952C33.3376 24.4843 33.3734 24.4653 33.404 24.4394C33.4346 24.4135 33.4593 24.3813 33.4764 24.3451C33.586 24.0091 33.6668 23.6645 33.718 23.3148Z" fill="#C0E5F0"/>
<path d="M32.1008 21.3434C32.1008 21.3434 31.2232 22.3864 31.4522 22.4881C31.4857 22.5102 31.5235 22.5247 31.5631 22.5309C31.6027 22.537 31.6432 22.5346 31.6818 22.5238C31.7204 22.5129 31.7562 22.4939 31.7868 22.468C31.8174 22.4421 31.8421 22.4099 31.8591 22.3736C31.9638 22.0363 32.0446 21.6921 32.1008 21.3434Z" fill="#C0E5F0"/>
</g>
<defs>
<radialGradient id="paint0_radial_1_650" cx="0" cy="0" r="1" gradientUnits="userSpaceOnUse" gradientTransform="translate(30.296 17.4513) scale(11.7525 11.7525)">
<stop offset="0.34" stop-color="#F9CBC0"/>
<stop offset="0.94" stop-color="white"/>
</radialGradient>
<clipPath id="clip0_1_650">
<rect width="52" height="52" rx="26" fill="white"/>
</clipPath>
</defs>
</svg>
