<svg width="24" height="24" viewBox="0 0 24 24" fill="none" xmlns="http://www.w3.org/2000/svg">
<g opacity="0.5">
<path d="M5.84443 14.044C4.26542 12.7012 3.3365 10.3349 3.59202 8.33578L3.59202 8.33577C3.72692 7.28023 4.23933 5.88146 5.95134 5.0469L5.95174 5.04671C7.86851 4.11044 9.32322 4.67277 10.2336 5.30989C10.7421 5.67279 11.1885 6.11388 11.5562 6.61632L11.9993 7.22191L12.4434 6.61703C12.6931 6.2769 13.1395 5.74968 13.765 5.31111C14.6733 4.67443 16.1313 4.11141 18.0489 5.04684L18.0493 5.04703C19.7609 5.88031 20.2734 7.27997 20.408 8.33563L20.408 8.33569C20.6633 10.3353 19.7349 12.7012 18.156 14.0439C16.1975 15.7091 12.797 18.6707 12.0001 19.3654C11.2003 18.6681 7.80195 15.7085 5.84443 14.044ZM5.84443 14.044L5.48812 14.463L5.84443 14.044ZM11.8298 19.5138C11.8299 19.5138 11.8299 19.5138 11.83 19.5137L11.8298 19.5138Z" stroke="#040E16" stroke-width="1.1"/>
<path d="M6.95152 11.8614C6.98875 11.8615 7.02508 11.8485 7.0555 11.8241C7.08591 11.7998 7.1089 11.7654 7.12129 11.7256L7.40484 10.7751L8.15534 14.8379C8.16397 14.8844 8.18667 14.926 8.21951 14.9556C8.25236 14.9852 8.29329 15.0009 8.33526 15C8.37722 14.999 8.41758 14.9815 8.44937 14.9505C8.48116 14.9195 8.50239 14.8768 8.50941 14.83L9.33972 9.27833L9.96311 12.527C9.97138 12.5698 9.99164 12.6085 10.0209 12.6373C10.0501 12.6661 10.0867 12.6835 10.1254 12.6869C10.164 12.6902 10.2026 12.6794 10.2353 12.656C10.2681 12.6326 10.2934 12.5978 10.3073 12.5569L10.7853 11.1518L11.0021 11.7375C11.0157 11.7746 11.0388 11.8063 11.0683 11.8286C11.0979 11.8509 11.1326 11.8627 11.1681 11.8627H12.5101C12.5476 11.8627 12.5842 11.8495 12.6147 11.8248C12.6453 11.8001 12.6682 11.7652 12.6804 11.725L12.9654 10.787L13.7139 14.8375C13.7223 14.8834 13.7445 14.9245 13.7765 14.9541C13.8086 14.9837 13.8487 14.9998 13.89 14.9999H13.8935C13.9355 14.999 13.9759 14.9816 14.0077 14.9505C14.0395 14.9195 14.0607 14.8769 14.0677 14.83L14.898 9.27833L15.5216 12.527C15.5299 12.5698 15.5502 12.6085 15.5794 12.6373C15.6086 12.6661 15.6453 12.6835 15.6839 12.6869C15.7226 12.6902 15.7611 12.6794 15.7939 12.656C15.8267 12.6326 15.8519 12.5978 15.8658 12.5569L16.3438 11.1518L16.5603 11.7375C16.5741 11.7746 16.5972 11.8062 16.6268 11.8285C16.6564 11.8508 16.6911 11.8627 16.7266 11.8627H19.861C19.9103 11.7279 19.957 11.5919 20 11.4548H16.8465L16.5032 10.5273C16.4895 10.4902 16.4664 10.4585 16.4369 10.4363C16.4073 10.414 16.3727 10.4021 16.3372 10.4021H16.3345C16.2985 10.4028 16.2635 10.4157 16.2339 10.4391C16.2044 10.4625 16.1817 10.4954 16.1688 10.5335L15.746 11.7763L15.0521 8.16084C15.0435 8.11433 15.0207 8.07273 14.9878 8.04334C14.9548 8.01395 14.9138 7.99865 14.8719 8.00011C14.8299 8.00111 14.7896 8.01862 14.7578 8.04963C14.726 8.08064 14.7048 8.12322 14.6977 8.17004L13.8715 13.699L13.1842 9.97874C13.1767 9.93434 13.1563 9.89404 13.1263 9.86418C13.0963 9.83432 13.0584 9.81659 13.0185 9.81377C12.9787 9.81095 12.9391 9.8232 12.9061 9.8486C12.873 9.87399 12.8484 9.9111 12.836 9.95409L12.38 11.4551H11.288L10.9446 10.5273C10.931 10.4902 10.9079 10.4585 10.8784 10.4362C10.8488 10.4139 10.8141 10.402 10.7786 10.4021H10.776C10.74 10.4028 10.705 10.4156 10.6755 10.4391C10.646 10.4625 10.6234 10.4954 10.6106 10.5335L10.1874 11.7759L9.49353 8.16084C9.48507 8.11427 9.46233 8.0726 9.42935 8.04319C9.39637 8.01377 9.35526 7.99852 9.31331 8.00011C9.27134 8.00099 9.23096 8.01845 9.19916 8.04948C9.16736 8.08051 9.14614 8.12316 9.13918 8.17004L8.31293 13.699L7.62569 9.97874C7.61762 9.93518 7.59719 9.89581 7.56752 9.86662C7.53786 9.83743 7.50058 9.82002 7.46137 9.81704C7.42216 9.81406 7.38317 9.82568 7.35033 9.85013C7.31749 9.87457 7.2926 9.9105 7.27946 9.95245L6.82411 11.4098L4 11.4476C4.04353 11.5869 4.09045 11.7249 4.14076 11.8614H6.95152Z" fill="#040E16" stroke="#040E16" stroke-width="0.4"/>
</g>
</svg>
