<svg width="25" height="24" viewBox="0 0 25 24" fill="none" xmlns="http://www.w3.org/2000/svg">
<path d="M11.8333 10.5C10.4271 10.5 9.33333 11.625 9.33333 13C9.33333 14.4063 10.4271 15.5 11.8333 15.5C13.2083 15.5 14.3333 14.4063 14.3333 13C14.3333 11.625 13.2083 10.5 11.8333 10.5ZM11.8333 14.5C10.9896 14.5 10.3333 13.8438 10.3333 13C10.3333 12.1875 10.9896 11.5 11.8333 11.5C12.6458 11.5 13.3333 12.1875 13.3333 13C13.3333 13.8438 12.6458 14.5 11.8333 14.5ZM18.8333 6H13.8333V5C13.8333 4.46875 13.3646 4 12.8333 4H10.8333C10.2708 4 9.83333 4.46875 9.83333 5V6H4.83333C3.70833 6 2.83333 6.90625 2.83333 8V18C2.83333 19.125 3.70833 20 4.83333 20H18.8333C19.9271 20 20.8333 19.125 20.8333 18V8C20.8333 6.90625 19.9271 6 18.8333 6ZM10.8333 5H12.8333V8H10.8333V5ZM14.8333 19H8.83333V18.3438C8.83333 18.0625 8.89583 17.7813 9.05208 17.5625C9.27083 17.2188 9.67708 17 10.1458 17C10.6458 17 10.8958 17.25 11.8333 17.25C12.7396 17.25 12.9896 17 13.4896 17C13.9583 17 14.3646 17.2188 14.5833 17.5625C14.7396 17.7813 14.8333 18.0625 14.8333 18.3438V19ZM19.8333 18C19.8333 18.5625 19.3646 19 18.8333 19H15.8333V18.3438C15.8333 17.8438 15.6771 17.375 15.4271 17C14.9896 16.3438 14.2396 16 13.4896 16C12.8021 16 12.6146 16.25 11.8333 16.25C11.0208 16.25 10.8333 16 10.1458 16C9.39583 16 8.67708 16.3438 8.23958 17C7.98958 17.375 7.83333 17.8438 7.83333 18.3438V19H4.83333C4.27083 19 3.83333 18.5625 3.83333 18V8C3.83333 7.46875 4.27083 7 4.83333 7H9.83333V9H13.8333V7H18.8333C19.3646 7 19.8333 7.46875 19.8333 8V18Z" fill="white" stroke="white" stroke-width="0.2"/>
</svg>
