<svg width="46" height="46" viewBox="0 0 46 46" fill="none" xmlns="http://www.w3.org/2000/svg">
<rect width="46" height="46" rx="23" fill="#379BF9" fill-opacity="0.1"/>
<path d="M23 14.25C17.9375 14.25 14.1406 18.4688 14 23.25V25.1484C14 26.5898 15.125 27.75 16.5664 27.75H17.1992C17.9023 27.75 18.5 27.1875 18.5 26.4492V21.7734C18.5 21.0352 17.9023 20.4375 17.1992 20.4375H16.5664C16.4258 20.4375 16.3203 20.4727 16.2148 20.5078C17.3047 17.8359 19.9414 15.9727 23 15.9727C26.0234 15.9727 28.6602 17.8359 29.75 20.4727C29.6445 20.4727 29.5391 20.4375 29.3984 20.4375H28.7656C28.0625 20.4375 27.5 21.0352 27.5 21.7734V26.4492C27.5 27.1875 28.0625 27.75 28.7656 27.75H29.3984C29.7148 27.75 30.0312 27.7148 30.3125 27.6094V28.3125C30.3125 29.1211 29.6797 29.7188 28.9062 29.7188H25.0039C24.7227 29.2266 24.1602 28.875 23.5625 28.875H22.4375C21.4883 28.875 20.75 29.6484 20.75 30.5625C20.75 31.5117 21.4883 32.25 22.4023 32.25H23.5625C24.1602 32.25 24.7227 31.9336 25.0039 31.4062H28.9062C30.5938 31.4062 32 30.0352 32 28.3125V23.25C31.8242 18.4688 28.0273 14.25 23 14.25ZM16.5664 22.125H16.8125V26.0625H16.5664C16.0742 26.0625 15.6875 25.6406 15.6875 25.1484V23.25C15.6875 23.1797 15.6875 23.1094 15.6875 23.0039C15.7227 22.5117 16.0742 22.125 16.5664 22.125ZM29.3984 26.0625H29.1875V22.125H29.3984C29.8906 22.125 30.2422 22.5469 30.2773 23.0039C30.2773 23.1094 30.3125 23.1797 30.3125 23.25V25.1484C30.3125 25.6406 29.8906 26.0625 29.3984 26.0625Z" fill="#379BF9"/>
</svg>
