<svg width="19" height="15" viewBox="0 0 19 15" fill="none" xmlns="http://www.w3.org/2000/svg">
<path d="M5.28125 4.71875C5.46875 4.90625 5.71875 5 6 5C6.25 5 6.5 4.90625 6.6875 4.71875C7.09375 4.34375 7.09375 3.6875 6.6875 3.3125L4.6875 1.3125C4.3125 0.90625 3.65625 0.90625 3.28125 1.3125L1.28125 3.3125C0.875 3.6875 0.875 4.34375 1.28125 4.71875C1.65625 5.125 2.3125 5.125 2.6875 4.71875L3 4.4375V11.5938L2.6875 11.3125C2.3125 10.9062 1.65625 10.9062 1.28125 11.3125C0.875 11.6875 0.875 12.3438 1.28125 12.7188L3.28125 14.7188C3.46875 14.9062 3.71875 15 4 15C4.25 15 4.5 14.9062 4.6875 14.7188L6.6875 12.7188C7.09375 12.3438 7.09375 11.6875 6.6875 11.3125C6.3125 10.9062 5.65625 10.9062 5.28125 11.3125L5 11.5938V4.4375L5.28125 4.71875ZM10 4H18C18.5312 4 19 3.5625 19 3C19 2.46875 18.5312 2 18 2H10C9.4375 2 9 2.46875 9 3C9 3.5625 9.4375 4 10 4ZM18 7H10C9.4375 7 9 7.46875 9 8C9 8.5625 9.4375 9 10 9H18C18.5312 9 19 8.5625 19 8C19 7.46875 18.5312 7 18 7ZM18 12H10C9.4375 12 9 12.4688 9 13C9 13.5625 9.4375 14 10 14H18C18.5312 14 19 13.5625 19 13C19 12.4688 18.5312 12 18 12Z" fill="#FFC961"/>
</svg>
